<?xml version="1.0" encoding="UTF-8"?>
<!DOCTYPE svg PUBLIC "-//W3C//DTD SVG 1.1//EN" "http://www.w3.org/Graphics/SVG/1.1/DTD/svg11.dtd">
<svg xmlns="http://www.w3.org/2000/svg" version="1.1" width="196px" height="241px" style="shape-rendering:geometricPrecision; text-rendering:geometricPrecision; image-rendering:optimizeQuality; fill-rule:evenodd; clip-rule:evenodd" xmlns:xlink="http://www.w3.org/1999/xlink">
<g><path style="opacity:1" fill="#552d16" d="M 86.5,-0.5 C 91.5,-0.5 96.5,-0.5 101.5,-0.5C 120.471,0.705324 138.304,6.03866 155,15.5C 167.649,11.4918 180.149,11.9918 192.5,17C 193.781,18.4087 194.781,19.9087 195.5,21.5C 195.5,22.1667 195.5,22.8333 195.5,23.5C 193.858,34.757 190.191,45.4237 184.5,55.5C 191.279,76.2597 191.112,96.9263 184,117.5C 178.72,127.446 170.887,134.613 160.5,139C 153.968,141.365 147.302,143.199 140.5,144.5C 148.694,163.692 151.527,183.692 149,204.5C 147.295,213.985 144.962,223.318 142,232.5C 139.839,236.505 136.672,239.171 132.5,240.5C 129.833,240.5 127.167,240.5 124.5,240.5C 118.116,238.134 114.283,233.468 113,226.5C 112.433,223.832 111.933,221.166 111.5,218.5C 100.22,218.814 89.0533,218.147 78,216.5C 76.2298,222.086 74.5631,227.753 73,233.5C 61.4898,242.947 52.1565,240.947 45,227.5C 33.662,198.691 33.8287,170.024 45.5,141.5C 19.7398,139.738 5.40646,126.072 2.5,100.5C 3.9244,89.1994 5.09106,77.8661 6,66.5C 7.01088,62.123 8.17755,57.7897 9.5,53.5C 4.54704,44.3053 1.21371,34.6386 -0.5,24.5C -0.5,22.5 -0.5,20.5 -0.5,18.5C 2.30339,15.2671 5.97006,13.4338 10.5,13C 14.6618,12.4589 18.8284,11.9589 23,11.5C 28.8396,12.3773 34.673,12.8773 40.5,13C 54.8351,4.75346 70.1684,0.25346 86.5,-0.5 Z"/></g>
<g><path style="opacity:1" fill="#fdfcfc" d="M 180.5,57.5 C 181.896,76.352 178.729,94.352 171,111.5C 162.319,126.023 149.819,135.357 133.5,139.5C 131.473,139.338 129.473,139.505 127.5,140C 126.2,141.579 126.534,142.745 128.5,143.5C 130.593,144.058 132.093,145.391 133,147.5C 140.074,164.829 142.407,182.829 140,201.5C 137.682,212.435 135.848,223.435 134.5,234.5C 129.136,237.615 124.303,236.948 120,232.5C 118.192,227.934 116.692,223.267 115.5,218.5C 118.342,217.996 119.675,216.329 119.5,213.5C 102.387,215.234 85.3875,214.567 68.5,211.5C 66.8987,212.035 66.3987,213.035 67,214.5C 68.6995,215.406 70.5328,215.739 72.5,215.5C 72.9009,222.305 71.2342,228.472 67.5,234C 62.448,236.347 57.7814,235.847 53.5,232.5C 46.8174,212.037 44.3174,191.037 46,169.5C 47.3581,162.057 49.3581,154.723 52,147.5C 53.1737,144.762 55.0071,142.762 57.5,141.5C 60.1667,140.167 60.1667,138.833 57.5,137.5C 41.9735,136.819 28.8068,130.819 18,119.5C 12.5555,111.667 9.38887,103 8.5,93.5C 7.57398,79.3911 9.57398,65.7244 14.5,52.5C 8.85002,42.9172 5.18336,32.5839 3.5,21.5C 4.18867,19.6473 5.522,18.4807 7.5,18C 18.0223,15.94 28.5223,16.1067 39,18.5C 60.7604,5.41529 84.2604,0.915292 109.5,5C 125.472,6.99016 140.305,12.1568 154,20.5C 166.178,16.5511 178.345,16.5511 190.5,20.5C 190.034,32.8969 186.367,44.2302 179.5,54.5C 180.127,55.4168 180.461,56.4168 180.5,57.5 Z"/></g>
<g><path style="opacity:1" fill="#ffa594" d="M 11.5,21.5 C 17.5092,21.3338 23.5092,21.5005 29.5,22C 30.938,22.2189 32.2713,22.7189 33.5,23.5C 29.9284,24.5217 26.595,26.0217 23.5,28C 25.8107,27.8446 28.144,27.8446 30.5,28C 26.0039,29.2711 22.8372,31.7711 21,35.5C 22.3374,34.2351 23.8374,33.7351 25.5,34C 22.3039,38.364 19.3039,42.864 16.5,47.5C 9.87121,39.6477 8.20454,30.981 11.5,21.5 Z"/></g>
<g><path style="opacity:1" fill="#ffa594" d="M 163.5,22.5 C 168.179,22.3342 172.845,22.5008 177.5,23C 180.571,23.1466 183.404,23.9799 186,25.5C 185.334,33.8159 182.667,41.4825 178,48.5C 175.081,43.6603 171.914,38.9936 168.5,34.5C 169.262,34.0894 170.262,33.9227 171.5,34C 169.343,32.0879 167.009,30.4213 164.5,29C 165.833,28.6667 167.167,28.3333 168.5,28C 166.158,26.8289 163.824,25.6622 161.5,24.5C 162.243,23.8182 162.909,23.1515 163.5,22.5 Z"/></g>
<g><path style="opacity:1" fill="#f3dad0" d="M 180.5,57.5 C 187.882,78.4214 187.049,99.088 178,119.5C 166.883,134.137 152.05,140.804 133.5,139.5C 149.819,135.357 162.319,126.023 171,111.5C 178.729,94.352 181.896,76.352 180.5,57.5 Z"/></g>
<g><path style="opacity:1" fill="#572e18" d="M 58.5,70.5 C 67.6712,72.998 69.6712,78.1647 64.5,86C 55.3897,88.5628 51.5564,85.0628 53,75.5C 54.8119,73.6997 56.6452,72.0331 58.5,70.5 Z"/></g>
<g><path style="opacity:1" fill="#583019" d="M 122.5,71.5 C 130.696,71.529 133.863,75.529 132,83.5C 129.487,87.2115 125.987,88.3782 121.5,87C 114.908,81.5414 115.242,76.3747 122.5,71.5 Z"/></g>
<g><path style="opacity:1" fill="#fededa" d="M 37.5,81.5 C 44.7248,81.2201 47.8914,84.5534 47,91.5C 41.4082,96.857 36.0749,96.5237 31,90.5C 31.0232,85.9737 33.1898,82.9737 37.5,81.5 Z"/></g>
<g><path style="opacity:1" fill="#5e341e" d="M 89.5,82.5 C 93.2502,84.3643 97.2502,85.6977 101.5,86.5C 100.15,87.9501 98.4835,88.6168 96.5,88.5C 97.0104,94.072 96.1771,99.4053 94,104.5C 93.3109,105.357 92.4776,106.023 91.5,106.5C 87.4396,100.891 85.7729,94.5577 86.5,87.5C 84.6536,87.7778 83.3202,87.1112 82.5,85.5C 85.2167,85.026 87.5501,84.026 89.5,82.5 Z"/></g>
<g><path style="opacity:1" fill="#feddd9" d="M 142.5,82.5 C 148.176,81.8338 152.176,84.0005 154.5,89C 152.154,95.0037 147.821,97.0037 141.5,95C 135.991,90.3737 136.325,86.207 142.5,82.5 Z"/></g>
<g><path style="opacity:1" fill="#f37f71" d="M 89.5,85.5 C 91.3904,85.2965 92.8904,85.9632 94,87.5C 95.1315,92.8888 94.2982,97.8888 91.5,102.5C 89.138,96.9759 88.4714,91.3092 89.5,85.5 Z"/></g>
<g><path style="opacity:1" fill="#fd6559" d="M 111.5,144.5 C 107.719,143.073 103.886,141.739 100,140.5C 96.9275,141.036 94.2609,142.37 92,144.5C 89.6373,141.82 86.6373,140.487 83,140.5C 79.5105,141.276 76.0105,141.942 72.5,142.5C 62.2857,134.538 61.2857,125.705 69.5,116C 78.4059,112.126 86.0726,113.96 92.5,121.5C 97.5592,115.633 103.893,113.133 111.5,114C 121.191,118.195 124.025,125.028 120,134.5C 117.331,138 114.498,141.333 111.5,144.5 Z"/></g>
<g><path style="opacity:1" fill="#f1d8cd" d="M 8.5,93.5 C 9.38887,103 12.5555,111.667 18,119.5C 28.8068,130.819 41.9735,136.819 57.5,137.5C 40.9474,139.704 26.7807,135.038 15,123.5C 8.36504,114.312 6.19837,104.312 8.5,93.5 Z"/></g>
<g><path style="opacity:1" fill="#5a311b" d="M 111.5,144.5 C 114.833,144.5 118.167,144.5 121.5,144.5C 121.5,145.833 121.5,147.167 121.5,148.5C 117.486,148.666 113.486,148.499 109.5,148C 105.405,145.78 101.072,145.113 96.5,146C 95.4086,148.064 95.2419,150.231 96,152.5C 102.506,159.836 110.672,163.502 120.5,163.5C 120.5,164.833 120.5,166.167 120.5,167.5C 109.122,167.476 99.7882,163.143 92.5,154.5C 84.654,163.46 74.654,167.793 62.5,167.5C 62.33,166.178 62.6634,165.011 63.5,164C 71.059,163.258 78.059,160.925 84.5,157C 89.8856,153.517 90.5523,149.517 86.5,145C 85.5,144.833 84.5,144.667 83.5,144.5C 77.0273,146.785 70.3607,147.785 63.5,147.5C 63.5,146.167 63.5,144.833 63.5,143.5C 66.7131,143.81 69.7131,143.477 72.5,142.5C 76.0105,141.942 79.5105,141.276 83,140.5C 86.6373,140.487 89.6373,141.82 92,144.5C 94.2609,142.37 96.9275,141.036 100,140.5C 103.886,141.739 107.719,143.073 111.5,144.5 Z"/></g>
<g><path style="opacity:1" fill="#f2d9cf" d="M 128.5,143.5 C 130.924,143.192 133.257,143.526 135.5,144.5C 145.38,164.483 148.213,185.483 144,207.5C 142.157,215.205 140.157,222.871 138,230.5C 137.051,232.093 135.885,233.426 134.5,234.5C 135.848,223.435 137.682,212.435 140,201.5C 142.407,182.829 140.074,164.829 133,147.5C 132.093,145.391 130.593,144.058 128.5,143.5 Z"/></g>
<g><path style="opacity:1" fill="#f2d9ce" d="M 57.5,141.5 C 55.0071,142.762 53.1737,144.762 52,147.5C 49.3581,154.723 47.3581,162.057 46,169.5C 44.3174,191.037 46.8174,212.037 53.5,232.5C 51.1904,229.898 49.3571,226.898 48,223.5C 42.0516,205.296 40.0516,186.63 42,167.5C 43.401,158.292 46.5677,149.792 51.5,142C 53.4727,141.505 55.4727,141.338 57.5,141.5 Z"/></g>
</svg>
