<?xml version="1.0" encoding="UTF-8"?>
<!DOCTYPE svg PUBLIC "-//W3C//DTD SVG 1.1//EN" "http://www.w3.org/Graphics/SVG/1.1/DTD/svg11.dtd">
<svg xmlns="http://www.w3.org/2000/svg" version="1.1" width="211px" height="242px" style="shape-rendering:geometricPrecision; text-rendering:geometricPrecision; image-rendering:optimizeQuality; fill-rule:evenodd; clip-rule:evenodd" xmlns:xlink="http://www.w3.org/1999/xlink">
<g><path style="opacity:1" fill="#552d16" d="M 94.5,-0.5 C 99.5,-0.5 104.5,-0.5 109.5,-0.5C 128.675,0.833486 146.675,6.33349 163.5,16C 183.668,16.7633 199.335,25.2633 210.5,41.5C 210.5,42.5 210.5,43.5 210.5,44.5C 205.933,50.5633 200.266,55.3966 193.5,59C 195.171,64.0182 196.338,69.1849 197,74.5C 198.115,86.9537 197.449,99.2871 195,111.5C 186.937,132.037 171.77,142.704 149.5,143.5C 160.68,174.018 161.18,204.685 151,235.5C 147.628,238.556 143.794,240.556 139.5,241.5C 138.833,241.5 138.167,241.5 137.5,241.5C 133.601,240.352 130.101,238.352 127,235.5C 124.283,230.733 122.116,225.733 120.5,220.5C 112.833,219.167 105.167,219.167 97.5,220.5C 92.2876,235.273 82.9543,238.606 69.5,230.5C 67.7189,226.374 67.0522,222.041 67.5,217.5C 55.9709,214.132 49.1375,206.465 47,194.5C 46.2743,189.813 45.441,185.146 44.5,180.5C 46.089,167.146 49.089,154.146 53.5,141.5C 21.6078,138.956 7.9411,121.956 12.5,90.5C 11.7315,79.7297 12.7315,69.063 15.5,58.5C 14.0986,55.4433 11.7653,53.2767 8.5,52C 4.88599,48.8967 1.88599,45.3967 -0.5,41.5C -0.5,40.1667 -0.5,38.8333 -0.5,37.5C 12.0594,23.8868 27.7261,16.0534 46.5,14C 61.38,5.11807 77.38,0.284739 94.5,-0.5 Z"/></g>
<g><path style="opacity:1" fill="#fdfcfc" d="M 188.5,57.5 C 190.858,77.3418 187.358,96.0085 178,113.5C 168.231,128.126 154.731,136.793 137.5,139.5C 134.833,141.167 134.833,142.833 137.5,144.5C 144.521,159.159 147.854,174.659 147.5,191C 146.582,204.511 145.416,218.011 144,231.5C 143.691,232.766 143.191,233.933 142.5,235C 139.854,235.497 137.187,235.664 134.5,235.5C 132.629,235.141 131.129,234.141 130,232.5C 128.069,228.207 126.236,223.874 124.5,219.5C 125.628,218.738 126.795,218.071 128,217.5C 128.617,216.551 128.451,215.718 127.5,215C 117.879,215.391 108.212,215.557 98.5,215.5C 98.3944,205.561 93.3944,200.395 83.5,200C 82.1667,201 82.1667,202 83.5,203C 93.6049,205.098 96.7715,210.932 93,220.5C 91.6981,224.274 89.5314,227.441 86.5,230C 82.8333,230.667 79.1667,230.667 75.5,230C 74,229.167 72.8333,228 72,226.5C 71.6716,221.475 71.6716,216.475 72,211.5C 70.8545,210.316 69.6879,210.316 68.5,211.5C 62.2195,207.639 58.3862,201.973 57,194.5C 54.2059,176.541 55.3726,158.874 60.5,141.5C 62.0418,140.699 63.7085,140.366 65.5,140.5C 65.5,139.167 65.5,137.833 65.5,136.5C 65.3893,135.883 65.056,135.383 64.5,135C 48.8159,135.3 35.6492,129.8 25,118.5C 19.8727,110.952 17.0394,102.618 16.5,93.5C 15.6113,80.5818 16.9447,67.9151 20.5,55.5C 15.5704,51.7483 10.7371,47.7483 6,43.5C 4.69862,41.6354 4.36528,39.6354 5,37.5C 16.4096,26.048 30.243,19.8813 46.5,19C 62.5312,8.4076 80.1979,3.57426 99.5,4.5C 116.47,3.66334 132.803,6.49667 148.5,13C 152.828,14.8287 156.828,17.162 160.5,20C 175.61,20.4784 188.944,25.4784 200.5,35C 202.578,37.411 204.245,40.0777 205.5,43C 203.888,45.6162 201.888,47.9495 199.5,50C 195.42,52.0285 191.754,54.5285 188.5,57.5 Z"/></g>
<g><path style="opacity:1" fill="#ffa594" d="M 35.5,25.5 C 36.552,25.3505 37.552,25.5172 38.5,26C 35.328,27.7519 32.328,29.7519 29.5,32C 30.1667,32.3333 30.8333,32.6667 31.5,33C 30.1667,34.3333 28.8333,35.6667 27.5,37C 28.3081,37.3076 28.9747,37.8076 29.5,38.5C 26.5825,42.6661 23.9159,46.9994 21.5,51.5C 16.7154,49.3578 12.5488,46.3578 9,42.5C 8.33333,41.8333 8.33333,41.1667 9,40.5C 17.0677,34.0521 25.901,29.0521 35.5,25.5 Z"/></g>
<g><path style="opacity:1" fill="#ffa492" d="M 170.5,27.5 C 182.467,28.231 192.634,33.231 201,42.5C 201.667,43.1667 201.667,43.8333 201,44.5C 197.252,48.0812 193.085,51.0812 188.5,53.5C 185.696,48.864 182.696,44.364 179.5,40C 181.167,40.3333 182.833,40.6667 184.5,41C 181.98,39.2368 179.647,37.2368 177.5,35C 178.167,34.6667 178.833,34.3333 179.5,34C 176.824,31.3339 173.824,29.1673 170.5,27.5 Z"/></g>
<g><path style="opacity:1" fill="#562e17" d="M 63.5,72.5 C 72.4915,70.9934 76.3248,74.66 75,83.5C 69.5924,89.0124 64.5924,88.6791 60,82.5C 59.1822,78.4695 60.3489,75.1361 63.5,72.5 Z"/></g>
<g><path style="opacity:1" fill="#562e17" d="M 130.5,71.5 C 138.662,71.4983 141.828,75.4983 140,83.5C 137.398,87.2118 133.898,88.3785 129.5,87C 122.678,81.4304 123.012,76.2637 130.5,71.5 Z"/></g>
<g><path style="opacity:1" fill="#f4dbd0" d="M 188.5,57.5 C 193.609,73.0672 194.775,89.0672 192,105.5C 187.195,124.637 175.028,135.803 155.5,139C 149.509,139.499 143.509,139.666 137.5,139.5C 154.731,136.793 168.231,128.126 178,113.5C 187.358,96.0085 190.858,77.3418 188.5,57.5 Z"/></g>
<g><path style="opacity:1" fill="#fededa" d="M 45.5,81.5 C 55.2192,81.9879 57.5526,86.1546 52.5,94C 46.0888,96.5855 41.4221,94.7521 38.5,88.5C 39.9089,85.0906 42.2423,82.7573 45.5,81.5 Z"/></g>
<g><path style="opacity:1" fill="#5c321b" d="M 97.5,82.5 C 101.107,84.6545 105.107,85.9878 109.5,86.5C 108.009,87.2436 106.509,87.9103 105,88.5C 105.013,94.0545 104.013,99.3878 102,104.5C 99.0062,105.89 97.0062,104.89 96,101.5C 94.6908,96.9342 94.1908,92.2675 94.5,87.5C 93.1667,87.5 91.8333,87.5 90.5,87.5C 90.3802,84.7952 91.3802,84.1285 93.5,85.5C 95.261,84.9649 96.5943,83.9649 97.5,82.5 Z"/></g>
<g><path style="opacity:1" fill="#feddd9" d="M 150.5,82.5 C 156.137,81.8159 160.137,83.9826 162.5,89C 160.154,95.0037 155.821,97.0037 149.5,95C 143.991,90.3737 144.325,86.207 150.5,82.5 Z"/></g>
<g><path style="opacity:1" fill="#f48072" d="M 97.5,85.5 C 101.062,85.5638 102.729,87.3972 102.5,91C 102.293,95.1099 101.293,98.9432 99.5,102.5C 96.6352,97.048 95.9685,91.3813 97.5,85.5 Z"/></g>
<g><path style="opacity:1" fill="#fd6559" d="M 119.5,143.5 C 115.636,142.601 111.803,141.601 108,140.5C 104.592,140.621 101.758,141.954 99.5,144.5C 97.1926,142.116 94.3593,140.783 91,140.5C 87.1788,141.608 83.3455,142.608 79.5,143.5C 73.1165,138.394 70.2831,131.727 71,123.5C 74.7808,115.695 80.9475,112.862 89.5,115C 93.3451,116.42 96.6784,118.587 99.5,121.5C 106.02,113.202 114.02,111.368 123.5,116C 128.607,120.998 129.773,126.832 127,133.5C 125.053,137.276 122.553,140.61 119.5,143.5 Z"/></g>
<g><path style="opacity:1" fill="#f2d8ce" d="M 16.5,93.5 C 17.0394,102.618 19.8727,110.952 25,118.5C 35.6492,129.8 48.8159,135.3 64.5,135C 65.056,135.383 65.3893,135.883 65.5,136.5C 51.3202,138.87 38.3202,136.037 26.5,128C 16.9404,118.169 13.607,106.669 16.5,93.5 Z"/></g>
<g><path style="opacity:1" fill="#59301a" d="M 119.5,143.5 C 122.689,144.166 126.023,144.833 129.5,145.5C 128.91,146.799 127.91,147.632 126.5,148C 123.833,148.667 121.167,148.667 118.5,148C 114.987,146.829 111.487,145.662 108,144.5C 101.767,146.599 100.934,150.099 105.5,155C 111.933,160.034 119.267,162.701 127.5,163C 128.337,164.011 128.67,165.178 128.5,166.5C 116.968,167.269 107.468,163.269 100,154.5C 92.3905,163.719 82.5571,168.219 70.5,168C 69.5419,166.853 69.8753,165.853 71.5,165C 78.6559,164.059 85.3226,161.726 91.5,158C 95.3603,155.452 96.8603,151.952 96,147.5C 94.8829,145.876 93.3829,144.876 91.5,144.5C 85.0072,146.9 78.3405,148.066 71.5,148C 70.1667,147 70.1667,146 71.5,145C 74.2066,144.605 76.8733,144.105 79.5,143.5C 83.3455,142.608 87.1788,141.608 91,140.5C 94.3593,140.783 97.1926,142.116 99.5,144.5C 101.758,141.954 104.592,140.621 108,140.5C 111.803,141.601 115.636,142.601 119.5,143.5 Z"/></g>
<g><path style="opacity:1" fill="#f4dbd1" d="M 137.5,144.5 C 140.119,144.232 142.619,144.565 145,145.5C 153.084,165.06 155.75,185.393 153,206.5C 151.763,215.256 150.096,223.923 148,232.5C 144.063,236.43 139.563,237.43 134.5,235.5C 137.187,235.664 139.854,235.497 142.5,235C 143.191,233.933 143.691,232.766 144,231.5C 145.416,218.011 146.582,204.511 147.5,191C 147.854,174.659 144.521,159.159 137.5,144.5 Z"/></g>
<g><path style="opacity:1" fill="#f1d8cd" d="M 60.5,141.5 C 55.3726,158.874 54.2059,176.541 57,194.5C 58.3862,201.973 62.2195,207.639 68.5,211.5C 68.1575,213.225 67.1575,213.725 65.5,213C 56.1973,207.584 51.0307,199.417 50,188.5C 48.7621,173.594 51.0955,159.26 57,145.5C 57.4983,143.456 58.665,142.122 60.5,141.5 Z"/></g>
</svg>
