<?xml version="1.0" encoding="UTF-8"?>
<!DOCTYPE svg PUBLIC "-//W3C//DTD SVG 1.1//EN" "http://www.w3.org/Graphics/SVG/1.1/DTD/svg11.dtd">
<svg xmlns="http://www.w3.org/2000/svg" version="1.1" width="200px" height="239px" style="shape-rendering:geometricPrecision; text-rendering:geometricPrecision; image-rendering:optimizeQuality; fill-rule:evenodd; clip-rule:evenodd" xmlns:xlink="http://www.w3.org/1999/xlink">
<g><path style="opacity:1" fill="#552c16" d="M 85.5,-0.5 C 90.1667,-0.5 94.8333,-0.5 99.5,-0.5C 119.087,0.484555 137.42,5.98456 154.5,16C 162.5,16.3333 170.5,16.6667 178.5,17C 186.294,18.2009 193.294,21.0343 199.5,25.5C 199.5,27.8333 199.5,30.1667 199.5,32.5C 196.56,41.8745 191.893,50.3745 185.5,58C 189.236,71.8976 190.402,86.0643 189,100.5C 185.079,126.087 170.246,140.587 144.5,144C 143.978,144.561 143.645,145.228 143.5,146C 149.814,166.673 152.98,187.84 153,209.5C 154.484,214.769 155.651,220.102 156.5,225.5C 156.038,232.624 152.371,236.957 145.5,238.5C 143.833,238.5 142.167,238.5 140.5,238.5C 130.286,234.467 122.286,227.634 116.5,218C 109.565,216.64 102.565,215.806 95.5,215.5C 94.5905,225.654 88.9239,230.154 78.5,229C 76.0506,228.275 73.7173,227.275 71.5,226C 68.1667,222.333 64.8333,218.667 61.5,215C 55.0283,213.353 49.8616,209.853 46,204.5C 41.4251,196.629 39.2584,188.129 39.5,179C 39.8032,165.983 42.4699,153.483 47.5,141.5C 20.8386,139.835 5.83857,125.835 2.5,99.5C 3.9499,89.2052 5.11656,78.8719 6,68.5C 6.9603,62.8229 8.4603,57.3229 10.5,52C 5.57132,44.6929 1.90465,36.8595 -0.5,28.5C -0.5,25.1667 -0.5,21.8333 -0.5,18.5C 4.07626,15.6026 9.07626,13.7692 14.5,13C 22.8822,12.1971 31.2155,12.3638 39.5,13.5C 53.8022,5.09621 69.1355,0.429546 85.5,-0.5 Z"/></g>
<g><path style="opacity:1" fill="#fdfcfc" d="M 181.5,60.5 C 182.483,78.1751 179.649,95.1751 173,111.5C 164.228,127.138 151.061,136.804 133.5,140.5C 132.046,142.263 132.38,143.597 134.5,144.5C 140.526,165.705 143.359,187.371 143,209.5C 144.103,214.372 145.77,219.038 148,223.5C 148.498,226.482 148.665,229.482 148.5,232.5C 142.141,234.599 136.474,233.433 131.5,229C 126.183,224.816 122.516,219.65 120.5,213.5C 111.726,213.437 103.059,212.437 94.5,210.5C 91.9196,200.081 85.4196,194.081 75,192.5C 71.7666,192.7 68.9333,193.867 66.5,196C 65.0705,197.88 65.4038,199.38 67.5,200.5C 74.216,194.864 80.3827,195.531 86,202.5C 88.6774,206.852 90.5107,211.518 91.5,216.5C 89.8917,223.314 85.5583,226.147 78.5,225C 72.1667,221.333 67.1667,216.333 63.5,210C 61.2922,209.809 59.2922,209.309 57.5,208.5C 50.6474,200.105 47.6474,190.439 48.5,179.5C 48.6034,166.42 50.9367,153.754 55.5,141.5C 57.9118,141.306 58.9118,139.973 58.5,137.5C 53.3575,134.961 47.6908,133.461 41.5,133C 16.4893,122.495 5.8226,103.661 9.5,76.5C 9.75426,67.8953 11.4209,59.562 14.5,51.5C 7.92986,42.1254 4.59653,31.7921 4.5,20.5C 8.22996,18.4235 12.23,17.2569 16.5,17C 25.1871,16.5811 33.8538,16.5811 42.5,17C 52.2518,10.6372 62.9185,6.63724 74.5,5C 103.187,0.922802 129.853,6.25614 154.5,21C 168.317,19.2358 181.651,21.0691 194.5,26.5C 194.33,37.1947 190.496,46.528 183,54.5C 181.872,56.3453 181.372,58.3453 181.5,60.5 Z"/></g>
<g><path style="opacity:1" fill="#ffa392" d="M 12.5,21.5 C 19.175,21.3337 25.8417,21.5004 32.5,22C 29.0791,23.4748 25.7458,25.1414 22.5,27C 23.8333,27.3333 25.1667,27.6667 26.5,28C 23.6595,29.5864 20.9928,31.4197 18.5,33.5C 20.7771,33.9855 22.9437,33.3188 25,31.5C 22.327,36.4813 19.327,41.4813 16,46.5C 11.0382,39.5908 8.70484,31.9241 9,23.5C 10.3024,22.9152 11.469,22.2485 12.5,21.5 Z"/></g>
<g><path style="opacity:1" fill="#ffa493" d="M 162.5,24.5 C 172.4,24.7926 181.9,26.7926 191,30.5C 189.254,38.9958 185.587,46.6625 180,53.5C 177.627,47.805 174.46,42.6384 170.5,38C 172.207,37.8047 173.874,37.8047 175.5,38C 172.703,34.77 169.37,32.27 165.5,30.5C 165.667,30.1667 165.833,29.8333 166,29.5C 168.098,30.5674 170.265,31.0674 172.5,31C 168.856,29.0308 165.523,26.8642 162.5,24.5 Z"/></g>
<g><path style="opacity:1" fill="#572f19" d="M 56.5,73.5 C 61.9533,72.3959 65.9533,74.2293 68.5,79C 65.9042,84.9789 61.5709,86.6455 55.5,84C 51.3359,80.0052 51.6693,76.5052 56.5,73.5 Z"/></g>
<g><path style="opacity:1" fill="#562e17" d="M 121.5,74.5 C 126.991,73.4159 130.991,75.2493 133.5,80C 133.11,82.4591 131.776,84.1257 129.5,85C 126.5,85.6667 123.5,85.6667 120.5,85C 116.336,81.0052 116.669,77.5052 121.5,74.5 Z"/></g>
<g><path style="opacity:1" fill="#f4dbd1" d="M 181.5,60.5 C 187.781,80.8595 186.615,100.86 178,120.5C 166.879,135.139 152.046,141.806 133.5,140.5C 151.061,136.804 164.228,127.138 173,111.5C 179.649,95.1751 182.483,78.1751 181.5,60.5 Z"/></g>
<g><path style="opacity:1" fill="#feddda" d="M 33.5,80.5 C 39.4439,79.3021 43.4439,81.4688 45.5,87C 43.3324,92.4023 39.3324,94.4023 33.5,93C 25.6054,88.8459 25.6054,84.6793 33.5,80.5 Z"/></g>
<g><path style="opacity:1" fill="#5f3520" d="M 89.5,82.5 C 93.2502,84.3643 97.2502,85.6977 101.5,86.5C 100.68,88.1112 99.3464,88.7778 97.5,88.5C 97.2971,94.0537 96.1304,99.3871 94,104.5C 92.0624,105.86 90.3957,105.527 89,103.5C 86.9199,98.3703 86.0866,93.037 86.5,87.5C 84.6536,87.7778 83.3202,87.1112 82.5,85.5C 85.2167,85.026 87.5501,84.026 89.5,82.5 Z"/></g>
<g><path style="opacity:1" fill="#fededa" d="M 138.5,82.5 C 143.535,81.5021 147.702,82.8354 151,86.5C 151.487,92.3852 148.654,95.3852 142.5,95.5C 133.848,93.2114 132.515,88.8781 138.5,82.5 Z"/></g>
<g><path style="opacity:1" fill="#f17e70" d="M 89.5,85.5 C 93.3047,85.6425 94.9714,87.6425 94.5,91.5C 94.3775,95.4659 93.3775,99.1326 91.5,102.5C 88.6397,97.0906 87.973,91.424 89.5,85.5 Z"/></g>
<g><path style="opacity:1" fill="#f2d9cf" d="M 9.5,76.5 C 5.8226,103.661 16.4893,122.495 41.5,133C 47.6908,133.461 53.3575,134.961 58.5,137.5C 16.6293,137.633 0.296001,117.299 9.5,76.5 Z"/></g>
<g><path style="opacity:1" fill="#fd6458" d="M 110.5,142.5 C 105.985,140.721 101.318,140.221 96.5,141C 95.646,142.022 94.646,142.855 93.5,143.5C 91.0162,141.177 88.1828,139.51 85,138.5C 81.2689,139.891 77.4355,140.891 73.5,141.5C 65.1758,136.508 62.0091,129.175 64,119.5C 70.1884,110.541 78.0217,109.041 87.5,115C 89,116.5 90.5,118 92,119.5C 98.3304,111.185 106.164,109.352 115.5,114C 120.753,119.265 121.919,125.432 119,132.5C 116.331,136 113.498,139.333 110.5,142.5 Z"/></g>
<g><path style="opacity:1" fill="#5a321b" d="M 110.5,142.5 C 114.204,144.091 118.204,144.924 122.5,145C 123.641,145.741 123.641,146.575 122.5,147.5C 119.216,148.657 115.882,148.824 112.5,148C 108.992,146.331 105.325,145.164 101.5,144.5C 97.0106,144.833 95.5106,147.167 97,151.5C 103.034,158.933 110.867,162.767 120.5,163C 121.337,164.011 121.67,165.178 121.5,166.5C 109.882,167.024 100.549,162.69 93.5,153.5C 85.4855,162.232 75.4855,166.399 63.5,166C 62.1667,165 62.1667,164 63.5,163C 73.2064,162.215 81.7064,158.715 89,152.5C 91.2778,149.121 90.7778,146.288 87.5,144C 81.4606,144.239 75.4606,145.072 69.5,146.5C 66.042,147.226 64.3753,145.893 64.5,142.5C 67.7131,142.81 70.7131,142.477 73.5,141.5C 77.4355,140.891 81.2689,139.891 85,138.5C 88.1828,139.51 91.0162,141.177 93.5,143.5C 94.646,142.855 95.646,142.022 96.5,141C 101.318,140.221 105.985,140.721 110.5,142.5 Z"/></g>
<g><path style="opacity:1" fill="#f0d6cc" d="M 134.5,144.5 C 136.144,144.286 137.644,144.62 139,145.5C 145.779,166.616 149.112,188.282 149,210.5C 150.043,215.388 151.21,220.221 152.5,225C 152.587,228.329 151.254,230.829 148.5,232.5C 148.665,229.482 148.498,226.482 148,223.5C 145.77,219.038 144.103,214.372 143,209.5C 143.359,187.371 140.526,165.705 134.5,144.5 Z"/></g>
<g><path style="opacity:1" fill="#efd6cb" d="M 55.5,141.5 C 50.9367,153.754 48.6034,166.42 48.5,179.5C 47.6474,190.439 50.6474,200.105 57.5,208.5C 52.6771,206.261 49.1771,202.594 47,197.5C 41.657,178.698 43.157,160.365 51.5,142.5C 52.6888,141.571 54.0222,141.238 55.5,141.5 Z"/></g>
</svg>
