<?xml version="1.0" encoding="UTF-8"?>
<!DOCTYPE svg PUBLIC "-//W3C//DTD SVG 1.1//EN" "http://www.w3.org/Graphics/SVG/1.1/DTD/svg11.dtd">
<svg xmlns="http://www.w3.org/2000/svg" version="1.1" width="187px" height="243px" style="shape-rendering:geometricPrecision; text-rendering:geometricPrecision; image-rendering:optimizeQuality; fill-rule:evenodd; clip-rule:evenodd" xmlns:xlink="http://www.w3.org/1999/xlink">
<g><path style="opacity:1" fill="#552c16" d="M 22.5,-0.5 C 22.8333,-0.5 23.1667,-0.5 23.5,-0.5C 30.5021,1.79703 36.8355,5.4637 42.5,10.5C 57.2745,3.07818 72.9411,-0.255158 89.5,0.5C 111.985,0.037948 132.985,5.37128 152.5,16.5C 160.031,11.1567 168.364,8.32338 177.5,8C 181.072,11.6984 182.905,16.1984 183,21.5C 184.604,32.9857 184.77,44.4857 183.5,56C 183.982,62.0534 184.982,67.8867 186.5,73.5C 186.5,82.8333 186.5,92.1667 186.5,101.5C 182.035,127.961 166.369,142.294 139.5,144.5C 144.428,156.453 148.261,168.786 151,181.5C 153.535,191.813 152.702,201.813 148.5,211.5C 156.536,221.492 154.536,228.658 142.5,233C 136.167,233.667 129.833,233.667 123.5,233C 116.634,231.097 113.301,226.597 113.5,219.5C 103.469,219.498 93.4693,219.331 83.5,219C 81.0648,224.704 78.2314,230.204 75,235.5C 72.0022,238.738 68.5022,241.071 64.5,242.5C 63.5,242.5 62.5,242.5 61.5,242.5C 56.3934,241.237 52.56,238.237 50,233.5C 50.0954,223.07 47.4287,213.403 42,204.5C 36.0472,187.11 35.0472,169.443 39,151.5C 39.9199,147.737 41.4199,144.237 43.5,141C 17.6607,139.318 2.99404,125.818 -0.5,100.5C -0.5,99.5 -0.5,98.5 -0.5,97.5C 1.10036,88.3686 2.26703,79.0353 3,69.5C 4.19783,63.042 5.8645,56.7086 8,50.5C 8.22018,40.0887 9.22018,29.7554 11,19.5C 12.5613,11.3592 16.3946,4.69251 22.5,-0.5 Z"/></g>
<g><path style="opacity:1" fill="#fdfcfc" d="M 179.5,57.5 C 178.67,67.6585 178.17,77.9919 178,88.5C 174.088,117.571 157.922,135.238 129.5,141.5C 127.018,143.051 127.352,144.384 130.5,145.5C 139.1,163.899 142.933,183.232 142,203.5C 141.427,205.641 140.594,207.641 139.5,209.5C 137.915,210.002 137.415,211.002 138,212.5C 140.736,213.727 143.569,214.727 146.5,215.5C 148.466,218.549 148.966,221.882 148,225.5C 146.2,227.317 144.034,228.484 141.5,229C 135.833,229.667 130.167,229.667 124.5,229C 118.108,226.278 115.775,221.445 117.5,214.5C 102.793,215.704 88.1261,215.538 73.5,214C 72.1667,215 72.1667,216 73.5,217C 75.5767,217.192 77.5767,217.692 79.5,218.5C 77.2692,223.294 74.7692,227.961 72,232.5C 67.5788,237.778 62.4122,238.778 56.5,235.5C 56.2652,229.151 55.7652,222.817 55,216.5C 42.8124,192.098 41.3124,167.098 50.5,141.5C 51.9587,141.567 53.2921,141.234 54.5,140.5C 55.8009,139.116 55.8009,137.616 54.5,136C 19.1919,133.178 3.19186,114.011 6.5,78.5C 6.74814,69.5062 8.58148,60.8396 12,52.5C 11.4783,37.6625 13.8116,23.3292 19,9.5C 20.0128,7.15389 21.6794,5.48722 24,4.5C 30.7712,6.94458 36.7712,10.6113 42,15.5C 52.6623,9.39148 64.1623,5.89148 76.5,5C 100.318,2.62298 122.985,6.62298 144.5,17C 147.341,18.5864 150.007,20.4197 152.5,22.5C 159.114,15.694 167.114,12.5274 176.5,13C 177.834,15.6604 178.668,18.4937 179,21.5C 179.5,33.4954 179.667,45.4954 179.5,57.5 Z"/></g>
<g><path style="opacity:1" fill="#ffa694" d="M 23.5,9.5 C 28.4045,10.8817 32.4045,13.715 35.5,18C 32.8791,18.9385 30.2125,19.7719 27.5,20.5C 28.5,21.1667 29.5,21.8333 30.5,22.5C 28.3203,24.0902 25.987,25.4235 23.5,26.5C 24.376,27.2508 25.376,27.7508 26.5,28C 23.209,32.7478 20.0423,37.5812 17,42.5C 16.1617,30.859 18.3283,19.859 23.5,9.5 Z"/></g>
<g><path style="opacity:1" fill="#ffa695" d="M 170.5,17.5 C 172.167,17.5 173.833,17.5 175.5,17.5C 176.747,29.1549 176.747,40.8215 175.5,52.5C 172.595,45.685 168.928,39.3516 164.5,33.5C 165.729,32.7189 167.062,32.2189 168.5,32C 165.71,31.4391 163.377,30.1058 161.5,28C 162.833,27.6667 164.167,27.3333 165.5,27C 162.823,26.7506 160.49,25.7506 158.5,24C 162.434,21.5361 166.434,19.3694 170.5,17.5 Z"/></g>
<g><path style="opacity:1" fill="#5b331d" d="M 49.5,78.5 C 51.8784,80.0412 54.3784,81.3745 57,82.5C 59.5239,81.8218 61.6905,80.4885 63.5,78.5C 64.7199,78.8869 65.3865,79.7202 65.5,81C 62.9477,85.9385 58.9477,87.6052 53.5,86C 49.5641,84.6295 48.2308,82.1295 49.5,78.5 Z"/></g>
<g><path style="opacity:1" fill="#f3d9cf" d="M 179.5,57.5 C 183.13,74.8081 183.296,92.1415 180,109.5C 174.88,126.286 163.713,136.452 146.5,140C 140.877,141.029 135.21,141.529 129.5,141.5C 157.922,135.238 174.088,117.571 178,88.5C 178.17,77.9919 178.67,67.6585 179.5,57.5 Z"/></g>
<g><path style="opacity:1" fill="#5a321c" d="M 114.5,81.5 C 117.32,82.1963 119.987,83.1963 122.5,84.5C 125.104,84.4478 127.271,83.4478 129,81.5C 130.28,81.6135 131.113,82.2801 131.5,83.5C 128.473,88.2551 124.139,89.7551 118.5,88C 115.307,86.9745 113.974,84.8078 114.5,81.5 Z"/></g>
<g><path style="opacity:1" fill="#feddda" d="M 27.5,83.5 C 32.1264,82.7004 35.9597,84.0337 39,87.5C 40.1655,91.6836 38.6655,94.5169 34.5,96C 28.5369,97.5183 24.2036,95.5183 21.5,90C 23.0325,87.3047 25.0325,85.138 27.5,83.5 Z"/></g>
<g><path style="opacity:1" fill="#5c311b" d="M 87.5,82.5 C 89.8505,83.9941 92.3505,85.3274 95,86.5C 95.8732,86.2645 96.7065,85.9312 97.5,85.5C 98.462,87.8833 97.462,88.8833 94.5,88.5C 94.3056,94.0764 93.139,99.4098 91,104.5C 87.9162,105.959 85.9162,104.959 85,101.5C 83.7748,96.9147 83.2748,92.248 83.5,87.5C 81.6536,87.7778 80.3202,87.1112 79.5,85.5C 81.0207,85.1203 82.6874,84.9536 84.5,85C 85.9423,84.6232 86.9423,83.7899 87.5,82.5 Z"/></g>
<g><path style="opacity:1" fill="#f07e6f" d="M 87.5,85.5 C 90.8968,86.2585 92.2301,88.4251 91.5,92C 91.2586,95.2072 90.7586,98.3738 90,101.5C 89.586,101.957 89.086,102.291 88.5,102.5C 86.6527,98.7826 85.6527,94.7826 85.5,90.5C 85.7245,88.5453 86.3911,86.8787 87.5,85.5 Z"/></g>
<g><path style="opacity:1" fill="#fededa" d="M 133.5,86.5 C 140.411,85.4664 144.578,88.1331 146,94.5C 142.19,99.6685 137.357,100.835 131.5,98C 127.42,93.4643 128.087,89.6309 133.5,86.5 Z"/></g>
<g><path style="opacity:1" fill="#fd6559" d="M 107.5,144.5 C 103.493,143.495 99.4933,142.495 95.5,141.5C 92.2089,141.279 89.7089,142.613 88,145.5C 86.0113,142.335 83.178,140.668 79.5,140.5C 75.7928,141.011 72.1262,141.678 68.5,142.5C 60.5567,136.387 58.3901,128.72 62,119.5C 65.1215,116.021 68.9548,113.688 73.5,112.5C 79.6998,114.186 84.8664,117.519 89,122.5C 95.4889,114.666 103.322,112.833 112.5,117C 118.229,123.093 119.062,129.926 115,137.5C 112.63,140.039 110.13,142.372 107.5,144.5 Z"/></g>
<g><path style="opacity:1" fill="#f3d9cf" d="M 6.5,78.5 C 3.19186,114.011 19.1919,133.178 54.5,136C 55.8009,137.616 55.8009,139.116 54.5,140.5C 54.67,139.178 54.3366,138.011 53.5,137C 13.5505,136.892 -2.11619,117.392 6.5,78.5 Z"/></g>
<g><path style="opacity:1" fill="#5a311b" d="M 107.5,144.5 C 110.305,145.319 113.305,145.819 116.5,146C 117.337,147.011 117.67,148.178 117.5,149.5C 113.486,149.666 109.486,149.499 105.5,149C 101.432,146.272 97.0989,145.439 92.5,146.5C 91.4471,147.438 90.7804,148.605 90.5,150C 92.0548,153.561 94.3882,156.561 97.5,159C 103.102,162.201 109.102,164.201 115.5,165C 116.833,166 116.833,167 115.5,168C 104.036,168.184 94.8689,163.684 88,154.5C 83.2353,160.472 77.0686,164.305 69.5,166C 65.534,166.828 61.534,167.328 57.5,167.5C 57.33,166.178 57.6634,165.011 58.5,164C 66.3835,163.391 73.7168,161.058 80.5,157C 85.1764,153.053 85.5098,149.053 81.5,145C 74.3442,146.926 67.0109,147.593 59.5,147C 58.1667,146 58.1667,145 59.5,144C 62.6946,143.819 65.6946,143.319 68.5,142.5C 72.1262,141.678 75.7928,141.011 79.5,140.5C 83.178,140.668 86.0113,142.335 88,145.5C 89.7089,142.613 92.2089,141.279 95.5,141.5C 99.4933,142.495 103.493,143.495 107.5,144.5 Z"/></g>
<g><path style="opacity:1" fill="#efd6cc" d="M 50.5,141.5 C 41.3124,167.098 42.8124,192.098 55,216.5C 55.7652,222.817 56.2652,229.151 56.5,235.5C 54.5541,233.266 53.3874,230.599 53,227.5C 52.6667,223.5 52.3333,219.5 52,215.5C 39.2783,192.722 37.2783,169.055 46,144.5C 46.9078,142.561 48.4078,141.561 50.5,141.5 Z"/></g>
<g><path style="opacity:1" fill="#f3dacf" d="M 130.5,145.5 C 132.981,145.323 134.814,146.323 136,148.5C 145.076,166.132 148.743,184.799 147,204.5C 146.23,208.771 143.73,210.437 139.5,209.5C 140.594,207.641 141.427,205.641 142,203.5C 142.933,183.232 139.1,163.899 130.5,145.5 Z"/></g>
</svg>
