<?xml version="1.0" encoding="UTF-8"?>
<!DOCTYPE svg PUBLIC "-//W3C//DTD SVG 1.1//EN" "http://www.w3.org/Graphics/SVG/1.1/DTD/svg11.dtd">
<svg xmlns="http://www.w3.org/2000/svg" version="1.1" width="186px" height="241px" style="shape-rendering:geometricPrecision; text-rendering:geometricPrecision; image-rendering:optimizeQuality; fill-rule:evenodd; clip-rule:evenodd" xmlns:xlink="http://www.w3.org/1999/xlink">
<g><path style="opacity:1" fill="#552c16" d="M 82.5,-0.5 C 87.8333,-0.5 93.1667,-0.5 98.5,-0.5C 116.309,0.832051 133.142,5.83205 149,14.5C 159.763,9.67753 170.929,8.51087 182.5,11C 183.691,11.6979 184.691,12.5313 185.5,13.5C 185.5,20.1667 185.5,26.8333 185.5,33.5C 184.025,40.5008 182.692,47.6675 181.5,55C 182.92,61.2789 184.254,67.4456 185.5,73.5C 185.5,82.8333 185.5,92.1667 185.5,101.5C 179.914,127.68 163.581,141.847 136.5,144C 148.703,172.449 149.537,201.283 139,230.5C 136.79,235.888 132.957,239.221 127.5,240.5C 125.5,240.5 123.5,240.5 121.5,240.5C 117.599,239.286 114.432,236.953 112,233.5C 110.108,228.761 108.608,223.928 107.5,219C 96.4351,218.673 85.4351,217.839 74.5,216.5C 72.6859,221.67 71.1859,227.003 70,232.5C 62.1293,241.413 53.7959,241.747 45,233.5C 36.7137,217.743 32.8804,200.91 33.5,183C 32.7158,168.473 35.7158,154.807 42.5,142C 19.8183,140.451 5.48494,128.951 -0.5,107.5C -0.5,102.833 -0.5,98.1667 -0.5,93.5C 0.105584,80.0969 2.10558,66.7635 5.5,53.5C 3.55362,46.6018 2.05362,39.6018 1,32.5C 0.109681,25.086 0.443014,17.7527 2,10.5C 13.5957,7.59809 25.0957,8.26476 36.5,12.5C 51.0796,5.02568 66.4129,0.692347 82.5,-0.5 Z"/></g>
<g><path style="opacity:1" fill="#fdfcfc" d="M 176.5,56.5 C 178.457,77.2049 174.957,96.8716 166,115.5C 155.847,129.828 142.013,137.828 124.5,139.5C 123.314,140.961 123.314,142.295 124.5,143.5C 125.718,144.161 127.051,144.828 128.5,145.5C 136.046,164.481 138.546,184.148 136,204.5C 133.51,214.784 131.343,225.117 129.5,235.5C 125.133,237.161 121.133,236.495 117.5,233.5C 114.598,228.559 112.931,223.225 112.5,217.5C 115.694,217.824 116.694,216.658 115.5,214C 98.5694,215.243 81.7361,214.409 65,211.5C 63.0543,211.763 62.3877,212.763 63,214.5C 64.6995,215.406 66.5328,215.739 68.5,215.5C 68.3796,220.937 67.5463,226.27 66,231.5C 62.604,235.203 58.4374,236.369 53.5,235C 52.0577,234.623 51.0577,233.79 50.5,232.5C 42.1263,207.04 40.2929,181.04 45,154.5C 46.1365,150.757 47.4698,147.09 49,143.5C 50.6225,142.901 52.1225,142.234 53.5,141.5C 56.1667,140.167 56.1667,138.833 53.5,137.5C 18.2883,132.594 2.28826,112.261 5.5,76.5C 5.82443,68.3888 7.49109,60.5554 10.5,53C 5.5079,40.2216 3.84123,27.0549 5.5,13.5C 16.4061,11.5135 26.9061,12.8468 37,17.5C 47.966,10.9553 59.7993,6.78862 72.5,5C 99.465,1.55512 124.965,6.05512 149,18.5C 152.317,16.9499 155.817,15.7832 159.5,15C 166.5,14.3333 173.5,14.3333 180.5,15C 181.639,20.4162 181.806,25.9162 181,31.5C 180.144,39.9717 178.644,48.305 176.5,56.5 Z"/></g>
<g><path style="opacity:1" fill="#ffa493" d="M 9.5,17.5 C 16.7999,17.4519 23.7999,18.7852 30.5,21.5C 27.3435,22.7169 24.3435,24.2169 21.5,26C 23.5,26 25.5,26 27.5,26C 23.8901,27.944 20.5568,30.2774 17.5,33C 19.2072,33.1953 20.8739,33.1953 22.5,33C 19.042,38.0816 15.7087,43.2483 12.5,48.5C 9.4083,38.3081 8.4083,27.9747 9.5,17.5 Z"/></g>
<g><path style="opacity:1" fill="#ffa594" d="M 161.5,19.5 C 166.762,19.1953 171.928,19.5286 177,20.5C 177.159,30.0547 175.826,39.3881 173,48.5C 169.871,43.0739 166.371,37.9072 162.5,33C 163.833,32.3333 165.167,31.6667 166.5,31C 163.554,30.1939 160.888,28.8605 158.5,27C 160.167,26.6667 161.833,26.3333 163.5,26C 154.215,25.0075 153.548,22.8408 161.5,19.5 Z"/></g>
<g><path style="opacity:1" fill="#572e18" d="M 53.5,71.5 C 63.6799,72.3654 66.3465,77.1987 61.5,86C 52.3952,89.2049 48.2285,86.0382 49,76.5C 50.025,74.313 51.525,72.6464 53.5,71.5 Z"/></g>
<g><path style="opacity:1" fill="#552d16" d="M 119.5,71.5 C 127.832,72.3207 130.665,76.6541 128,84.5C 118.472,90.3027 113.805,87.6361 114,76.5C 115.406,74.2563 117.239,72.5897 119.5,71.5 Z"/></g>
<g><path style="opacity:1" fill="#f4dad0" d="M 176.5,56.5 C 180.198,66.0279 181.864,76.0279 181.5,86.5C 181.551,124.445 162.551,142.111 124.5,139.5C 142.013,137.828 155.847,129.828 166,115.5C 174.957,96.8716 178.457,77.2049 176.5,56.5 Z"/></g>
<g><path style="opacity:1" fill="#fededa" d="M 33.5,81.5 C 38.7199,81.4217 42.0532,83.755 43.5,88.5C 43.6102,90.374 42.9436,91.874 41.5,93C 35.0085,97.1275 30.0085,95.7942 26.5,89C 27.6724,85.3302 30.0058,82.8302 33.5,81.5 Z"/></g>
<g><path style="opacity:1" fill="#5f351f" d="M 86.5,82.5 C 89.7891,84.5672 93.4557,85.9005 97.5,86.5C 96.6798,88.1112 95.3464,88.7778 93.5,88.5C 93.1003,93.5648 92.267,98.5648 91,103.5C 89.6043,105.527 87.9376,105.86 86,104.5C 83.4073,99.1288 82.2406,93.4621 82.5,87.5C 80.6536,87.7778 79.3202,87.1112 78.5,85.5C 81.447,84.92 84.1137,83.92 86.5,82.5 Z"/></g>
<g><path style="opacity:1" fill="#feddd9" d="M 137.5,82.5 C 142.609,81.923 146.776,83.5896 150,87.5C 148.999,94.6044 144.833,97.1044 137.5,95C 133.787,93.3088 132.621,90.4755 134,86.5C 135.376,85.2949 136.542,83.9616 137.5,82.5 Z"/></g>
<g><path style="opacity:1" fill="#f27f71" d="M 86.5,85.5 C 87.5832,85.5394 88.5832,85.8728 89.5,86.5C 89.8333,88.5 90.1667,90.5 90.5,92.5C 90.7586,96.1596 89.9252,99.4929 88,102.5C 86.009,98.2783 84.8423,93.7783 84.5,89C 84.8618,87.5657 85.5285,86.3991 86.5,85.5 Z"/></g>
<g><path style="opacity:1" fill="#eed5ca" d="M 5.5,76.5 C 2.28826,112.261 18.2883,132.594 53.5,137.5C 38.0783,139.592 24.5783,135.592 13,125.5C 7.88399,119.831 4.88399,113.165 4,105.5C 3.70763,95.653 4.20763,85.9863 5.5,76.5 Z"/></g>
<g><path style="opacity:1" fill="#fd6559" d="M 108.5,143.5 C 104.274,142.815 100.107,141.815 96,140.5C 93.0044,140.914 90.5044,142.248 88.5,144.5C 86.1113,141.806 83.1113,140.473 79.5,140.5C 75.824,141.171 72.1573,141.838 68.5,142.5C 61.5195,137.188 59.0195,130.188 61,121.5C 65.595,113.792 72.095,111.625 80.5,115C 83.8844,116.932 86.7177,119.432 89,122.5C 95.4608,112.924 103.628,111.09 113.5,117C 120.11,124.495 119.943,131.995 113,139.5C 111.629,141.041 110.129,142.375 108.5,143.5 Z"/></g>
<g><path style="opacity:1" fill="#5a301a" d="M 108.5,143.5 C 111.305,144.319 114.305,144.819 117.5,145C 118.833,146 118.833,147 117.5,148C 110.073,149.299 103.073,148.132 96.5,144.5C 92.7169,145.437 91.2169,147.771 92,151.5C 98.1004,159.468 106.267,163.635 116.5,164C 117.833,165 117.833,166 116.5,167C 105.054,167.442 95.721,163.275 88.5,154.5C 80.6078,163.472 70.6078,167.805 58.5,167.5C 58.33,166.178 58.6634,165.011 59.5,164C 69.1174,163.73 77.2841,160.23 84,153.5C 86.7062,148.634 85.3729,145.634 80,144.5C 73.3753,146.905 66.5419,147.905 59.5,147.5C 59.33,146.178 59.6634,145.011 60.5,144C 63.3647,143.817 66.0314,143.317 68.5,142.5C 72.1573,141.838 75.824,141.171 79.5,140.5C 83.1113,140.473 86.1113,141.806 88.5,144.5C 90.5044,142.248 93.0044,140.914 96,140.5C 100.107,141.815 104.274,142.815 108.5,143.5 Z"/></g>
<g><path style="opacity:1" fill="#f1d8cd" d="M 124.5,143.5 C 128.793,142.536 131.96,143.869 134,147.5C 141.151,165.512 143.484,184.179 141,203.5C 139.783,212.035 137.783,220.368 135,228.5C 134.065,231.595 132.231,233.929 129.5,235.5C 131.343,225.117 133.51,214.784 136,204.5C 138.546,184.148 136.046,164.481 128.5,145.5C 127.051,144.828 125.718,144.161 124.5,143.5 Z"/></g>
<g><path style="opacity:1" fill="#f1d8ce" d="M 53.5,141.5 C 52.1225,142.234 50.6225,142.901 49,143.5C 47.4698,147.09 46.1365,150.757 45,154.5C 40.2929,181.04 42.1263,207.04 50.5,232.5C 48.5491,231.284 47.0491,229.618 46,227.5C 36.012,202.146 35.012,176.479 43,150.5C 44.3726,147.588 45.8726,144.754 47.5,142C 49.4727,141.505 51.4727,141.338 53.5,141.5 Z"/></g>
</svg>
