<?xml version="1.0" encoding="UTF-8"?>
<!DOCTYPE svg PUBLIC "-//W3C//DTD SVG 1.1//EN" "http://www.w3.org/Graphics/SVG/1.1/DTD/svg11.dtd">
<svg xmlns="http://www.w3.org/2000/svg" version="1.1" width="195px" height="242px" style="shape-rendering:geometricPrecision; text-rendering:geometricPrecision; image-rendering:optimizeQuality; fill-rule:evenodd; clip-rule:evenodd" xmlns:xlink="http://www.w3.org/1999/xlink">
<g><path style="opacity:1" fill="#562e17" d="M 86.5,-0.5 C 91.5,-0.5 96.5,-0.5 101.5,-0.5C 120.299,0.763583 137.966,6.09692 154.5,15.5C 165.439,11.7891 176.439,11.6224 187.5,15C 190.139,15.6529 192.473,16.8196 194.5,18.5C 194.5,21.8333 194.5,25.1667 194.5,28.5C 192.474,37.7346 189.141,46.568 184.5,55C 190.484,74.7115 190.984,94.5448 186,114.5C 177.562,132.323 163.395,142.156 143.5,144C 150.932,159.757 153.432,176.257 151,193.5C 149.026,205.849 142.193,213.849 130.5,217.5C 132.156,228.568 127.489,234.235 116.5,234.5C 112.877,234.756 109.544,233.923 106.5,232C 103.396,228.46 101.063,224.46 99.5,220C 92.1667,219.333 84.8333,219.333 77.5,220C 75.2046,224.759 73.0379,229.592 71,234.5C 67.7749,238.021 63.9416,240.354 59.5,241.5C 59.1667,241.5 58.8333,241.5 58.5,241.5C 50.7043,241.174 45.8709,237.174 44,229.5C 37.1706,204.239 36.8373,178.906 43,153.5C 44.1126,149.492 45.6126,145.659 47.5,142C 33.6365,141.831 21.8031,136.997 12,127.5C 8.88907,123.613 6.55574,119.28 5,114.5C 3.59735,104.635 3.09735,94.8017 3.5,85C 3.95407,74.0619 5.95407,63.3952 9.5,53C 4.67232,45.0048 1.33899,36.5048 -0.5,27.5C -0.5,24.1667 -0.5,20.8333 -0.5,17.5C 3.49426,15.1127 7.8276,13.6127 12.5,13C 21.8544,12.5576 31.1877,12.5576 40.5,13C 54.831,4.75433 70.1643,0.254328 86.5,-0.5 Z"/></g>
<g><path style="opacity:1" fill="#fdfcfc" d="M 179.5,55.5 C 182.339,77.4618 178.506,98.1285 168,117.5C 160.139,128.218 149.973,135.551 137.5,139.5C 133.143,139.778 132.143,141.445 134.5,144.5C 140.992,160.118 143.158,176.452 141,193.5C 139.476,198.882 137.142,203.882 134,208.5C 132.512,210.16 130.679,211.16 128.5,211.5C 127.167,211.5 125.833,211.5 124.5,211.5C 125.509,216.796 125.676,222.129 125,227.5C 114.035,233.832 107.035,230.832 104,218.5C 101.478,209.199 104.978,204.199 114.5,203.5C 114.5,202.5 114.5,201.5 114.5,200.5C 104.032,199.967 98.6988,204.967 98.5,215.5C 89.292,215.793 80.1254,215.46 71,214.5C 67.6415,216.812 68.1415,218.146 72.5,218.5C 71.4528,224.821 68.7861,230.321 64.5,235C 60.7713,236.7 57.1046,236.867 53.5,235.5C 48.1761,220.391 45.8428,204.724 46.5,188.5C 46.5851,171.924 49.5851,155.924 55.5,140.5C 58.3357,140.163 59.0024,138.829 57.5,136.5C 57.3893,135.883 57.056,135.383 56.5,135C 43.1162,134.991 31.1162,130.991 20.5,123C 12.696,114.763 8.69598,104.93 8.5,93.5C 8.22438,84.1209 8.72438,74.7876 10,65.5C 10.7344,60.8925 12.2344,56.5592 14.5,52.5C 7.58678,42.4979 4.25344,31.4979 4.5,19.5C 15.5552,15.9225 26.7219,15.5892 38,18.5C 62.452,4.6275 88.6187,0.460834 116.5,6C 120.797,7.15769 125.131,8.15769 129.5,9C 138.104,11.9721 146.438,15.4721 154.5,19.5C 166.245,16.6304 177.911,16.9638 189.5,20.5C 189.627,28.6885 188.127,36.6885 185,44.5C 183.14,48.2198 181.307,51.8864 179.5,55.5 Z"/></g>
<g><path style="opacity:1" fill="#ffa593" d="M 10.5,21.5 C 16.5092,21.3338 22.5092,21.5005 28.5,22C 29.938,22.2189 31.2713,22.7189 32.5,23.5C 29.1346,24.9008 25.8013,26.4008 22.5,28C 24.856,28.1554 27.1893,28.1554 29.5,28C 25.6549,29.4198 22.3216,31.5865 19.5,34.5C 19.8333,34.8333 20.1667,35.1667 20.5,35.5C 21.6199,34.1666 22.9532,33.6666 24.5,34C 21.3039,38.364 18.3039,42.864 15.5,47.5C 13.8539,46.2214 12.6872,44.5547 12,42.5C 9.29771,36.4072 8.29771,30.0738 9,23.5C 9.71719,22.9558 10.2172,22.2891 10.5,21.5 Z"/></g>
<g><path style="opacity:1" fill="#ffa594" d="M 162.5,22.5 C 170.256,21.9203 177.756,22.9203 185,25.5C 184.525,33.9252 181.858,41.5919 177,48.5C 174.081,43.6603 170.914,38.9936 167.5,34.5C 168.262,34.0894 169.262,33.9227 170.5,34C 168.343,32.0879 166.009,30.4213 163.5,29C 164.833,28.6667 166.167,28.3333 167.5,28C 165.158,26.8289 162.824,25.6622 160.5,24.5C 161.243,23.8182 161.909,23.1515 162.5,22.5 Z"/></g>
<g><path style="opacity:1" fill="#f4dcd1" d="M 179.5,55.5 C 181.905,59.756 183.405,64.4227 184,69.5C 186,81.5 186,93.5 184,105.5C 177.173,128.472 161.673,139.805 137.5,139.5C 149.973,135.551 160.139,128.218 168,117.5C 178.506,98.1285 182.339,77.4618 179.5,55.5 Z"/></g>
<g><path style="opacity:1" fill="#572e18" d="M 55.5,72.5 C 64.7911,70.7017 68.6244,74.3684 67,83.5C 61.5924,89.0124 56.5924,88.6791 52,82.5C 51.1822,78.4695 52.3489,75.1361 55.5,72.5 Z"/></g>
<g><path style="opacity:1" fill="#562d17" d="M 122.5,71.5 C 130.662,71.4983 133.828,75.4983 132,83.5C 126.124,89.2795 121.124,88.6129 117,81.5C 116.477,76.8799 118.31,73.5466 122.5,71.5 Z"/></g>
<g><path style="opacity:1" fill="#fededa" d="M 35.5,82.5 C 40.2225,81.5531 44.0558,82.8864 47,86.5C 47.5572,92.2456 44.8906,95.2456 39,95.5C 34.4941,95.3327 31.3275,93.166 29.5,89C 31.014,86.3219 33.014,84.1552 35.5,82.5 Z"/></g>
<g><path style="opacity:1" fill="#5c311b" d="M 89.5,82.5 C 93.1071,84.6545 97.1071,85.9878 101.5,86.5C 100.009,87.2436 98.5095,87.9103 97,88.5C 97.0131,94.0545 96.0131,99.3878 94,104.5C 92.0624,105.86 90.3957,105.527 89,103.5C 86.8229,98.4053 85.9896,93.072 86.5,87.5C 84.6536,87.7778 83.3202,87.1112 82.5,85.5C 83.3914,84.4104 84.3914,84.4104 85.5,85.5C 87.261,84.9649 88.5943,83.9649 89.5,82.5 Z"/></g>
<g><path style="opacity:1" fill="#feddd9" d="M 141.5,82.5 C 146.126,81.7004 149.96,83.0337 153,86.5C 153.574,92.2645 150.907,95.2645 145,95.5C 139.572,95.4059 136.905,92.7393 137,87.5C 138.025,85.313 139.525,83.6464 141.5,82.5 Z"/></g>
<g><path style="opacity:1" fill="#f58173" d="M 89.5,85.5 C 93.3047,85.6425 94.9714,87.6425 94.5,91.5C 94.3775,95.4659 93.3775,99.1326 91.5,102.5C 88.9695,96.9987 88.3028,91.332 89.5,85.5 Z"/></g>
<g><path style="opacity:1" fill="#fd6458" d="M 116.5,143.5 C 112.493,142.495 108.493,141.495 104.5,140.5C 100.965,140.351 98.1317,141.684 96,144.5C 93.8683,141.684 91.0349,140.351 87.5,140.5C 83.824,141.171 80.1573,141.838 76.5,142.5C 69.108,136.824 66.608,129.491 69,120.5C 78.3986,111.064 87.5653,111.397 96.5,121.5C 103.048,113.214 111.048,111.381 120.5,116C 125.607,120.998 126.773,126.832 124,133.5C 122.053,137.276 119.553,140.61 116.5,143.5 Z"/></g>
<g><path style="opacity:1" fill="#f2d9ce" d="M 8.5,93.5 C 8.69598,104.93 12.696,114.763 20.5,123C 31.1162,130.991 43.1162,134.991 56.5,135C 57.056,135.383 57.3893,135.883 57.5,136.5C 43.8092,139.052 31.1426,136.552 19.5,129C 9.24616,119.079 5.57949,107.246 8.5,93.5 Z"/></g>
<g><path style="opacity:1" fill="#59301a" d="M 116.5,143.5 C 119.943,144.01 123.276,144.844 126.5,146C 123.276,148.477 119.61,149.143 115.5,148C 111.847,146.727 108.181,145.56 104.5,144.5C 100.011,144.833 98.5106,147.167 100,151.5C 106.235,159.198 114.401,163.031 124.5,163C 125.337,164.011 125.67,165.178 125.5,166.5C 113.877,167.187 104.21,163.187 96.5,154.5C 88.654,163.46 78.654,167.793 66.5,167.5C 66.33,166.178 66.6634,165.011 67.5,164C 75.0019,163.044 82.0019,160.711 88.5,157C 93.3083,153.95 94.3083,150.116 91.5,145.5C 90.2278,144.954 88.8945,144.621 87.5,144.5C 81.024,146.77 74.3573,147.77 67.5,147.5C 67.33,146.178 67.6634,145.011 68.5,144C 71.3647,143.817 74.0314,143.317 76.5,142.5C 80.1573,141.838 83.824,141.171 87.5,140.5C 91.0349,140.351 93.8683,141.684 96,144.5C 98.1317,141.684 100.965,140.351 104.5,140.5C 108.493,141.495 112.493,142.495 116.5,143.5 Z"/></g>
<g><path style="opacity:1" fill="#f0d6cc" d="M 55.5,140.5 C 49.5851,155.924 46.5851,171.924 46.5,188.5C 45.8428,204.724 48.1761,220.391 53.5,235.5C 50.2652,234.405 48.4318,232.072 48,228.5C 42.1092,202.465 42.1092,176.465 48,150.5C 49,148.167 50,145.833 51,143.5C 51.9078,141.561 53.4078,140.561 55.5,140.5 Z"/></g>
<g><path style="opacity:1" fill="#f4dbd1" d="M 134.5,144.5 C 136.467,144.261 138.301,144.594 140,145.5C 148.231,163.704 149.565,182.371 144,201.5C 141.123,208.068 136.29,211.901 129.5,213C 128.944,212.617 128.611,212.117 128.5,211.5C 130.679,211.16 132.512,210.16 134,208.5C 137.142,203.882 139.476,198.882 141,193.5C 143.158,176.452 140.992,160.118 134.5,144.5 Z"/></g>
</svg>
