<?xml version="1.0" encoding="UTF-8"?>
<!DOCTYPE svg PUBLIC "-//W3C//DTD SVG 1.1//EN" "http://www.w3.org/Graphics/SVG/1.1/DTD/svg11.dtd">
<svg xmlns="http://www.w3.org/2000/svg" version="1.1" width="211px" height="238px" style="shape-rendering:geometricPrecision; text-rendering:geometricPrecision; image-rendering:optimizeQuality; fill-rule:evenodd; clip-rule:evenodd" xmlns:xlink="http://www.w3.org/1999/xlink">
<g><path style="opacity:1" fill="#552d16" d="M 92.5,-0.5 C 96.8333,-0.5 101.167,-0.5 105.5,-0.5C 125.976,0.379906 144.976,6.21324 162.5,17C 180.206,18.4453 195.039,25.6119 207,38.5C 207.941,40.7274 209.108,42.7274 210.5,44.5C 210.5,45.1667 210.5,45.8333 210.5,46.5C 205.87,52.9562 199.87,57.7895 192.5,61C 197.212,77.8724 197.379,94.7058 193,111.5C 186.105,130.38 172.605,141.213 152.5,144C 156.499,155.157 159.166,166.657 160.5,178.5C 160.462,190.869 156.129,201.369 147.5,210C 143.952,211.941 140.286,213.607 136.5,215C 132.788,220.379 128.121,224.713 122.5,228C 111.054,230.302 104.721,225.802 103.5,214.5C 96.5273,215.442 89.5273,216.275 82.5,217C 76.88,225.791 69.5467,232.624 60.5,237.5C 57.5,237.5 54.5,237.5 51.5,237.5C 46.0359,235.19 43.0359,231.023 42.5,225C 43.1566,219.717 44.3233,214.55 46,209.5C 46.3713,194.082 47.7047,178.749 50,163.5C 51.1358,156.123 52.9691,148.956 55.5,142C 45.7375,140.892 36.4042,138.226 27.5,134C 15.5784,125.663 9.24509,114.163 8.5,99.5C 10.0615,89.8863 11.2281,80.2196 12,70.5C 12.6167,65.5334 13.7833,60.7001 15.5,56C 9.33199,51.3316 3.99866,45.8316 -0.5,39.5C -0.5,38.1667 -0.5,36.8333 -0.5,35.5C 8.74151,24.8062 20.4082,17.9729 34.5,15C 38.7946,14.0881 43.1279,13.4215 47.5,13C 61.4665,4.73046 76.4665,0.230458 92.5,-0.5 Z"/></g>
<g><path style="opacity:1" fill="#fdfcfc" d="M 195.5,54.5 C 194.005,54.9887 192.671,55.6554 191.5,56.5C 189.027,56.0882 187.694,57.0882 187.5,59.5C 188.68,79.0842 185.18,97.7508 177,115.5C 168.748,127.862 157.581,136.196 143.5,140.5C 142.314,141.705 142.314,143.039 143.5,144.5C 148.684,158.633 150.518,173.299 149,188.5C 147.836,196.5 144.336,203.166 138.5,208.5C 133.075,213.75 127.408,218.917 121.5,224C 110.073,225.246 105.906,220.413 109,209.5C 110.54,205.581 112.707,202.081 115.5,199C 117.609,197.093 120.109,196.26 123,196.5C 126.56,197.211 130.06,198.211 133.5,199.5C 132.68,195.183 130.013,192.683 125.5,192C 119.891,191.3 115.224,193.134 111.5,197.5C 108.519,201.294 106.186,205.461 104.5,210C 95.9019,211.6 87.2353,212.433 78.5,212.5C 75.652,220.204 70.652,226.371 63.5,231C 60.9906,232.336 58.324,233.17 55.5,233.5C 52.8984,233.533 50.8984,232.533 49.5,230.5C 50.6811,224.117 52.1811,217.783 54,211.5C 53.4869,187.301 56.6535,163.634 63.5,140.5C 64.8528,138.872 64.5195,137.538 62.5,136.5C 47.3662,135.613 34.5329,129.613 24,118.5C 18.5555,109.948 15.7222,100.615 15.5,90.5C 14.4346,77.6248 16.1012,65.1248 20.5,53C 15.3434,49.8057 10.51,45.9723 6,41.5C 4.71066,39.9452 4.04399,38.2785 4,36.5C 16.2806,24.4488 31.1139,17.9488 48.5,17C 63.4717,7.67353 79.805,3.50687 97.5,4.5C 120.248,3.58693 141.248,9.08693 160.5,21C 173.061,22.409 184.727,26.409 195.5,33C 199.036,36.2012 202.203,39.7012 205,43.5C 205.667,44.5 205.667,45.5 205,46.5C 202.225,49.7797 199.058,52.4463 195.5,54.5 Z"/></g>
<g><path style="opacity:1" fill="#ffa493" d="M 35.5,23.5 C 36.552,23.3505 37.552,23.5172 38.5,24C 35.228,25.6078 32.228,27.6078 29.5,30C 30.1667,30.3333 30.8333,30.6667 31.5,31C 29.208,32.2899 27.208,33.9565 25.5,36C 26.8333,36 28.1667,36 29.5,36C 26.2916,40.2471 23.4583,44.7471 21,49.5C 16.0868,46.8069 11.9201,43.3069 8.5,39C 16.6308,32.2695 25.6308,27.1028 35.5,23.5 Z"/></g>
<g><path style="opacity:1" fill="#ffa493" d="M 171.5,28.5 C 177.066,28.1747 182.399,29.6747 187.5,33C 192.286,36.1179 196.786,39.6179 201,43.5C 201.667,44.1667 201.667,44.8333 201,45.5C 197.218,49.28 192.884,52.28 188,54.5C 185.542,49.7471 182.708,45.2471 179.5,41C 180.833,41 182.167,41 183.5,41C 180.98,39.2368 178.647,37.2368 176.5,35C 177.738,35.0773 178.738,34.9106 179.5,34.5C 177.098,32.0908 174.431,30.0908 171.5,28.5 Z"/></g>
<g><path style="opacity:1" fill="#9d8577" d="M 134.5,71.5 C 132.833,71.5 131.167,71.5 129.5,71.5C 131.167,68.8333 132.833,68.8333 134.5,71.5 Z"/></g>
<g><path style="opacity:1" fill="#542c15" d="M 63.5,71.5 C 73.8228,70.9631 76.8228,75.4631 72.5,85C 63.4056,88.2346 59.2389,85.0679 60,75.5C 60.6897,73.6498 61.8564,72.3164 63.5,71.5 Z"/></g>
<g><path style="opacity:1" fill="#542c15" d="M 129.5,71.5 C 131.167,71.5 132.833,71.5 134.5,71.5C 137.167,72.1667 138.833,73.8333 139.5,76.5C 139.5,78.1667 139.5,79.8333 139.5,81.5C 139.084,83.7525 137.751,85.2525 135.5,86C 125.989,86.8122 122.823,82.6455 126,73.5C 126.816,72.1772 127.983,71.5106 129.5,71.5 Z"/></g>
<g><path style="opacity:1" fill="#f4dbd0" d="M 187.5,59.5 C 190.857,68.0605 192.19,77.0605 191.5,86.5C 192.982,120.27 176.982,138.27 143.5,140.5C 157.581,136.196 168.748,127.862 177,115.5C 185.18,97.7508 188.68,79.0842 187.5,59.5 Z"/></g>
<g><path style="opacity:1" fill="#998173" d="M 139.5,76.5 C 142.167,78.1667 142.167,79.8333 139.5,81.5C 139.5,79.8333 139.5,78.1667 139.5,76.5 Z"/></g>
<g><path style="opacity:1" fill="#fededa" d="M 149.5,80.5 C 154.126,79.7004 157.96,81.0337 161,84.5C 162.165,88.6836 160.665,91.5169 156.5,93C 150.613,94.9593 146.613,93.1259 144.5,87.5C 144.719,86.062 145.219,84.7287 146,83.5C 147.518,82.8366 148.685,81.8366 149.5,80.5 Z"/></g>
<g><path style="opacity:1" fill="#5e331d" d="M 96.5,81.5 C 100.25,83.3643 104.25,84.6977 108.5,85.5C 106.693,86.3951 105.36,87.7284 104.5,89.5C 103.806,93.8603 102.972,98.1936 102,102.5C 100.604,104.527 98.9376,104.86 97,103.5C 94.4073,98.1288 93.2406,92.4621 93.5,86.5C 91.6536,86.7778 90.3202,86.1112 89.5,84.5C 90.3914,83.4104 91.3914,83.4104 92.5,84.5C 94.261,83.9649 95.5943,82.9649 96.5,81.5 Z"/></g>
<g><path style="opacity:1" fill="#fededa" d="M 44.5,81.5 C 50.057,81.1 53.7237,83.4334 55.5,88.5C 52.062,95.9594 46.8953,97.2927 40,92.5C 38.6986,90.6354 38.3653,88.6354 39,86.5C 40.7297,84.5981 42.563,82.9314 44.5,81.5 Z"/></g>
<g><path style="opacity:1" fill="#f27e70" d="M 97.5,84.5 C 99.0174,84.5106 100.184,85.1772 101,86.5C 102.066,91.8041 101.4,96.8041 99,101.5C 95.6289,95.904 95.1289,90.2374 97.5,84.5 Z"/></g>
<g><path style="opacity:1" fill="#fd6559" d="M 120.5,141.5 C 117.582,140.546 114.582,139.879 111.5,139.5C 108.184,139.471 105.517,140.805 103.5,143.5C 101.395,140.283 98.3951,138.95 94.5,139.5C 90.4931,140.173 86.4931,140.839 82.5,141.5C 78.3919,137.886 75.2253,133.553 73,128.5C 72.3556,115.551 78.5222,110.051 91.5,112C 95.731,113.284 99.0644,115.784 101.5,119.5C 109.112,109.28 117.945,107.946 128,115.5C 132.492,126.19 129.992,134.857 120.5,141.5 Z"/></g>
<g><path style="opacity:1" fill="#f3d9ce" d="M 15.5,90.5 C 15.7222,100.615 18.5555,109.948 24,118.5C 34.5329,129.613 47.3662,135.613 62.5,136.5C 44.0205,139.167 29.1872,133.167 18,118.5C 13.2474,109.322 12.414,99.9888 15.5,90.5 Z"/></g>
<g><path style="opacity:1" fill="#59301a" d="M 120.5,141.5 C 120.918,142.222 121.584,142.722 122.5,143C 125.833,143.333 129.167,143.667 132.5,144C 133.833,145 133.833,146 132.5,147C 128.833,147.667 125.167,147.667 121.5,147C 118.257,145.53 114.924,144.364 111.5,143.5C 107.011,143.833 105.511,146.167 107,150.5C 113.365,157.934 121.532,162.1 131.5,163C 132.833,164 132.833,165 131.5,166C 120.375,165.939 111.042,161.773 103.5,153.5C 95.4419,162.083 85.4419,166.416 73.5,166.5C 73.33,165.178 73.6634,164.011 74.5,163C 83.7963,162.016 91.9629,158.516 99,152.5C 101.739,144.57 98.906,141.737 90.5,144C 85.6566,145.863 80.6566,146.53 75.5,146C 74.6634,144.989 74.33,143.822 74.5,142.5C 77.2788,142.721 79.9455,142.388 82.5,141.5C 86.4931,140.839 90.4931,140.173 94.5,139.5C 98.3951,138.95 101.395,140.283 103.5,143.5C 105.517,140.805 108.184,139.471 111.5,139.5C 114.582,139.879 117.582,140.546 120.5,141.5 Z"/></g>
<g><path style="opacity:1" fill="#edd3c8" d="M 63.5,140.5 C 56.6535,163.634 53.4869,187.301 54,211.5C 52.1811,217.783 50.6811,224.117 49.5,230.5C 47.4672,229.102 46.4672,227.102 46.5,224.5C 47.5087,219.465 48.6753,214.465 50,209.5C 50.2575,188.18 52.9242,167.18 58,146.5C 58.8624,144.913 59.5291,143.246 60,141.5C 61.0113,140.663 62.1779,140.33 63.5,140.5 Z"/></g>
<g><path style="opacity:1" fill="#f1d8cd" d="M 143.5,144.5 C 145.199,144.34 146.866,144.506 148.5,145C 154.028,158.642 156.194,172.808 155,187.5C 153.451,195.101 149.951,201.601 144.5,207C 142.833,207.833 141.167,208.667 139.5,209.5C 138.893,209.376 138.56,209.043 138.5,208.5C 144.336,203.166 147.836,196.5 149,188.5C 150.518,173.299 148.684,158.633 143.5,144.5 Z"/></g>
</svg>
