<?xml version="1.0" encoding="UTF-8"?>
<!DOCTYPE svg PUBLIC "-//W3C//DTD SVG 1.1//EN" "http://www.w3.org/Graphics/SVG/1.1/DTD/svg11.dtd">
<svg xmlns="http://www.w3.org/2000/svg" version="1.1" width="187px" height="244px" style="shape-rendering:geometricPrecision; text-rendering:geometricPrecision; image-rendering:optimizeQuality; fill-rule:evenodd; clip-rule:evenodd" xmlns:xlink="http://www.w3.org/1999/xlink">
<g><path style="opacity:1" fill="#552c15" d="M 24.5,-0.5 C 24.8333,-0.5 25.1667,-0.5 25.5,-0.5C 32.2892,2.44001 38.4559,6.44001 44,11.5C 63.2949,2.94728 83.4615,0.113951 104.5,3C 122.228,4.90921 138.728,10.4092 154,19.5C 161.632,13.9551 170.132,11.4551 179.5,12C 182.169,15.3356 183.669,19.1689 184,23.5C 185.988,36.4105 185.821,49.2439 183.5,62C 184.553,66.5876 185.553,71.0876 186.5,75.5C 186.5,84.5 186.5,93.5 186.5,102.5C 183.03,129.469 167.697,144.636 140.5,148C 151.801,172.558 150.968,196.725 138,220.5C 137.827,225.584 137.161,230.584 136,235.5C 134.253,239.416 131.42,242.083 127.5,243.5C 124.5,243.5 121.5,243.5 118.5,243.5C 115.275,241.787 112.441,239.454 110,236.5C 107.027,231.754 104.527,226.754 102.5,221.5C 92.5413,221.163 82.5413,221.163 72.5,221.5C 71.8507,228.982 67.8507,233.482 60.5,235C 53.7764,235.774 47.1097,235.441 40.5,234C 33.6417,231.451 31.1417,226.617 33,219.5C 33.6898,216.804 35.1898,214.637 37.5,213C 34.8306,209.664 33.3306,205.831 33,201.5C 32.5406,181.665 36.374,162.665 44.5,144.5C 44.2907,143.914 43.9574,143.414 43.5,143C 18.126,141.448 3.45937,128.281 -0.5,103.5C -0.5,101.833 -0.5,100.167 -0.5,98.5C 0.625259,81.8981 3.79193,65.5647 9,49.5C 8.70307,34.9009 11.3697,20.9009 17,7.5C 19.0282,4.30777 21.5282,1.64111 24.5,-0.5 Z"/></g>
<g><path style="opacity:1" fill="#fdfcfc" d="M 179.5,60.5 C 179.488,77.0712 176.988,93.4046 172,109.5C 163.448,129.188 148.615,140.855 127.5,144.5C 126.834,147.183 128.168,148.516 131.5,148.5C 140.359,172.297 139.192,195.63 128,218.5C 127.5,225.158 127.334,231.825 127.5,238.5C 120.5,240.758 115.333,238.424 112,231.5C 110.151,227.802 108.318,224.136 106.5,220.5C 108.078,219.702 109.744,219.202 111.5,219C 112.337,217.989 112.67,216.822 112.5,215.5C 101.999,216.09 91.4995,216.756 81,217.5C 76.6015,217.672 72.4348,217.006 68.5,215.5C 70.2338,223.544 67.2338,228.71 59.5,231C 54.5,231.667 49.5,231.667 44.5,231C 37.9037,229.751 35.4037,225.917 37,219.5C 39.7311,216.288 43.2311,214.788 47.5,215C 48.6843,213.855 48.6843,212.688 47.5,211.5C 44.8248,210.522 43.3248,208.522 43,205.5C 42.3333,197.833 42.3333,190.167 43,182.5C 45.0995,169.151 48.2662,156.151 52.5,143.5C 53.8333,142.833 54.8333,141.833 55.5,140.5C 55.5858,139.504 55.2524,138.671 54.5,138C 36.5784,137.374 22.4118,129.874 12,115.5C 8.51461,108.545 6.34794,101.212 5.5,93.5C 5.30322,79.0137 7.80322,65.0137 13,51.5C 13.0899,39.2591 14.7566,27.2591 18,15.5C 19.5244,11.102 22.0244,7.43531 25.5,4.5C 28.5,6 31.5,7.5 34.5,9C 37.0482,11.8851 39.8815,14.3851 43,16.5C 60.8026,7.44951 79.6359,4.28284 99.5,7C 119.289,8.09601 137.289,14.2627 153.5,25.5C 158.207,22.1464 163.207,19.3131 168.5,17C 175.813,13.3322 179.646,15.4989 180,23.5C 180.649,35.8476 180.482,48.181 179.5,60.5 Z"/></g>
<g><path style="opacity:1" fill="#ffa594" d="M 25.5,8.5 C 30.0455,10.3744 33.7122,13.3744 36.5,17.5C 33.8333,18.1667 31.1667,18.8333 28.5,19.5C 29.5,20.1667 30.5,20.8333 31.5,21.5C 29.6641,22.919 27.6641,24.0857 25.5,25C 26.5,25.3333 27.5,25.6667 28.5,26C 24.2771,31.2239 20.4437,36.7239 17,42.5C 16.3933,30.2602 19.2266,18.9269 25.5,8.5 Z"/></g>
<g><path style="opacity:1" fill="#ffa594" d="M 172.5,20.5 C 174.39,20.2965 175.89,20.9632 177,22.5C 177.721,33.8626 177.388,45.1959 176,56.5C 172.814,49.7745 169.314,43.1079 165.5,36.5C 166.729,35.7189 168.062,35.2189 169.5,35C 166.554,34.1939 163.888,32.8605 161.5,31C 162.833,30.6667 164.167,30.3333 165.5,30C 163.369,29.4569 161.369,28.6236 159.5,27.5C 163.597,24.5904 167.93,22.2571 172.5,20.5 Z"/></g>
<g><path style="opacity:1" fill="#572f19" d="M 56.5,72.5 C 66.0593,71.546 69.5593,75.546 67,84.5C 61.9791,89.9172 57.3125,89.5839 53,83.5C 51.8824,79.0767 53.0491,75.41 56.5,72.5 Z"/></g>
<g><path style="opacity:1" fill="#f2d9cf" d="M 179.5,60.5 C 183.248,77.4599 183.415,94.4599 180,111.5C 173.957,131.458 160.457,142.292 139.5,144C 135.514,144.499 131.514,144.666 127.5,144.5C 148.615,140.855 163.448,129.188 172,109.5C 176.988,93.4046 179.488,77.0712 179.5,60.5 Z"/></g>
<g><path style="opacity:1" fill="#572f18" d="M 122.5,76.5 C 130.372,76.2013 133.872,79.868 133,87.5C 131.434,90.8126 128.767,92.4792 125,92.5C 118.894,91.2961 116.561,87.6294 118,81.5C 119.025,79.313 120.525,77.6464 122.5,76.5 Z"/></g>
<g><path style="opacity:1" fill="#fededa" d="M 32.5,80.5 C 39.5765,79.77 43.4099,82.77 44,89.5C 39.5991,94.0276 34.5991,94.6943 29,91.5C 26.3502,86.562 27.5169,82.8953 32.5,80.5 Z"/></g>
<g><path style="opacity:1" fill="#603620" d="M 90.5,84.5 C 92.5441,85.0312 94.2107,86.1978 95.5,88C 102.206,88.4524 102.706,89.619 97,91.5C 96.6217,96.3011 95.6217,100.968 94,105.5C 91.916,108.033 89.916,108.033 88,105.5C 86.3633,100.271 85.1966,94.9379 84.5,89.5C 83.5,89.1667 82.8333,88.5 82.5,87.5C 84.0207,87.1203 85.6874,86.9536 87.5,87C 88.9423,86.6232 89.9423,85.7899 90.5,84.5 Z"/></g>
<g><path style="opacity:1" fill="#fededa" d="M 136.5,88.5 C 140.308,88.1632 143.974,88.6632 147.5,90C 151.842,95.4107 150.508,99.0774 143.5,101C 133.551,100.909 131.218,96.7426 136.5,88.5 Z"/></g>
<g><path style="opacity:1" fill="#f37f71" d="M 90.5,87.5 C 93.1292,88.3335 94.4625,90.1668 94.5,93C 93.7388,97.2831 92.5721,101.45 91,105.5C 89.0548,102.323 88.2215,98.823 88.5,95C 88.6311,92.2228 89.2977,89.7228 90.5,87.5 Z"/></g>
<g><path style="opacity:1" fill="#fd6458" d="M 108.5,147.5 C 104.575,145.969 100.575,144.636 96.5,143.5C 93.8086,143.679 91.4753,144.679 89.5,146.5C 87.9716,145.139 86.3049,143.972 84.5,143C 79.4993,142.749 74.4993,142.916 69.5,143.5C 63.0933,138.324 60.9266,131.657 63,123.5C 66.7315,116.22 72.5648,113.72 80.5,116C 85.2154,117.557 88.8821,120.39 91.5,124.5C 96.4253,118.377 102.759,116.21 110.5,118C 119.887,122.784 122.053,129.951 117,139.5C 114.953,143.048 112.12,145.715 108.5,147.5 Z"/></g>
<g><path style="opacity:1" fill="#f4dbd0" d="M 5.5,93.5 C 6.34794,101.212 8.51461,108.545 12,115.5C 22.4118,129.874 36.5784,137.374 54.5,138C 55.2524,138.671 55.5858,139.504 55.5,140.5C 54.7109,140.217 54.0442,139.717 53.5,139C 36.6343,140.936 22.4676,135.77 11,123.5C 4.72959,114.208 2.89626,104.208 5.5,93.5 Z"/></g>
<g><path style="opacity:1" fill="#592f19" d="M 108.5,147.5 C 111.305,148.319 114.305,148.819 117.5,149C 118.337,150.011 118.67,151.178 118.5,152.5C 115.482,152.665 112.482,152.498 109.5,152C 105.172,150.503 100.838,149.003 96.5,147.5C 94.052,148.114 92.3853,149.614 91.5,152C 96.8524,161.69 105.186,166.856 116.5,167.5C 116.67,168.822 116.337,169.989 115.5,171C 104.329,170.497 95.4958,165.664 89,156.5C 80.6824,165.053 70.5158,168.886 58.5,168C 57.1667,167 57.1667,166 58.5,165C 67.9716,164.954 76.4716,162.121 84,156.5C 88.1966,150.626 86.6966,147.293 79.5,146.5C 73.2587,148.007 66.9254,148.674 60.5,148.5C 60.5,147.167 60.5,145.833 60.5,144.5C 63.7131,144.81 66.7131,144.477 69.5,143.5C 74.4993,142.916 79.4993,142.749 84.5,143C 86.3049,143.972 87.9716,145.139 89.5,146.5C 91.4753,144.679 93.8086,143.679 96.5,143.5C 100.575,144.636 104.575,145.969 108.5,147.5 Z"/></g>
<g><path style="opacity:1" fill="#efd5ca" d="M 52.5,143.5 C 48.2662,156.151 45.0995,169.151 43,182.5C 42.3333,190.167 42.3333,197.833 43,205.5C 43.3248,208.522 44.8248,210.522 47.5,211.5C 42.3684,212.477 39.2018,210.477 38,205.5C 36.378,184.299 40.0447,163.965 49,144.5C 50.0113,143.663 51.1779,143.33 52.5,143.5 Z"/></g>
<g><path style="opacity:1" fill="#f2d9ce" d="M 131.5,148.5 C 135.73,147.563 138.23,149.229 139,153.5C 147.493,175.939 145.827,197.605 134,218.5C 133.667,222.833 133.333,227.167 133,231.5C 132.11,234.634 130.276,236.967 127.5,238.5C 127.334,231.825 127.5,225.158 128,218.5C 139.192,195.63 140.359,172.297 131.5,148.5 Z"/></g>
</svg>
