<?xml version="1.0" encoding="UTF-8"?>
<!DOCTYPE svg PUBLIC "-//W3C//DTD SVG 1.1//EN" "http://www.w3.org/Graphics/SVG/1.1/DTD/svg11.dtd">
<svg xmlns="http://www.w3.org/2000/svg" version="1.1" width="500px" height="500px" style="shape-rendering:geometricPrecision; text-rendering:geometricPrecision; image-rendering:optimizeQuality; fill-rule:evenodd; clip-rule:evenodd" xmlns:xlink="http://www.w3.org/1999/xlink">
<!-- <g><path style="opacity:1" fill="#fefefe" d="M -0.5,-0.5 C 166.167,-0.5 332.833,-0.5 499.5,-0.5C 499.5,166.167 499.5,332.833 499.5,499.5C 332.833,499.5 166.167,499.5 -0.5,499.5C -0.5,332.833 -0.5,166.167 -0.5,-0.5 Z"/></g> -->
<g><path style="opacity:1" fill="#58301a" d="M 221.5,108.5 C 266.819,105.391 307.486,117.391 343.5,144.5C 359.502,141.833 375.502,141.999 391.5,145C 395.477,145.785 399.311,146.951 403,148.5C 402.358,167.928 397.525,186.261 388.5,203.5C 401.289,231.949 402.789,260.949 393,290.5C 382.192,313.63 364.359,328.464 339.5,335C 331.578,336.917 323.578,338.417 315.5,339.5C 322.81,358.508 325.31,378.175 323,398.5C 321.141,422.42 312.807,443.753 298,462.5C 289.475,472.014 279.308,474.514 267.5,470C 263.067,466.64 260.567,462.14 260,456.5C 259.324,451.129 259.491,445.796 260.5,440.5C 248.167,440.5 235.833,440.5 223.5,440.5C 224.127,448.052 223.294,455.385 221,462.5C 216.757,470.039 210.257,473.205 201.5,472C 191.871,468.264 183.705,462.431 177,454.5C 150.77,418.728 143.937,379.395 156.5,336.5C 136.716,336.454 118.716,330.954 102.5,320C 87.8145,306.617 81.1479,289.951 82.5,270C 84.1306,256.224 85.2973,242.391 86,228.5C 86.6956,220.49 88.1956,212.657 90.5,205C 81.6856,186.723 75.3522,167.556 71.5,147.5C 71.9308,145.234 73.2642,143.734 75.5,143C 95.1549,140.067 114.822,139.733 134.5,142C 160.284,122.461 189.284,111.294 221.5,108.5 Z"/></g>
<g><path style="opacity:1" fill="#fefefe" d="M 383.5,198.5 C 380.714,198.956 379.381,200.623 379.5,203.5C 390.698,243.879 381.364,278.713 351.5,308C 332.998,322.167 311.998,329.167 288.5,329C 283.586,332.171 283.253,335.837 287.5,340C 291.584,339.838 295.084,341.005 298,343.5C 305.074,366.806 306.407,390.472 302,414.5C 299.711,427.38 294.711,439.046 287,449.5C 281.519,455.657 274.686,459.324 266.5,460.5C 265.372,453.58 265.205,446.58 266,439.5C 268.447,438.594 270.947,437.761 273.5,437C 274.833,435.667 274.833,434.333 273.5,433C 250.192,436.395 226.859,436.228 203.5,432.5C 203.215,434.288 203.548,435.955 204.5,437.5C 208.851,438.392 213.184,439.392 217.5,440.5C 219.285,448.122 218.452,455.455 215,462.5C 208.364,467.66 201.531,467.826 194.5,463C 176.649,448.108 164.815,429.275 159,406.5C 154.78,382.519 155.946,358.852 162.5,335.5C 168.923,334.774 175.257,333.774 181.5,332.5C 182.634,330.034 182.801,327.367 182,324.5C 181.25,323.874 180.416,323.374 179.5,323C 149.879,327.019 125.046,318.186 105,296.5C 98.2418,286.895 94.2418,276.228 93,264.5C 92.0273,253.186 91.5273,241.852 91.5,230.5C 91.9744,221.437 93.641,212.604 96.5,204C 86.8488,186.384 80.8488,167.717 78.5,148C 88.1327,146.961 97.7994,146.461 107.5,146.5C 117.516,146.81 127.516,146.977 137.5,147C 166.292,124.403 199.125,113.57 236,114.5C 274.752,113.64 309.252,125.14 339.5,149C 353.15,148.522 366.816,148.522 380.5,149C 386.204,149.677 391.871,150.511 397.5,151.5C 396.57,164.556 393.737,177.222 389,189.5C 387.643,192.898 385.81,195.898 383.5,198.5 Z"/></g>
<g><path style="opacity:1" fill="#ffa897" d="M 89.5,153.5 C 101.171,153.333 112.838,153.5 124.5,154C 125.624,154.249 126.624,154.749 127.5,155.5C 120.004,159.414 112.671,163.58 105.5,168C 110.024,166.708 114.691,166.041 119.5,166C 113.653,170.091 107.987,174.424 102.5,179C 105.062,178.651 107.562,177.817 110,176.5C 107.767,182.3 104.934,187.966 101.5,193.5C 94.6208,182.872 90.2875,171.205 88.5,158.5C 88.5916,156.742 88.925,155.076 89.5,153.5 Z"/></g>
<g><path style="opacity:1" fill="#ffa897" d="M 356.5,156.5 C 367.671,155.941 378.671,156.941 389.5,159.5C 388.388,171.339 384.721,182.506 378.5,193C 377.668,193.688 377.002,193.521 376.5,192.5C 374.625,189.249 372.625,186.082 370.5,183C 372.126,183.195 373.793,183.195 375.5,183C 370.313,178.903 365.313,174.57 360.5,170C 363.563,170.467 366.563,171.134 369.5,172C 364.023,167.094 358.023,162.927 351.5,159.5C 353.145,158.304 354.811,157.304 356.5,156.5 Z"/></g>
<g><path style="opacity:1" fill="#f6dfd5" d="M 91.5,230.5 C 91.5273,241.852 92.0273,253.186 93,264.5C 94.2418,276.228 98.2418,286.895 105,296.5C 125.046,318.186 149.879,327.019 179.5,323C 180.416,323.374 181.25,323.874 182,324.5C 182.801,327.367 182.634,330.034 181.5,332.5C 181.5,331.167 181.5,329.833 181.5,328.5C 105.052,338.062 75.0524,305.396 91.5,230.5 Z"/></g>
<g><path style="opacity:1" fill="#59301b" d="M 272.5,294.5 C 273.822,294.33 274.989,294.663 276,295.5C 276.5,300.335 279.167,302.668 284,302.5C 289.418,302.581 291.918,299.915 291.5,294.5C 293.167,294.5 294.833,294.5 296.5,294.5C 297.062,303.436 292.896,308.102 284,308.5C 275.32,307.356 271.487,302.69 272.5,294.5 Z"/></g>
<g><path style="opacity:1" fill="#59311c" d="M 193.5,294.5 C 195.144,294.286 196.644,294.62 198,295.5C 198.686,304.107 194.686,308.774 186,309.5C 177.695,308.576 173.862,303.909 174.5,295.5C 176.167,295.5 177.833,295.5 179.5,295.5C 179.94,303.221 183.773,305.554 191,302.5C 192.024,299.865 192.857,297.198 193.5,294.5 Z"/></g>
<g><path style="opacity:1" fill="#ffddd9" d="M 149.5,298.5 C 154.93,298.161 160.264,298.661 165.5,300C 172.54,304.86 171.873,308.527 163.5,311C 158.5,311.667 153.5,311.667 148.5,311C 141.674,306.291 142.007,302.124 149.5,298.5 Z"/></g>
<g><path style="opacity:1" fill="#ffddd9" d="M 307.5,298.5 C 313.245,298.211 318.912,298.711 324.5,300C 330.417,305.33 329.417,308.997 321.5,311C 315.245,312.127 309.245,311.46 303.5,309C 301.327,307.135 300.993,304.969 302.5,302.5C 304.21,301.113 305.877,299.779 307.5,298.5 Z"/></g>
<g><path style="opacity:1" fill="#582f1a" d="M 221.5,301.5 C 228.562,301.115 234.062,303.782 238,309.5C 244.864,300.136 252.864,299.136 262,306.5C 264.434,309.795 266.101,313.462 267,317.5C 267.049,326.059 268.049,334.392 270,342.5C 267.006,343.89 265.006,342.89 264,339.5C 262.945,331.843 261.945,324.177 261,316.5C 258.616,308.225 253.45,305.725 245.5,309C 243.951,310.214 242.785,311.714 242,313.5C 241.101,323.893 241.434,334.227 243,344.5C 246.543,354.019 253.377,358.686 263.5,358.5C 267.791,358.563 271.958,357.897 276,356.5C 279.285,356.7 280.118,358.2 278.5,361C 260.727,368.557 247.06,364.057 237.5,347.5C 235.625,350.751 233.625,353.918 231.5,357C 228.938,359.413 225.938,361.08 222.5,362C 214.778,362.812 207.111,362.478 199.5,361C 196.397,359.561 193.564,357.727 191,355.5C 190.085,353.08 190.918,351.747 193.5,351.5C 221.083,364.873 234.75,356.206 234.5,325.5C 234.333,321.833 234.167,318.167 234,314.5C 230.621,306.994 225.621,305.66 219,310.5C 218,312.167 217,313.833 216,315.5C 214.551,321.052 213.051,326.552 211.5,332C 209.302,332.373 207.135,332.873 205,333.5C 203.378,333.046 202.212,332.046 201.5,330.5C 203.177,328.24 205.343,326.573 208,325.5C 208.67,315.141 213.17,307.141 221.5,301.5 Z"/></g>
<g><path style="opacity:1" fill="#f7dfd5" d="M 383.5,198.5 C 383.297,200.044 382.63,201.378 381.5,202.5C 396.424,231.097 398.258,260.431 387,290.5C 379.049,307.117 366.549,318.951 349.5,326C 329.831,332.575 309.664,335.409 289,334.5C 288.28,336.112 288.446,337.612 289.5,339C 296.191,339.169 302.858,339.669 309.5,340.5C 313.862,348.611 316.362,357.278 317,366.5C 321.721,399.928 314.388,430.261 295,457.5C 288.91,465.086 281.077,467.919 271.5,466C 268.944,464.945 267.277,463.112 266.5,460.5C 274.686,459.324 281.519,455.657 287,449.5C 294.711,439.046 299.711,427.38 302,414.5C 306.407,390.472 305.074,366.806 298,343.5C 295.084,341.005 291.584,339.838 287.5,340C 283.253,335.837 283.586,332.171 288.5,329C 311.998,329.167 332.998,322.167 351.5,308C 381.364,278.713 390.698,243.879 379.5,203.5C 379.381,200.623 380.714,198.956 383.5,198.5 Z"/></g>
</svg>
