<?xml version="1.0" encoding="UTF-8"?>
<!DOCTYPE svg PUBLIC "-//W3C//DTD SVG 1.1//EN" "http://www.w3.org/Graphics/SVG/1.1/DTD/svg11.dtd">
<svg xmlns="http://www.w3.org/2000/svg" version="1.1" width="500px" height="500px" style="shape-rendering:geometricPrecision; text-rendering:geometricPrecision; image-rendering:optimizeQuality; fill-rule:evenodd; clip-rule:evenodd" xmlns:xlink="http://www.w3.org/1999/xlink">
<!-- <g><path style="opacity:1" fill="#fefefe" d="M -0.5,-0.5 C 166.167,-0.5 332.833,-0.5 499.5,-0.5C 499.5,166.167 499.5,332.833 499.5,499.5C 332.833,499.5 166.167,499.5 -0.5,499.5C -0.5,332.833 -0.5,166.167 -0.5,-0.5 Z"/></g> -->
<g><path style="opacity:1" fill="#582f1a" d="M 221.5,108.5 C 258.545,106.133 293.212,113.967 325.5,132C 333.195,137.183 340.528,142.849 347.5,149C 370.403,154.448 390.403,165.115 407.5,181C 410.06,184.051 412.393,187.218 414.5,190.5C 413.57,192.606 412.404,194.606 411,196.5C 404.652,202.681 398.485,209.014 392.5,215.5C 401.592,240.429 401.759,265.429 393,290.5C 382.192,313.63 364.359,328.464 339.5,335C 331.6,337.039 323.6,338.539 315.5,339.5C 322.81,358.508 325.31,378.175 323,398.5C 321.141,422.42 312.807,443.753 298,462.5C 291.102,470.035 282.602,473.201 272.5,472C 267.726,470.702 264.226,467.868 262,463.5C 259.382,455.966 258.882,448.3 260.5,440.5C 248.167,440.5 235.833,440.5 223.5,440.5C 224.623,449.685 223.123,458.352 219,466.5C 213.02,471.939 206.187,473.439 198.5,471C 185.385,464.219 175.219,454.385 168,441.5C 149.321,408.227 145.488,373.227 156.5,336.5C 136.716,336.454 118.716,330.954 102.5,320C 84.7135,302.525 78.2135,281.358 83,256.5C 84.7016,242.507 86.5349,228.507 88.5,214.5C 77.627,206.73 69.627,196.73 64.5,184.5C 65.8974,181.594 67.8974,179.094 70.5,177C 87.0591,164.554 105.392,155.554 125.5,150C 152.849,125.494 184.849,111.661 221.5,108.5 Z"/></g>
<g><path style="opacity:1" fill="#fefefe" d="M 389.5,209.5 C 385.42,209.081 383.42,210.914 383.5,215C 389.829,246.675 382.996,275.175 363,300.5C 342.955,321.078 318.455,330.912 289.5,330C 283.98,332.873 283.313,336.54 287.5,341C 291.24,341.721 294.74,342.888 298,344.5C 305.231,369.274 306.231,394.274 301,419.5C 297.871,433.266 291.038,444.766 280.5,454C 276.202,456.982 271.536,459.149 266.5,460.5C 265.372,453.58 265.205,446.58 266,439.5C 268.52,438.793 271.02,437.96 273.5,437C 274.833,435.667 274.833,434.333 273.5,433C 250.192,436.395 226.859,436.228 203.5,432.5C 203.215,434.288 203.548,435.955 204.5,437.5C 208.851,438.392 213.184,439.392 217.5,440.5C 219.285,448.122 218.452,455.455 215,462.5C 208.364,467.66 201.531,467.826 194.5,463C 176.649,448.108 164.815,429.275 159,406.5C 154.78,382.519 155.946,358.852 162.5,335.5C 168.5,334.667 174.5,333.833 180.5,333C 181.416,332.722 182.082,332.222 182.5,331.5C 183.88,331.038 184.547,330.038 184.5,328.5C 183.781,326.272 182.448,324.439 180.5,323C 167.792,322.874 155.126,322.207 142.5,321C 113.478,313.643 96.6452,295.143 92,265.5C 91.7814,260.418 91.2814,255.418 90.5,250.5C 89.7774,237.594 91.1107,224.928 94.5,212.5C 85.1303,205.63 77.297,197.296 71,187.5C 70.3333,186.5 70.3333,185.5 71,184.5C 87.6983,170.066 106.865,160.233 128.5,155C 153.497,131.675 183.164,118.342 217.5,115C 266.518,109.677 309.518,123.01 346.5,155C 370.944,160.384 391.611,172.218 408.5,190.5C 402.425,197.242 396.092,203.575 389.5,209.5 Z"/></g>
<g><path style="opacity:1" fill="#ffa897" d="M 358.5,166.5 C 373.856,171.196 387.522,178.863 399.5,189.5C 400.485,191.098 400.651,192.765 400,194.5C 395.167,198.667 390.333,202.833 385.5,207C 384.552,207.483 383.552,207.649 382.5,207.5C 381.571,202.975 379.571,198.975 376.5,195.5C 378.123,194.524 379.457,195.024 380.5,197C 381.833,197.667 383.167,197.667 384.5,197C 379.167,192.333 373.833,187.667 368.5,183C 372.693,184.925 377.026,186.592 381.5,188C 376.365,181.538 370.032,176.538 362.5,173C 360.077,171.429 358.744,169.263 358.5,166.5 Z"/></g>
<g><path style="opacity:1" fill="#ffa897" d="M 110.5,169.5 C 111.978,169.238 113.311,169.571 114.5,170.5C 108.49,175.51 103.157,181.177 98.5,187.5C 98.6667,187.833 98.8333,188.167 99,188.5C 102,186.167 105,183.833 108,181.5C 108.167,181.833 108.333,182.167 108.5,182.5C 104.849,186.652 101.016,190.652 97,194.5C 96.3123,195.332 96.479,195.998 97.5,196.5C 98.916,194.861 100.583,194.027 102.5,194C 100.432,197.303 98.7655,200.803 97.5,204.5C 96.277,205.614 94.9437,205.781 93.5,205C 87.2337,200.571 82.2337,195.071 78.5,188.5C 80.7195,185.118 83.7195,182.618 87.5,181C 95.2585,177.121 102.925,173.287 110.5,169.5 Z"/></g>
<g><path style="opacity:1" fill="#f7dfd5" d="M 90.5,250.5 C 91.2814,255.418 91.7814,260.418 92,265.5C 96.6452,295.143 113.478,313.643 142.5,321C 155.126,322.207 167.792,322.874 180.5,323C 182.448,324.439 183.781,326.272 184.5,328.5C 184.547,330.038 183.88,331.038 182.5,331.5C 182.586,330.504 182.252,329.671 181.5,329C 172.68,328.964 163.847,329.131 155,329.5C 102.318,328.337 80.8184,302.004 90.5,250.5 Z"/></g>
<g><path style="opacity:1" fill="#59301b" d="M 272.5,294.5 C 273.822,294.33 274.989,294.663 276,295.5C 276.5,300.335 279.167,302.668 284,302.5C 289.418,302.581 291.918,299.915 291.5,294.5C 293.167,294.5 294.833,294.5 296.5,294.5C 297.062,303.436 292.896,308.102 284,308.5C 275.32,307.356 271.487,302.69 272.5,294.5 Z"/></g>
<g><path style="opacity:1" fill="#59311c" d="M 193.5,294.5 C 195.144,294.286 196.644,294.62 198,295.5C 198.686,304.107 194.686,308.774 186,309.5C 177.695,308.576 173.862,303.909 174.5,295.5C 176.167,295.5 177.833,295.5 179.5,295.5C 179.94,303.221 183.773,305.554 191,302.5C 192.024,299.865 192.857,297.198 193.5,294.5 Z"/></g>
<g><path style="opacity:1" fill="#ffddd9" d="M 149.5,298.5 C 154.93,298.161 160.264,298.661 165.5,300C 172.54,304.86 171.873,308.527 163.5,311C 158.5,311.667 153.5,311.667 148.5,311C 141.674,306.291 142.007,302.124 149.5,298.5 Z"/></g>
<g><path style="opacity:1" fill="#ffddd9" d="M 307.5,298.5 C 313.245,298.211 318.912,298.711 324.5,300C 330.417,305.33 329.417,308.997 321.5,311C 315.245,312.127 309.245,311.46 303.5,309C 301.327,307.135 300.993,304.969 302.5,302.5C 304.21,301.113 305.877,299.779 307.5,298.5 Z"/></g>
<g><path style="opacity:1" fill="#582f1a" d="M 221.5,301.5 C 228.562,301.115 234.062,303.782 238,309.5C 244.864,300.136 252.864,299.136 262,306.5C 264.434,309.795 266.101,313.462 267,317.5C 267.049,326.059 268.049,334.392 270,342.5C 267.006,343.89 265.006,342.89 264,339.5C 262.945,331.843 261.945,324.177 261,316.5C 258.616,308.225 253.45,305.725 245.5,309C 243.951,310.214 242.785,311.714 242,313.5C 241.101,323.893 241.434,334.227 243,344.5C 246.543,354.019 253.377,358.686 263.5,358.5C 267.791,358.563 271.958,357.897 276,356.5C 279.285,356.7 280.118,358.2 278.5,361C 260.727,368.557 247.06,364.057 237.5,347.5C 235.625,350.751 233.625,353.918 231.5,357C 228.938,359.413 225.938,361.08 222.5,362C 214.778,362.812 207.111,362.478 199.5,361C 196.397,359.561 193.564,357.727 191,355.5C 190.085,353.08 190.918,351.747 193.5,351.5C 221.083,364.873 234.75,356.206 234.5,325.5C 234.333,321.833 234.167,318.167 234,314.5C 230.621,306.994 225.621,305.66 219,310.5C 218,312.167 217,313.833 216,315.5C 214.551,321.052 213.051,326.552 211.5,332C 209.302,332.373 207.135,332.873 205,333.5C 203.378,333.046 202.212,332.046 201.5,330.5C 203.177,328.24 205.343,326.573 208,325.5C 208.67,315.141 213.17,307.141 221.5,301.5 Z"/></g>
<g><path style="opacity:1" fill="#f7dfd5" d="M 389.5,209.5 C 388.286,210.626 387.286,211.959 386.5,213.5C 396.812,239.164 396.978,264.83 387,290.5C 377.126,310.034 361.626,322.868 340.5,329C 334.263,330.809 327.93,332.143 321.5,333C 310.59,333.179 299.757,333.679 289,334.5C 288.28,336.112 288.446,337.612 289.5,339C 296.191,339.169 302.858,339.669 309.5,340.5C 313.862,348.611 316.362,357.278 317,366.5C 321.721,399.928 314.388,430.261 295,457.5C 288.91,465.086 281.077,467.919 271.5,466C 268.944,464.945 267.277,463.112 266.5,460.5C 271.536,459.149 276.202,456.982 280.5,454C 291.038,444.766 297.871,433.266 301,419.5C 306.231,394.274 305.231,369.274 298,344.5C 294.74,342.888 291.24,341.721 287.5,341C 283.313,336.54 283.98,332.873 289.5,330C 318.455,330.912 342.955,321.078 363,300.5C 382.996,275.175 389.829,246.675 383.5,215C 383.42,210.914 385.42,209.081 389.5,209.5 Z"/></g>
</svg>
