<?xml version="1.0" encoding="UTF-8"?>
<!DOCTYPE svg PUBLIC "-//W3C//DTD SVG 1.1//EN" "http://www.w3.org/Graphics/SVG/1.1/DTD/svg11.dtd">
<svg xmlns="http://www.w3.org/2000/svg" version="1.1" width="214px" height="215px" style="shape-rendering:geometricPrecision; text-rendering:geometricPrecision; image-rendering:optimizeQuality; fill-rule:evenodd; clip-rule:evenodd" xmlns:xlink="http://www.w3.org/1999/xlink">
<g><path style="opacity:1" fill="#fcfbfa" d="M 112.5,-0.5 C 119.5,-0.5 126.5,-0.5 133.5,-0.5C 146.894,1.4098 159.56,5.74313 171.5,12.5C 185.905,6.66112 199.905,7.32779 213.5,14.5C 213.5,17.5 213.5,20.5 213.5,23.5C 211.069,31.4599 208.402,39.4599 205.5,47.5C 210.78,62.9726 211.613,78.6393 208,94.5C 204.37,105.61 197.203,113.444 186.5,118C 192.741,132.861 196.574,148.361 198,164.5C 199.976,181.347 199.143,198.014 195.5,214.5C 145.5,214.5 95.5,214.5 45.5,214.5C 44.9401,207.535 45.9401,200.701 48.5,194C 42.9652,191.137 39.7986,186.637 39,180.5C 28.8645,175.076 23.3645,166.576 22.5,155C 23.5521,144.626 25.5521,134.459 28.5,124.5C 27.0914,117.462 27.2581,110.462 29,103.5C 30.395,98.0986 33.895,96.0986 39.5,97.5C 37.444,88.3912 38.6106,79.7245 43,71.5C 43.3333,66.5 43.6667,61.5 44,56.5C 44.3324,53.4937 45.1657,50.6604 46.5,48C 39.0669,39.0143 35.9003,28.8477 37,17.5C 41.0204,13.6134 45.8537,11.4467 51.5,11C 59.3199,9.44887 67.1532,9.28221 75,10.5C 87.2186,5.47842 99.7186,1.81175 112.5,-0.5 Z"/></g>
<g><path style="opacity:1" fill="#c3b9b2" d="M 198.5,47.5 C 199.787,62.933 197.953,77.933 193,92.5C 188.5,102.333 181.333,109.5 171.5,114C 170.707,115.085 170.04,116.252 169.5,117.5C 172.738,120.909 174.905,124.909 176,129.5C 181.859,156.63 183.026,183.964 179.5,211.5C 183.167,211.5 186.833,211.5 190.5,211.5C 190.5,211.833 190.5,212.167 190.5,212.5C 174.5,212.5 158.5,212.5 142.5,212.5C 142.5,212.167 142.5,211.833 142.5,211.5C 143.5,211.5 144.5,211.5 145.5,211.5C 144.718,204.482 143.718,197.482 142.5,190.5C 151.797,188.894 159.631,184.561 166,177.5C 166.483,176.552 166.649,175.552 166.5,174.5C 163.213,175.264 160.546,177.097 158.5,180C 152.384,185.232 145.384,187.232 137.5,186C 136.018,183.408 136.352,181.075 138.5,179C 147.945,174.555 155.112,167.721 160,158.5C 161.72,151.698 161.887,144.864 160.5,138C 162.28,135.216 164.447,132.716 167,130.5C 167.781,129.271 168.281,127.938 168.5,126.5C 164.134,119.049 157.634,114.382 149,112.5C 146.709,111.928 144.375,111.594 142,111.5C 117.202,115.299 92.3692,115.466 67.5,112C 57.1134,110.432 49.7801,104.932 45.5,95.5C 43.3776,87.6004 44.5443,80.267 49,73.5C 48.7719,64.4424 49.9385,55.609 52.5,47C 47.3821,39.9303 44.0487,32.097 42.5,23.5C 42.6493,21.6803 43.3159,20.1803 44.5,19C 55.1086,15.4941 65.942,14.6607 77,16.5C 108.874,1.3453 140.374,2.01197 171.5,18.5C 177.566,16.0349 183.899,15.0349 190.5,15.5C 196.322,15.308 201.989,15.9747 207.5,17.5C 206.346,28.1295 203.346,38.1295 198.5,47.5 Z"/></g>
<g><path style="opacity:1" fill="#552c18" d="M 190.5,212.5 C 190.5,212.167 190.5,211.833 190.5,211.5C 193.204,190.491 193.038,169.491 190,148.5C 187.517,138.211 184.35,128.211 180.5,118.5C 178.716,117.394 176.882,117.394 175,118.5C 173.72,118.387 172.887,117.72 172.5,116.5C 179.39,114.565 186.057,111.732 192.5,108C 197.61,103.55 201.11,98.0503 203,91.5C 206.066,76.2117 204.566,61.545 198.5,47.5C 203.346,38.1295 206.346,28.1295 207.5,17.5C 201.989,15.9747 196.322,15.308 190.5,15.5C 183.899,15.0349 177.566,16.0349 171.5,18.5C 140.374,2.01197 108.874,1.3453 77,16.5C 65.942,14.6607 55.1086,15.4941 44.5,19C 43.3159,20.1803 42.6493,21.6803 42.5,23.5C 44.0487,32.097 47.3821,39.9303 52.5,47C 49.9385,55.609 48.7719,64.4424 49,73.5C 44.5443,80.267 43.3776,87.6004 45.5,95.5C 45.6427,97.2624 45.3094,98.9291 44.5,100.5C 41.5535,101.321 38.5535,101.821 35.5,102C 37.7078,102.191 39.7078,102.691 41.5,103.5C 39.1667,103.5 36.8333,103.5 34.5,103.5C 33.1888,110.656 33.1888,117.823 34.5,125C 31.053,134.477 29.3863,144.31 29.5,154.5C 29.0089,163.019 32.3423,169.519 39.5,174C 43.2707,176.219 47.2707,177.885 51.5,179C 57.325,179.149 62.9917,180.149 68.5,182C 71.9355,185.06 72.2688,188.393 69.5,192C 64.5438,192.998 59.5438,193.831 54.5,194.5C 52.2042,199.942 50.8709,205.608 50.5,211.5C 49.5,211.5 48.5,211.5 47.5,211.5C 48.2927,205.085 49.6261,198.752 51.5,192.5C 45.3947,189.74 42.0614,185.073 41.5,178.5C 31.0272,173.728 25.6939,165.561 25.5,154C 26.9416,147.283 27.775,140.449 28,133.5C 28.4881,130.361 29.6548,127.528 31.5,125C 30.3884,118.205 30.2217,111.371 31,104.5C 31.2735,102.671 32.1068,101.171 33.5,100C 36.7603,99.2165 39.9269,99.3832 43,100.5C 43.3247,98.4473 42.9913,96.4473 42,94.5C 40.6224,87.0967 41.6224,80.0967 45,73.5C 45.0585,64.8408 46.2252,56.3408 48.5,48C 44.3889,41.2754 41.2222,34.1087 39,26.5C 37.0113,20.7084 38.8446,16.875 44.5,15C 55.086,12.4128 65.7527,11.9128 76.5,13.5C 99.0758,2.19501 122.742,-0.638328 147.5,5C 155.832,7.33259 163.832,10.4993 171.5,14.5C 184.517,10.1712 197.35,10.5045 210,15.5C 209.783,26.4975 207.283,36.9975 202.5,47C 208.004,62.9247 208.837,79.0914 205,95.5C 201.167,106 194,113.167 183.5,117C 195.92,147.45 199.42,178.95 194,211.5C 192.989,212.337 191.822,212.67 190.5,212.5 Z"/></g>
<g><path style="opacity:1" fill="#fc9783" d="M 183.5,20.5 C 189.229,20.2123 194.896,20.5456 200.5,21.5C 202.051,28.7951 200.384,35.2951 195.5,41C 194.833,41.6667 194.167,41.6667 193.5,41C 189.062,34.725 184.062,28.8917 178.5,23.5C 180.36,22.6751 182.026,21.6751 183.5,20.5 Z"/></g>
<g><path style="opacity:1" fill="#fd9682" d="M 55.5,21.5 C 60.8746,21.1718 66.2079,21.5052 71.5,22.5C 66.2157,28.9558 60.7157,35.2891 55,41.5C 50.6486,36.3356 48.8153,30.5023 49.5,24C 51.6115,23.1553 53.6115,22.322 55.5,21.5 Z"/></g>
<g><path style="opacity:1" fill="#fff7f5" d="M -0.5,67.5 C -0.5,65.8333 -0.5,64.1667 -0.5,62.5C 2.68295,57.5746 7.34961,55.2412 13.5,55.5C 18.6416,48.166 24.1416,47.8327 30,54.5C 32.1052,61.2512 31.7719,67.9179 29,74.5C 28.3678,76.9647 26.8678,78.6314 24.5,79.5C 17.0743,78.7266 10.0743,76.5599 3.5,73C 2.02294,71.1879 0.689603,69.3545 -0.5,67.5 Z"/></g>
<g><path style="opacity:1" fill="#fd6d5b" d="M 18.5,52.5 C 22.287,51.8144 25.4537,52.8144 28,55.5C 29.1953,62.4613 28.362,69.1279 25.5,75.5C 16.9199,76.6958 9.41989,74.3625 3,68.5C 1.54176,64.2194 2.70842,61.0527 6.5,59C 9.23564,58.5783 11.9023,58.5783 14.5,59C 15.2341,56.4393 16.5675,54.2726 18.5,52.5 Z"/></g>
<g><path style="opacity:1" fill="#502713" d="M 75.5,73.5 C 81.0284,72.0693 84.3617,74.0693 85.5,79.5C 83.2596,86.6337 79.2596,87.967 73.5,83.5C 71.8097,79.6309 72.4764,76.2975 75.5,73.5 Z"/></g>
<g><path style="opacity:1" fill="#4f2511" d="M 132.5,74.5 C 139.164,74.0002 142.331,77.0002 142,83.5C 138.306,88.3416 134.306,88.6749 130,84.5C 129.333,81.8333 129.333,79.1667 130,76.5C 130.995,75.9341 131.828,75.2674 132.5,74.5 Z"/></g>
<g><path style="opacity:1" fill="#4a2012" d="M 103.5,84.5 C 105.552,85.7102 107.718,86.7102 110,87.5C 111.8,86.6216 113.633,85.955 115.5,85.5C 115.208,89.004 113.208,90.6707 109.5,90.5C 107.519,90.5629 105.852,89.8962 104.5,88.5C 102.232,89.5443 99.8991,89.711 97.5,89C 96.269,87.8173 96.269,86.6507 97.5,85.5C 99.9328,88.1385 101.933,87.8052 103.5,84.5 Z"/></g>
<g><path style="opacity:1" fill="#fea493" d="M 49.5,107.5 C 50.5,107.833 51.1667,108.5 51.5,109.5C 48.5867,110.241 45.5867,110.741 42.5,111C 43.8333,111.333 45.1667,111.667 46.5,112C 44.3686,112.543 42.3686,113.376 40.5,114.5C 41.7161,115.096 43.0494,115.263 44.5,115C 42.3333,117.167 40.1667,119.333 38,121.5C 37.5007,116.511 37.3341,111.511 37.5,106.5C 41.5839,106.043 45.4172,106.71 49,108.5C 49.3988,108.272 49.5654,107.938 49.5,107.5 Z"/></g>
<g><path style="opacity:1" fill="#a2958c" d="M 198.5,47.5 C 204.566,61.545 206.066,76.2117 203,91.5C 201.11,98.0503 197.61,103.55 192.5,108C 186.057,111.732 179.39,114.565 172.5,116.5C 172.887,117.72 173.72,118.387 175,118.5C 176.882,117.394 178.716,117.394 180.5,118.5C 184.35,128.211 187.517,138.211 190,148.5C 193.038,169.491 193.204,190.491 190.5,211.5C 186.833,211.5 183.167,211.5 179.5,211.5C 183.026,183.964 181.859,156.63 176,129.5C 174.905,124.909 172.738,120.909 169.5,117.5C 170.04,116.252 170.707,115.085 171.5,114C 181.333,109.5 188.5,102.333 193,92.5C 197.953,77.933 199.787,62.933 198.5,47.5 Z"/></g>
<g><path style="opacity:1" fill="#4f2716" d="M 62.5,120.5 C 68.7617,120.866 70.7617,124.033 68.5,130C 62.2401,132.412 59.4068,130.245 60,123.5C 61.045,122.627 61.8783,121.627 62.5,120.5 Z"/></g>
<g><path style="opacity:1" fill="#ffa696" d="M 146.5,118.5 C 146.56,117.957 146.893,117.624 147.5,117.5C 152.001,119.916 156.334,122.583 160.5,125.5C 160.591,128.457 158.924,130.457 155.5,131.5C 154.5,130.167 153.5,128.833 152.5,127.5C 153.167,127.167 153.833,126.833 154.5,126.5C 153.019,125.52 151.685,124.353 150.5,123C 151.167,122.667 151.833,122.333 152.5,122C 150.612,120.606 148.612,119.44 146.5,118.5 Z"/></g>
<g><path style="opacity:1" fill="#4e2514" d="M 108.5,123.5 C 113.651,123.814 116.151,126.481 116,131.5C 112.667,135.5 109.333,135.5 106,131.5C 105.023,128.183 105.856,125.516 108.5,123.5 Z"/></g>
<g><path style="opacity:1" fill="#ffdcd8" d="M 50.5,127.5 C 54.2708,126.774 56.9374,128.107 58.5,131.5C 56.3947,136.829 52.8947,137.829 48,134.5C 47.3333,133.167 47.3333,131.833 48,130.5C 49.045,129.627 49.8783,128.627 50.5,127.5 Z"/></g>
<g><path style="opacity:1" fill="#482216" d="M 84.5,128.5 C 87.3221,129.815 90.3221,130.815 93.5,131.5C 92.2485,132.631 91.2485,133.964 90.5,135.5C 89.9104,139.888 89.077,144.221 88,148.5C 86.3333,151.167 84.6667,151.167 83,148.5C 82.07,143.201 81.4034,137.867 81,132.5C 80.3076,131.975 79.8076,131.308 79.5,130.5C 81.2914,129.83 82.9581,129.163 84.5,128.5 Z"/></g>
<g><path style="opacity:1" fill="#ffdcd7" d="M 119.5,130.5 C 124.835,130.005 127.335,132.338 127,137.5C 123.667,140.167 120.333,140.167 117,137.5C 115.916,134.341 116.75,132.008 119.5,130.5 Z"/></g>
<g><path style="opacity:1" fill="#f56b58" d="M 84.5,131.5 C 87.2856,131.956 88.619,133.623 88.5,136.5C 86.6414,149.239 84.9748,149.406 83.5,137C 83.5811,135.076 83.9144,133.243 84.5,131.5 Z"/></g>
<g><path style="opacity:1" fill="#f7e1d8" d="M 156.5,135.5 C 157.971,143.569 157.804,151.569 156,159.5C 150.601,166.286 144.101,171.786 136.5,176C 135.267,177.667 133.933,179.167 132.5,180.5C 131.588,179.262 131.421,177.928 132,176.5C 140.808,169.888 147.474,161.555 152,151.5C 153.365,145.994 154.865,140.66 156.5,135.5 Z"/></g>
<g><path style="opacity:1" fill="#4e2414" d="M 45.5,95.5 C 49.7801,104.932 57.1134,110.432 67.5,112C 92.3692,115.466 117.202,115.299 142,111.5C 144.375,111.594 146.709,111.928 149,112.5C 157.634,114.382 164.134,119.049 168.5,126.5C 168.281,127.938 167.781,129.271 167,130.5C 164.447,132.716 162.28,135.216 160.5,138C 161.887,144.864 161.72,151.698 160,158.5C 155.112,167.721 147.945,174.555 138.5,179C 136.352,181.075 136.018,183.408 137.5,186C 145.384,187.232 152.384,185.232 158.5,180C 160.546,177.097 163.213,175.264 166.5,174.5C 166.649,175.552 166.483,176.552 166,177.5C 159.631,184.561 151.797,188.894 142.5,190.5C 143.718,197.482 144.718,204.482 145.5,211.5C 144.5,211.5 143.5,211.5 142.5,211.5C 141.552,205.146 140.385,198.813 139,192.5C 138.004,190.34 136.504,188.673 134.5,187.5C 132.832,185.521 132.166,183.188 132.5,180.5C 133.933,179.167 135.267,177.667 136.5,176C 144.101,171.786 150.601,166.286 156,159.5C 157.804,151.569 157.971,143.569 156.5,135.5C 160.747,133.286 163.247,129.953 164,125.5C 159.98,121.157 155.147,117.99 149.5,116C 126.531,117.263 103.531,117.596 80.5,117C 70.0791,117.022 60.4124,114.522 51.5,109.5C 51.1667,108.5 50.5,107.833 49.5,107.5C 47.927,104.107 45.2604,102.774 41.5,103.5C 39.7078,102.691 37.7078,102.191 35.5,102C 38.5535,101.821 41.5535,101.321 44.5,100.5C 45.3094,98.9291 45.6427,97.2624 45.5,95.5 Z"/></g>
<g><path style="opacity:1" fill="#c4bab3" d="M 45.5,180.5 C 51.6175,182.714 57.9508,183.88 64.5,184C 67.1997,184.949 68.033,186.783 67,189.5C 58.6633,192.165 51.6633,190.165 46,183.5C 45.5172,182.552 45.3505,181.552 45.5,180.5 Z"/></g>
<g><path style="opacity:1" fill="#f6e0d7" d="M 134.5,187.5 C 136.504,188.673 138.004,190.34 139,192.5C 140.385,198.813 141.552,205.146 142.5,211.5C 142.5,211.833 142.5,212.167 142.5,212.5C 140.167,212.5 137.833,212.5 135.5,212.5C 135.994,204.865 135.327,197.365 133.5,190C 133.743,189.098 134.077,188.265 134.5,187.5 Z"/></g>
<g><path style="opacity:1" fill="#471e13" d="M 108.5,193.5 C 109.5,193.5 110.5,193.5 111.5,193.5C 110.804,196.554 109.304,199.22 107,201.5C 106.445,208.777 109.278,210.277 115.5,206C 118.333,203.167 121.167,200.333 124,197.5C 124.692,198.025 125.192,198.692 125.5,199.5C 120.95,208.442 113.95,211.942 104.5,210C 103.152,208.426 102.486,206.593 102.5,204.5C 103.711,200.411 105.711,196.744 108.5,193.5 Z"/></g>
<g><path style="opacity:1" fill="#492014" d="M 76.5,191.5 C 84.1357,194.276 87.9691,199.609 88,207.5C 84.7355,211.328 80.5689,212.495 75.5,211C 71.7545,209.8 68.7545,207.634 66.5,204.5C 67.365,203.417 68.365,203.251 69.5,204C 71.6705,205.586 74.0038,206.92 76.5,208C 83.0906,210.244 85.5906,208.077 84,201.5C 81.5206,198.931 78.854,196.598 76,194.5C 75.5304,193.423 75.6971,192.423 76.5,191.5 Z"/></g>
</svg>
