<?xml version="1.0" encoding="UTF-8"?>
<!DOCTYPE svg PUBLIC "-//W3C//DTD SVG 1.1//EN" "http://www.w3.org/Graphics/SVG/1.1/DTD/svg11.dtd">
<svg xmlns="http://www.w3.org/2000/svg" version="1.1" width="210px" height="215px" style="shape-rendering:geometricPrecision; text-rendering:geometricPrecision; image-rendering:optimizeQuality; fill-rule:evenodd; clip-rule:evenodd" xmlns:xlink="http://www.w3.org/1999/xlink">
<g><path style="opacity:1" fill="#fbfafa" d="M 108.5,-0.5 C 115.5,-0.5 122.5,-0.5 129.5,-0.5C 142.894,1.4098 155.56,5.74313 167.5,12.5C 181.905,6.66112 195.905,7.32779 209.5,14.5C 209.5,17.5 209.5,20.5 209.5,23.5C 207.069,31.4599 204.402,39.4599 201.5,47.5C 206.297,61.9026 207.464,76.5693 205,91.5C 201.786,104.042 194.286,112.875 182.5,118C 188.74,132.854 192.573,148.354 194,164.5C 195.976,181.347 195.143,198.014 191.5,214.5C 141.5,214.5 91.5,214.5 41.5,214.5C 40.645,213.469 39.9783,212.303 39.5,211C 40.5228,205.43 41.8561,199.93 43.5,194.5C 38.8928,190.959 36.0595,186.293 35,180.5C 24.8628,174.847 19.3628,166.18 18.5,154.5C 20.4048,145.855 22.0714,137.188 23.5,128.5C 20.0177,122.533 17.3511,116.199 15.5,109.5C 16.2679,105.565 18.6012,103.065 22.5,102C 27.1016,100.878 31.7682,100.378 36.5,100.5C 34.7314,94.2767 34.2314,87.9433 35,81.5C 35.7589,78.2154 37.0922,75.2154 39,72.5C 39.2156,64.5961 40.049,56.7627 41.5,49C 38.8865,43.6024 36.3865,38.1024 34,32.5C 33.1638,28.6266 32.3305,24.7933 31.5,21C 32.8073,17.026 35.4739,14.3594 39.5,13C 49.8384,9.89436 60.3384,9.06103 71,10.5C 83.2186,5.47842 95.7186,1.81175 108.5,-0.5 Z"/></g>
<g><path style="opacity:1" fill="#542b17" d="M 186.5,212.5 C 186.5,212.167 186.5,211.833 186.5,211.5C 191.871,179.399 188.538,148.399 176.5,118.5C 174.229,117.637 171.895,117.637 169.5,118.5C 168.316,117.312 168.316,116.145 169.5,115C 184.601,113.708 194.434,105.875 199,91.5C 202.056,76.2111 200.556,61.5445 194.5,47.5C 199.346,38.1295 202.346,28.1295 203.5,17.5C 191.391,13.2689 179.391,13.6022 167.5,18.5C 136.19,2.0414 104.524,1.37473 72.5,16.5C 61.1863,14.4808 50.1863,15.4808 39.5,19.5C 38.3483,22.1062 38.1816,24.7728 39,27.5C 41.2252,34.5386 44.3919,41.0386 48.5,47C 45.9382,55.5973 44.7716,64.4307 45,73.5C 37.855,86.2602 39.6884,97.5935 50.5,107.5C 49.8826,107.611 49.3826,107.944 49,108.5C 47.871,106.859 46.371,105.859 44.5,105.5C 37.0554,104.874 29.8888,105.874 23,108.5C 22.4163,111.257 22.7496,113.923 24,116.5C 25.8515,120.203 27.6848,123.87 29.5,127.5C 28.3159,136.503 26.6493,145.337 24.5,154C 25.7536,166.505 32.4203,174.505 44.5,178C 50.1844,178.919 55.8511,179.919 61.5,181C 67.6843,182.933 69.0176,186.6 65.5,192C 60.2919,193.397 54.9586,193.897 49.5,193.5C 48.0075,199.803 46.6742,206.136 45.5,212.5C 44.5,212.5 43.5,212.5 42.5,212.5C 42.6074,205.404 44.2741,198.737 47.5,192.5C 41.3947,189.74 38.0614,185.073 37.5,178.5C 26.861,173.554 21.5276,165.221 21.5,153.5C 22.6876,145.147 24.0209,136.813 25.5,128.5C 22.6733,122.52 20.34,116.353 18.5,110C 19.115,106.718 21.115,104.718 24.5,104C 30.1027,102.876 35.7694,102.21 41.5,102C 34.7441,92.0414 34.9107,82.208 42,72.5C 42.3333,65.8333 42.6667,59.1667 43,52.5C 43.5,51 44,49.5 44.5,48C 41.88,43.2608 39.38,38.4275 37,33.5C 35.0802,29.0013 34.4135,24.3346 35,19.5C 35.5,17.6667 36.6667,16.5 38.5,16C 42.1667,15 45.8333,14 49.5,13C 58.1667,12.6667 66.8333,12.3333 75.5,12C 97.3021,2.07325 119.969,-0.26008 143.5,5C 151.822,7.32649 159.822,10.4932 167.5,14.5C 180.517,10.1712 193.35,10.5045 206,15.5C 205.783,26.4975 203.283,36.9975 198.5,47C 204.004,62.9247 204.837,79.0914 201,95.5C 199.777,99.6153 197.777,103.282 195,106.5C 190.201,110.805 185.034,114.471 179.5,117.5C 186.627,133.727 190.794,150.727 192,168.5C 192.851,182.901 192.184,197.234 190,211.5C 188.989,212.337 187.822,212.67 186.5,212.5 Z"/></g>
<g><path style="opacity:1" fill="#c2b8b1" d="M 194.5,47.5 C 194.457,56.0901 194.291,64.7567 194,73.5C 193.145,84.5415 189.478,94.5415 183,103.5C 178.957,107.877 174.124,111.044 168.5,113C 166.845,114.444 166.178,116.278 166.5,118.5C 167.5,118.5 168.5,118.5 169.5,118.5C 173.066,133.96 175.566,149.627 177,165.5C 177.696,180.874 177.196,196.208 175.5,211.5C 179.167,211.5 182.833,211.5 186.5,211.5C 186.5,211.833 186.5,212.167 186.5,212.5C 170.325,212.83 154.325,212.496 138.5,211.5C 139.5,211.5 140.5,211.5 141.5,211.5C 140.885,204.43 139.885,197.43 138.5,190.5C 147.853,188.885 155.687,184.551 162,177.5C 162.483,176.552 162.649,175.552 162.5,174.5C 159.213,175.264 156.546,177.097 154.5,180C 148.384,185.232 141.384,187.232 133.5,186C 132.424,184.274 132.257,182.441 133,180.5C 140.214,175.888 146.881,170.554 153,164.5C 155.886,158.863 157.052,152.863 156.5,146.5C 156.712,141.83 156.045,137.33 154.5,133C 159.78,126.474 161.78,119.141 160.5,111C 157.246,109.158 153.746,108.325 150,108.5C 119.779,115.472 89.2794,116.305 58.5,111C 55.6902,110.094 53.0236,108.927 50.5,107.5C 39.6884,97.5935 37.855,86.2602 45,73.5C 44.7716,64.4307 45.9382,55.5973 48.5,47C 44.3919,41.0386 41.2252,34.5386 39,27.5C 38.1816,24.7728 38.3483,22.1062 39.5,19.5C 50.1863,15.4808 61.1863,14.4808 72.5,16.5C 104.524,1.37473 136.19,2.0414 167.5,18.5C 179.391,13.6022 191.391,13.2689 203.5,17.5C 202.346,28.1295 199.346,38.1295 194.5,47.5 Z"/></g>
<g><path style="opacity:1" fill="#fd9783" d="M 51.5,21.5 C 56.8333,21.5 62.1667,21.5 67.5,21.5C 62.6601,28.5259 57.1601,35.1926 51,41.5C 46.6337,36.3142 44.8004,30.4808 45.5,24C 47.7226,23.4338 49.7226,22.6005 51.5,21.5 Z"/></g>
<g><path style="opacity:1" fill="#fc9783" d="M 179.5,20.5 C 185.229,20.2123 190.896,20.5456 196.5,21.5C 198.051,28.7951 196.384,35.2951 191.5,41C 190.833,41.6667 190.167,41.6667 189.5,41C 185.062,34.725 180.062,28.8917 174.5,23.5C 176.36,22.6751 178.026,21.6751 179.5,20.5 Z"/></g>
<g><path style="opacity:1" fill="#fff9f7" d="M -0.5,66.5 C -0.5,65.1667 -0.5,63.8333 -0.5,62.5C 1.34739,59.9835 3.84739,58.3168 7,57.5C 9.27833,58.6204 10.7783,57.787 11.5,55C 18.6566,52.5922 22.6566,55.2589 23.5,63C 23.1454,67.0674 21.8121,70.7341 19.5,74C 11.1331,75.6366 4.46641,73.1366 -0.5,66.5 Z"/></g>
<g><path style="opacity:1" fill="#fd6f5d" d="M 13.5,56.5 C 18.5779,55.7452 20.9112,57.9118 20.5,63C 20.5191,65.9989 19.8525,68.8322 18.5,71.5C 13.493,72.8944 8.82638,72.0611 4.5,69C 1.83333,66.3333 1.83333,63.6667 4.5,61C 6.44058,60.2571 8.27391,60.4238 10,61.5C 10.9973,59.6769 12.1639,58.0103 13.5,56.5 Z"/></g>
<g><path style="opacity:1" fill="#a1938a" d="M 194.5,47.5 C 200.556,61.5445 202.056,76.2111 199,91.5C 194.434,105.875 184.601,113.708 169.5,115C 168.316,116.145 168.316,117.312 169.5,118.5C 168.5,118.5 167.5,118.5 166.5,118.5C 166.178,116.278 166.845,114.444 168.5,113C 174.124,111.044 178.957,107.877 183,103.5C 189.478,94.5415 193.145,84.5415 194,73.5C 194.291,64.7567 194.457,56.0901 194.5,47.5 Z"/></g>
<g><path style="opacity:1" fill="#512713" d="M 71.5,73.5 C 77.0284,72.0693 80.3617,74.0693 81.5,79.5C 79.6641,86.0048 75.8308,87.6715 70,84.5C 67.6892,80.3741 68.1892,76.7075 71.5,73.5 Z"/></g>
<g><path style="opacity:1" fill="#512713" d="M 128.5,74.5 C 135.164,74.0002 138.331,77.0002 138,83.5C 133.667,88.8333 129.333,88.8333 125,83.5C 123.665,79.3919 124.832,76.3919 128.5,74.5 Z"/></g>
<g><path style="opacity:1" fill="#4c2213" d="M 99.5,84.5 C 101.552,85.7102 103.718,86.7102 106,87.5C 107.8,86.6216 109.633,85.955 111.5,85.5C 111.436,89.0624 109.603,90.7291 106,90.5C 103.855,90.604 102.021,89.9373 100.5,88.5C 98.2324,89.5443 95.8991,89.711 93.5,89C 92.3784,85.0551 93.3784,84.5551 96.5,87.5C 97.8549,86.8118 98.8549,85.8118 99.5,84.5 Z"/></g>
<g><path style="opacity:1" fill="#ffa493" d="M 27.5,109.5 C 33.1764,109.334 38.8431,109.501 44.5,110C 41.9237,111.122 39.257,112.122 36.5,113C 40.8518,113.419 41.1851,114.086 37.5,115C 36.4088,118.425 34.2422,120.925 31,122.5C 26.872,118.925 25.7054,114.591 27.5,109.5 Z"/></g>
<g><path style="opacity:1" fill="#4d2313" d="M 44.5,105.5 C 46.371,105.859 47.871,106.859 49,108.5C 49.3826,107.944 49.8826,107.611 50.5,107.5C 53.0236,108.927 55.6902,110.094 58.5,111C 89.2794,116.305 119.779,115.472 150,108.5C 153.746,108.325 157.246,109.158 160.5,111C 161.78,119.141 159.78,126.474 154.5,133C 156.045,137.33 156.712,141.83 156.5,146.5C 157.052,152.863 155.886,158.863 153,164.5C 146.881,170.554 140.214,175.888 133,180.5C 132.257,182.441 132.424,184.274 133.5,186C 141.384,187.232 148.384,185.232 154.5,180C 156.546,177.097 159.213,175.264 162.5,174.5C 162.649,175.552 162.483,176.552 162,177.5C 155.687,184.551 147.853,188.885 138.5,190.5C 139.885,197.43 140.885,204.43 141.5,211.5C 140.5,211.5 139.5,211.5 138.5,211.5C 137.873,204.866 136.54,198.366 134.5,192C 133.685,190.02 132.352,188.52 130.5,187.5C 128.35,185.078 128.017,182.411 129.5,179.5C 134.032,175.214 139.032,171.38 144.5,168C 151.65,162.846 154.65,155.846 153.5,147C 153.406,143.112 152.906,139.279 152,135.5C 151.722,134.584 151.222,133.918 150.5,133.5C 152.413,129.738 154.579,126.071 157,122.5C 157.339,119.964 157.839,117.464 158.5,115C 158.355,114.228 158.022,113.561 157.5,113C 152.167,112.333 146.833,112.333 141.5,113C 135.472,115.473 129.139,116.806 122.5,117C 108.5,117.667 94.5,117.667 80.5,117C 69.1959,117.341 58.5293,115.008 48.5,110C 46.9586,108.629 45.6253,107.129 44.5,105.5 Z"/></g>
<g><path style="opacity:1" fill="#ffa695" d="M 144.5,115.5 C 147.777,115.216 150.943,115.549 154,116.5C 154.02,121.135 152.354,125.135 149,128.5C 146.755,123.879 143.589,120.046 139.5,117C 141.382,116.802 143.048,116.302 144.5,115.5 Z"/></g>
<g><path style="opacity:1" fill="#a2948b" d="M 186.5,211.5 C 182.833,211.5 179.167,211.5 175.5,211.5C 177.196,196.208 177.696,180.874 177,165.5C 175.566,149.627 173.066,133.96 169.5,118.5C 171.895,117.637 174.229,117.637 176.5,118.5C 188.538,148.399 191.871,179.399 186.5,211.5 Z"/></g>
<g><path style="opacity:1" fill="#4f2715" d="M 61.5,121.5 C 69.0615,120.86 71.0615,123.693 67.5,130C 61.2401,132.412 58.4068,130.245 59,123.5C 59.9947,122.934 60.828,122.267 61.5,121.5 Z"/></g>
<g><path style="opacity:1" fill="#4f2613" d="M 107.5,123.5 C 113.33,123.161 115.83,125.827 115,131.5C 111.667,135.5 108.333,135.5 105,131.5C 104.018,128.225 104.851,125.559 107.5,123.5 Z"/></g>
<g><path style="opacity:1" fill="#fedcd7" d="M 50.5,127.5 C 56.5446,127.029 58.5446,129.529 56.5,135C 53.2093,137.074 50.0426,136.908 47,134.5C 46.1762,131.16 47.3429,128.827 50.5,127.5 Z"/></g>
<g><path style="opacity:1" fill="#451f13" d="M 83.5,128.5 C 86.4809,130.291 89.4809,131.291 92.5,131.5C 91.8551,132.646 91.0217,133.646 90,134.5C 89.3333,138.5 88.6667,142.5 88,146.5C 86.3524,151.029 84.3524,151.363 82,147.5C 81.7052,141.566 80.5385,135.899 78.5,130.5C 79.3914,129.41 80.3914,129.41 81.5,130.5C 82.5223,130.145 83.189,129.478 83.5,128.5 Z"/></g>
<g><path style="opacity:1" fill="#ed6957" d="M 83.5,131.5 C 85.8444,131.506 87.1777,132.673 87.5,135C 85.2998,151.483 83.6331,151.483 82.5,135C 82.6483,133.744 82.9816,132.577 83.5,131.5 Z"/></g>
<g><path style="opacity:1" fill="#fedbd7" d="M 118.5,130.5 C 125.653,130.117 127.653,132.951 124.5,139C 119.153,140.616 116.32,138.783 116,133.5C 117.045,132.627 117.878,131.627 118.5,130.5 Z"/></g>
<g><path style="opacity:1" fill="#f4ded4" d="M 150.5,133.5 C 151.222,133.918 151.722,134.584 152,135.5C 152.906,139.279 153.406,143.112 153.5,147C 154.65,155.846 151.65,162.846 144.5,168C 139.032,171.38 134.032,175.214 129.5,179.5C 128.499,178.211 128.666,176.878 130,175.5C 141.917,163.998 148.751,149.998 150.5,133.5 Z"/></g>
<g><path style="opacity:1" fill="#c4bab3" d="M 41.5,180.5 C 48.374,182.543 55.374,184.043 62.5,185C 64.2495,189.921 62.4162,191.755 57,190.5C 51.819,190.241 47.1523,188.575 43,185.5C 41.9914,183.975 41.4914,182.308 41.5,180.5 Z"/></g>
<g><path style="opacity:1" fill="#f3ddd3" d="M 130.5,187.5 C 132.352,188.52 133.685,190.02 134.5,192C 136.54,198.366 137.873,204.866 138.5,211.5C 137.71,210.391 137.21,209.058 137,207.5C 136.506,209.134 136.34,210.801 136.5,212.5C 134.833,212.5 133.167,212.5 131.5,212.5C 131.457,204.152 131.124,195.819 130.5,187.5 Z"/></g>
<g><path style="opacity:1" fill="#441b0f" d="M 103.5,194.5 C 104.5,194.5 105.5,194.5 106.5,194.5C 104.899,197.796 103.232,201.129 101.5,204.5C 102.976,208.707 105.642,209.54 109.5,207C 113.167,204.667 116.167,201.667 118.5,198C 119.6,197.568 120.267,198.068 120.5,199.5C 116.78,207.732 110.447,211.565 101.5,211C 98.6061,208.091 97.7728,204.591 99,200.5C 101.102,198.905 102.602,196.905 103.5,194.5 Z"/></g>
<g><path style="opacity:1" fill="#481f12" d="M 71.5,191.5 C 76.0608,193.56 79.8941,196.56 83,200.5C 84.9889,210.174 81.1556,213.674 71.5,211C 67.7545,209.8 64.7545,207.634 62.5,204.5C 63,204.167 63.5,203.833 64,203.5C 67.8179,205.664 71.8179,207.33 76,208.5C 80.6316,207.342 81.6316,204.676 79,200.5C 76.6667,198.5 74.3333,196.5 72,194.5C 71.5172,193.552 71.3505,192.552 71.5,191.5 Z"/></g>
</svg>
