<?xml version="1.0" encoding="UTF-8"?>
<!DOCTYPE svg PUBLIC "-//W3C//DTD SVG 1.1//EN" "http://www.w3.org/Graphics/SVG/1.1/DTD/svg11.dtd">
<svg xmlns="http://www.w3.org/2000/svg" version="1.1" width="216px" height="215px" style="shape-rendering:geometricPrecision; text-rendering:geometricPrecision; image-rendering:optimizeQuality; fill-rule:evenodd; clip-rule:evenodd" xmlns:xlink="http://www.w3.org/1999/xlink">
<g><path style="opacity:1" fill="#fcfbfa" d="M 113.5,-0.5 C 120.5,-0.5 127.5,-0.5 134.5,-0.5C 148.893,1.74289 162.56,6.40956 175.5,13.5C 184.903,12.0874 194.236,12.5874 203.5,15C 208.01,16.4182 212.01,18.5849 215.5,21.5C 215.5,23.8333 215.5,26.1667 215.5,28.5C 213.199,35.545 210.199,42.3783 206.5,49C 211.841,63.9463 212.674,79.113 209,94.5C 205.828,106.027 198.661,113.86 187.5,118C 199.844,149.374 202.844,181.541 196.5,214.5C 146.5,214.5 96.5,214.5 46.5,214.5C 45.645,213.469 44.9783,212.303 44.5,211C 46.2419,204.88 47.4086,198.713 48,192.5C 43.3483,189.874 40.6816,185.874 40,180.5C 29.7955,174.273 24.2955,165.106 23.5,153C 24.5975,146.445 25.9308,139.945 27.5,133.5C 21.4001,128.633 18.5668,122.3 19,114.5C 20.5578,112.641 22.3911,111.141 24.5,110C 30.6561,107.005 36.9894,104.505 43.5,102.5C 38.0712,92.1022 38.2379,81.7688 44,71.5C 44.1061,64.3887 44.9395,57.3887 46.5,50.5C 40.5868,44.4155 36.5868,37.2488 34.5,29C 37.0583,22.6963 41.7249,18.6963 48.5,17C 57.2573,14.0486 66.2573,12.3819 75.5,12C 87.5522,5.70446 100.219,1.53779 113.5,-0.5 Z"/></g>
<g><path style="opacity:1" fill="#562d19" d="M 194.5,211.5 C 193.2,209.777 192.533,207.61 192.5,205C 195.136,179.061 192.969,153.561 186,128.5C 184.774,125.048 183.274,121.715 181.5,118.5C 179.345,118.162 177.011,118.162 174.5,118.5C 172.965,115.67 173.965,114.337 177.5,114.5C 191.123,112.378 199.956,104.712 204,91.5C 205.405,83.2082 205.738,74.8748 205,66.5C 203.306,59.8606 201.806,53.1939 200.5,46.5C 205.071,40.4244 208.071,33.591 209.5,26C 209.241,24.7387 208.574,23.7387 207.5,23C 196.837,18.7291 185.837,17.5624 174.5,19.5C 145.912,3.38088 116.245,1.21421 85.5,13C 82.53,14.1532 79.8633,15.8199 77.5,18C 65.3877,17.6204 54.0544,20.2871 43.5,26C 42.1007,27.0616 41.1007,28.395 40.5,30C 42.9607,36.4091 46.794,41.9091 52,46.5C 52.1667,47.5 52.3333,48.5 52.5,49.5C 50.8467,57.3669 50.0134,65.3669 50,73.5C 44.2243,82.4434 44.0577,91.4434 49.5,100.5C 50.0891,102.373 49.4224,104.04 47.5,105.5C 46.0127,101.855 44.5127,98.188 43,94.5C 41.6224,87.0967 42.6224,80.0967 46,73.5C 46.2429,65.9296 47.0763,58.4296 48.5,51C 46.8941,46.6996 44.3941,42.8663 41,39.5C 38.7409,35.4043 37.7409,31.0709 38,26.5C 44.4295,20.9027 51.9295,17.4027 60.5,16C 69.85,16.0414 78.5166,13.7081 86.5,9C 110.377,0.696179 134.377,0.362846 158.5,8C 163.992,10.5787 169.325,13.412 174.5,16.5C 187.304,14.2519 199.637,15.7519 211.5,21C 212.804,21.804 213.471,22.9707 213.5,24.5C 211.621,32.974 208.288,40.8073 203.5,48C 209.094,63.5584 209.927,79.3918 206,95.5C 202.193,105.974 195.026,113.141 184.5,117C 193.422,138.706 197.755,161.373 197.5,185C 197.569,194.096 196.569,202.93 194.5,211.5 Z"/></g>
<g><path style="opacity:1" fill="#c3b9b2" d="M 200.5,46.5 C 199.545,48.2835 198.878,50.2835 198.5,52.5C 201.485,70.5906 198.652,87.5906 190,103.5C 186.233,107.776 182.066,111.443 177.5,114.5C 173.965,114.337 172.965,115.67 174.5,118.5C 176.733,122.112 178.233,126.112 179,130.5C 184.222,157.436 184.722,184.436 180.5,211.5C 184.371,211.185 188.038,211.518 191.5,212.5C 175.325,212.83 159.325,212.496 143.5,211.5C 144.5,211.5 145.5,211.5 146.5,211.5C 146.398,204.381 145.065,197.548 142.5,191C 152.178,189.118 160.345,184.618 167,177.5C 167.483,176.552 167.649,175.552 167.5,174.5C 164.213,175.264 161.546,177.097 159.5,180C 155.993,182.254 152.327,184.254 148.5,186C 145.118,186.824 141.784,186.657 138.5,185.5C 136.993,183.031 137.327,180.865 139.5,179C 146.24,174.93 152.407,170.096 158,164.5C 159.308,161.27 160.308,157.936 161,154.5C 159.416,139.888 159.083,125.222 160,110.5C 159.269,108.101 158.102,105.935 156.5,104C 148.262,104.518 140.929,107.518 134.5,113C 110.742,115.33 87.0752,114.664 63.5,111C 57.5395,109.204 52.8728,105.704 49.5,100.5C 44.0577,91.4434 44.2243,82.4434 50,73.5C 50.0134,65.3669 50.8467,57.3669 52.5,49.5C 52.3333,48.5 52.1667,47.5 52,46.5C 46.794,41.9091 42.9607,36.4091 40.5,30C 41.1007,28.395 42.1007,27.0616 43.5,26C 54.0544,20.2871 65.3877,17.6204 77.5,18C 79.8633,15.8199 82.53,14.1532 85.5,13C 116.245,1.21421 145.912,3.38088 174.5,19.5C 185.837,17.5624 196.837,18.7291 207.5,23C 208.574,23.7387 209.241,24.7387 209.5,26C 208.071,33.591 205.071,40.4244 200.5,46.5 Z"/></g>
<g><path style="opacity:1" fill="#fd9682" d="M 183.5,24.5 C 191.351,24.1223 198.685,25.789 205.5,29.5C 204.068,34.2007 201.734,38.3673 198.5,42C 197.551,42.6172 196.718,42.4506 196,41.5C 191.815,35.7743 187.648,30.1076 183.5,24.5 Z"/></g>
<g><path style="opacity:1" fill="#fd9682" d="M 57.5,24.5 C 60.8984,24.1796 64.2317,24.513 67.5,25.5C 62.845,30.8111 58.6783,36.4778 55,42.5C 50.9244,39.3375 48.091,35.3375 46.5,30.5C 46.8333,29.8333 47.1667,29.1667 47.5,28.5C 50.8646,26.9409 54.1979,25.6076 57.5,24.5 Z"/></g>
<g><path style="opacity:1" fill="#fff8f6" d="M -0.5,67.5 C -0.5,65.8333 -0.5,64.1667 -0.5,62.5C 2.66758,57.4194 7.33424,55.2527 13.5,56C 17.8443,49.0649 23.3443,47.8982 30,52.5C 33.4557,60.9321 33.1224,69.2654 29,77.5C 27.7009,78.9797 26.0342,79.6464 24,79.5C 16.7195,78.7398 9.88612,76.5731 3.5,73C 2.51195,70.833 1.17861,68.9997 -0.5,67.5 Z"/></g>
<g><path style="opacity:1" fill="#fd6e5b" d="M 19.5,52.5 C 28.5724,52.0869 32.0724,56.4202 30,65.5C 29.6272,69.2852 28.4605,72.7852 26.5,76C 18.8738,76.8755 11.8738,75.2088 5.5,71C 3.91257,69.1552 2.57924,67.1552 1.5,65C 3.99298,58.8109 8.32631,56.9776 14.5,59.5C 15.9308,56.9613 17.5975,54.6279 19.5,52.5 Z"/></g>
<g><path style="opacity:1" fill="#a2948b" d="M 200.5,46.5 C 201.806,53.1939 203.306,59.8606 205,66.5C 205.738,74.8748 205.405,83.2082 204,91.5C 199.956,104.712 191.123,112.378 177.5,114.5C 182.066,111.443 186.233,107.776 190,103.5C 198.652,87.5906 201.485,70.5906 198.5,52.5C 198.878,50.2835 199.545,48.2835 200.5,46.5 Z"/></g>
<g><path style="opacity:1" fill="#4f2612" d="M 76.5,73.5 C 82.0284,72.0693 85.3617,74.0693 86.5,79.5C 85.3493,85.0913 82.016,86.9246 76.5,85C 75.5838,84.6258 74.7504,84.1258 74,83.5C 72.8613,79.5789 73.6946,76.2456 76.5,73.5 Z"/></g>
<g><path style="opacity:1" fill="#4f2511" d="M 132.5,74.5 C 139.669,73.5131 143.169,76.5131 143,83.5C 139.306,88.3416 135.306,88.6749 131,84.5C 130.153,80.9277 130.653,77.5943 132.5,74.5 Z"/></g>
<g><path style="opacity:1" fill="#4a2012" d="M 104.5,84.5 C 106.552,85.7102 108.718,86.7102 111,87.5C 112.8,86.6216 114.633,85.955 116.5,85.5C 116.208,89.004 114.208,90.6707 110.5,90.5C 108.519,90.5629 106.852,89.8962 105.5,88.5C 103.232,89.5443 100.899,89.711 98.5,89C 97.269,87.8173 97.269,86.6507 98.5,85.5C 100.933,88.1385 102.933,87.8052 104.5,84.5 Z"/></g>
<g><path style="opacity:1" fill="#4e2414" d="M 49.5,100.5 C 52.8728,105.704 57.5395,109.204 63.5,111C 87.0752,114.664 110.742,115.33 134.5,113C 140.929,107.518 148.262,104.518 156.5,104C 158.102,105.935 159.269,108.101 160,110.5C 159.083,125.222 159.416,139.888 161,154.5C 160.308,157.936 159.308,161.27 158,164.5C 152.407,170.096 146.24,174.93 139.5,179C 137.327,180.865 136.993,183.031 138.5,185.5C 141.784,186.657 145.118,186.824 148.5,186C 152.327,184.254 155.993,182.254 159.5,180C 161.546,177.097 164.213,175.264 167.5,174.5C 167.649,175.552 167.483,176.552 167,177.5C 160.345,184.618 152.178,189.118 142.5,191C 145.065,197.548 146.398,204.381 146.5,211.5C 145.5,211.5 144.5,211.5 143.5,211.5C 142.794,204.341 141.294,197.341 139,190.5C 137.296,188.627 135.463,186.96 133.5,185.5C 133.5,183.833 133.5,182.167 133.5,180.5C 138.181,175.64 143.515,171.473 149.5,168C 155.968,163.102 158.635,156.602 157.5,148.5C 157.684,143.893 157.017,139.56 155.5,135.5C 156.056,129.828 156.723,124.161 157.5,118.5C 157.393,115.433 156.893,112.433 156,109.5C 155.326,108.422 154.326,107.755 153,107.5C 146.729,108.885 141.229,111.719 136.5,116C 112.789,118.253 89.1225,117.92 65.5,115C 60.7868,113.81 56.4535,111.81 52.5,109C 50.1902,108.503 47.8568,108.337 45.5,108.5C 45.9268,107.738 45.9268,106.738 45.5,105.5C 46.1667,105.5 46.8333,105.5 47.5,105.5C 49.4224,104.04 50.0891,102.373 49.5,100.5 Z"/></g>
<g><path style="opacity:1" fill="#ffa695" d="M 147.5,112.5 C 149.766,112.141 151.599,112.808 153,114.5C 153.828,118.871 153.661,123.205 152.5,127.5C 150.167,124.833 147.833,122.167 145.5,119.5C 145.709,118.914 146.043,118.414 146.5,118C 145.167,117.333 143.833,116.667 142.5,116C 144.233,114.811 145.9,113.644 147.5,112.5 Z"/></g>
<g><path style="opacity:1" fill="#532b19" d="M 45.5,105.5 C 45.9268,106.738 45.9268,107.738 45.5,108.5C 38.3884,109.766 31.7217,112.433 25.5,116.5C 25.1667,117.167 24.8333,117.833 24.5,118.5C 26.7404,123.723 29.7404,128.39 33.5,132.5C 31.4135,139.352 30.0802,146.352 29.5,153.5C 31.2272,166.734 38.5605,175.234 51.5,179C 57.66,179.105 63.66,180.105 69.5,182C 72.9355,185.06 73.2688,188.393 70.5,192C 65.3306,193.025 60.164,193.859 55,194.5C 52.6059,200.285 51.1059,206.285 50.5,212.5C 49.5,212.5 48.5,212.5 47.5,212.5C 48.4331,205.932 49.7664,199.432 51.5,193C 49.0664,190.566 46.5664,188.066 44,185.5C 44.2462,180.074 41.7462,176.574 36.5,175C 29.5928,169.119 26.2594,161.619 26.5,152.5C 27.5139,145.471 28.3473,138.471 29,131.5C 25.0223,127.709 22.189,123.209 20.5,118C 22.5445,114.29 25.5445,111.624 29.5,110C 34.5974,107.615 39.9307,106.115 45.5,105.5 Z"/></g>
<g><path style="opacity:1" fill="#ffa594" d="M 45.5,111.5 C 46.8734,111.343 48.2068,111.51 49.5,112C 47.779,113.527 45.779,114.527 43.5,115C 42.1667,115.667 42.1667,116.333 43.5,117C 41.8333,118 40.1667,119 38.5,120C 39.1667,120.333 39.8333,120.667 40.5,121C 36.0904,126.693 32.0904,126.193 28.5,119.5C 28.9767,118.522 29.6433,117.689 30.5,117C 35.5871,115.031 40.5871,113.197 45.5,111.5 Z"/></g>
<g><path style="opacity:1" fill="#a1948b" d="M 194.5,211.5 C 193.791,212.404 192.791,212.737 191.5,212.5C 188.038,211.518 184.371,211.185 180.5,211.5C 184.722,184.436 184.222,157.436 179,130.5C 178.233,126.112 176.733,122.112 174.5,118.5C 177.011,118.162 179.345,118.162 181.5,118.5C 183.274,121.715 184.774,125.048 186,128.5C 192.969,153.561 195.136,179.061 192.5,205C 192.533,207.61 193.2,209.777 194.5,211.5 Z"/></g>
<g><path style="opacity:1" fill="#502816" d="M 69.5,121.5 C 77.4902,121.086 79.4902,124.253 75.5,131C 66.9101,131.612 64.9101,128.445 69.5,121.5 Z"/></g>
<g><path style="opacity:1" fill="#512816" d="M 115.5,123.5 C 121.665,122.829 124.165,125.496 123,131.5C 119.351,135.598 116.018,135.265 113,130.5C 112.333,129.167 112.333,127.833 113,126.5C 114.045,125.627 114.878,124.627 115.5,123.5 Z"/></g>
<g><path style="opacity:1" fill="#feddd8" d="M 57.5,128.5 C 60.3198,128.248 62.9865,128.748 65.5,130C 67.0156,134.355 65.3489,136.855 60.5,137.5C 55.1344,136.027 54.1344,133.027 57.5,128.5 Z"/></g>
<g><path style="opacity:1" fill="#fedcd8" d="M 126.5,130.5 C 129.32,130.248 131.986,130.748 134.5,132C 135.639,137.529 133.306,139.862 127.5,139C 124.074,136.405 123.741,133.571 126.5,130.5 Z"/></g>
<g><path style="opacity:1" fill="#4c2519" d="M 92.5,128.5 C 95.3221,129.815 98.3221,130.815 101.5,131.5C 100.758,132.287 99.9246,132.953 99,133.5C 98,138.5 97,143.5 96,148.5C 94.3333,151.167 92.6667,151.167 91,148.5C 90.0892,142.612 88.9225,136.779 87.5,131C 89.2891,130.978 90.9557,130.145 92.5,128.5 Z"/></g>
<g><path style="opacity:1" fill="#f56c5a" d="M 92.5,131.5 C 94.8184,131.818 96.1517,133.152 96.5,135.5C 95.6544,139.217 94.6544,142.883 93.5,146.5C 91.3739,141.584 91.0406,136.584 92.5,131.5 Z"/></g>
<g><path style="opacity:1" fill="#f6e1d8" d="M 155.5,135.5 C 157.017,139.56 157.684,143.893 157.5,148.5C 158.635,156.602 155.968,163.102 149.5,168C 143.515,171.473 138.181,175.64 133.5,180.5C 132.697,179.577 132.53,178.577 133,177.5C 142.72,169.077 149.72,158.743 154,146.5C 154.32,142.786 154.82,139.119 155.5,135.5 Z"/></g>
<g><path style="opacity:1" fill="#c4b9b2" d="M 46.5,180.5 C 52.5526,182.926 58.886,184.092 65.5,184C 68.1997,184.949 69.033,186.783 68,189.5C 59.6633,192.165 52.6633,190.165 47,183.5C 46.5172,182.552 46.3505,181.552 46.5,180.5 Z"/></g>
<g><path style="opacity:1" fill="#f2dbd1" d="M 133.5,185.5 C 135.463,186.96 137.296,188.627 139,190.5C 141.294,197.341 142.794,204.341 143.5,211.5C 142.71,210.391 142.21,209.058 142,207.5C 141.506,209.134 141.34,210.801 141.5,212.5C 139.5,212.5 137.5,212.5 135.5,212.5C 135.666,206.158 135.5,199.825 135,193.5C 134.697,191.112 133.863,188.945 132.5,187C 133.056,186.617 133.389,186.117 133.5,185.5 Z"/></g>
<g><path style="opacity:1" fill="#451c0f" d="M 108.5,194.5 C 109.5,194.5 110.5,194.5 111.5,194.5C 109.899,197.796 108.232,201.129 106.5,204.5C 107.976,208.707 110.642,209.54 114.5,207C 118.167,204.667 121.167,201.667 123.5,198C 124.6,197.568 125.267,198.068 125.5,199.5C 121.806,207.695 115.472,211.528 106.5,211C 103.651,208.441 102.817,205.274 104,201.5C 105.511,199.138 107.011,196.805 108.5,194.5 Z"/></g>
<g><path style="opacity:1" fill="#492014" d="M 76.5,191.5 C 82.1726,193.425 86.3393,197.092 89,202.5C 88.9352,210.809 84.7685,213.642 76.5,211C 72.7545,209.8 69.7545,207.634 67.5,204.5C 68,204.167 68.5,203.833 69,203.5C 72.2272,204.864 75.3939,206.364 78.5,208C 83.6622,209.424 85.8288,207.59 85,202.5C 83,199.167 80.3333,196.5 77,194.5C 76.5172,193.552 76.3505,192.552 76.5,191.5 Z"/></g>
</svg>
