<?xml version="1.0" encoding="UTF-8"?>
<!DOCTYPE svg PUBLIC "-//W3C//DTD SVG 1.1//EN" "http://www.w3.org/Graphics/SVG/1.1/DTD/svg11.dtd">
<svg xmlns="http://www.w3.org/2000/svg" version="1.1" width="222px" height="215px" style="shape-rendering:geometricPrecision; text-rendering:geometricPrecision; image-rendering:optimizeQuality; fill-rule:evenodd; clip-rule:evenodd" xmlns:xlink="http://www.w3.org/1999/xlink">
<g><path style="opacity:1" fill="#fcfbfa" d="M 117.5,-0.5 C 124.167,-0.5 130.833,-0.5 137.5,-0.5C 152.803,1.76953 167.137,6.9362 180.5,15C 195.669,14.702 209.335,18.8687 221.5,27.5C 221.5,29.1667 221.5,30.8333 221.5,32.5C 218.501,39.3266 214.834,45.8266 210.5,52C 215.464,67.1524 215.63,82.3191 211,97.5C 207.5,107.667 200.667,114.5 190.5,118C 202.837,149.3 205.837,181.466 199.5,214.5C 149.5,214.5 99.5,214.5 49.5,214.5C 48.645,213.469 47.9783,212.303 47.5,211C 49.2419,204.88 50.4086,198.713 51,192.5C 46.3483,189.874 43.6816,185.874 43,180.5C 33.0974,174.916 27.5974,166.416 26.5,155C 28.3751,146.173 30.0418,137.339 31.5,128.5C 28.0177,122.533 25.3511,116.199 23.5,109.5C 24.2679,105.565 26.6012,103.065 30.5,102C 35.1016,100.878 39.7682,100.378 44.5,100.5C 41.2365,90.4697 42.0698,80.8031 47,71.5C 47.5737,65.1442 47.907,58.8109 48,52.5C 41.6548,47.6281 37.1548,41.4614 34.5,34C 36.42,29.744 39.42,26.4107 43.5,24C 53.9546,18.7374 64.9546,15.0707 76.5,13C 89.4258,5.96881 103.092,1.46881 117.5,-0.5 Z"/></g>
<g><path style="opacity:1" fill="#fff8f6" d="M -0.5,67.5 C -0.5,65.8333 -0.5,64.1667 -0.5,62.5C 3.18692,56.3217 8.52025,53.9884 15.5,55.5C 17.6218,52.8756 19.9552,50.3756 22.5,48C 33.4345,45.4064 39.1011,49.9064 39.5,61.5C 39.1221,66.6788 37.9554,71.6788 36,76.5C 35.2178,79.0758 33.7178,81.0758 31.5,82.5C 23.5759,81.735 15.9093,79.9017 8.5,77C 4.59151,74.5943 1.59151,71.4276 -0.5,67.5 Z"/></g>
<g><path style="opacity:1" fill="#fd6d5b" d="M 25.5,48.5 C 30.4439,48.6021 33.9439,50.9354 36,55.5C 37.1924,63.5213 36.0257,71.1879 32.5,78.5C 21.8314,80.4993 12.4981,77.8326 4.5,70.5C 1.24785,65.2529 2.24785,61.0862 7.5,58C 10.8936,57.2483 14.227,57.4149 17.5,58.5C 19.2336,54.3368 21.9002,51.0035 25.5,48.5 Z"/></g>
<g><path style="opacity:1" fill="#542c18" d="M 194.5,212.5 C 194.5,212.167 194.5,211.833 194.5,211.5C 197.314,190.477 197.148,169.477 194,148.5C 191.522,138.27 188.355,128.27 184.5,118.5C 182.345,118.162 180.011,118.162 177.5,118.5C 176.316,117.312 176.316,116.145 177.5,115C 199.591,111.557 209.925,98.5569 208.5,76C 208.007,66.7024 206.673,57.5358 204.5,48.5C 209.47,43.8483 212.803,38.1817 214.5,31.5C 214.392,30.5581 214.059,29.7247 213.5,29C 202.282,23.0132 190.282,20.3466 177.5,21C 164.903,12.244 150.903,7.24403 135.5,6C 117.649,4.36379 100.649,7.36379 84.5,15C 81.9906,16.4213 79.6572,18.0879 77.5,20C 64.3175,20.4181 52.4842,24.5848 42,32.5C 41.3333,33.8333 41.3333,35.1667 42,36.5C 45.6317,42.2975 50.1317,47.2975 55.5,51.5C 53.9834,58.7327 53.1501,66.066 53,73.5C 44.6621,89.008 48.1621,101.175 63.5,110C 70.4262,111.599 77.4262,112.765 84.5,113.5C 83.3915,114.29 82.0581,114.79 80.5,115C 81.4158,115.278 82.0825,115.778 82.5,116.5C 70.9194,117.278 60.9194,113.778 52.5,106C 45.061,104.875 37.8943,105.708 31,108.5C 31.2398,115.658 33.7398,121.991 38.5,127.5C 35.9419,133.172 34.7753,139.172 35,145.5C 30.1678,160.306 35.0012,170.806 49.5,177C 57.1447,178.732 64.8114,180.399 72.5,182C 75.9355,185.06 76.2688,188.393 73.5,192C 68.3306,193.025 63.164,193.859 58,194.5C 55.6059,200.285 54.1059,206.285 53.5,212.5C 52.5,212.5 51.5,212.5 50.5,212.5C 51.4888,205.401 52.6554,198.401 54,191.5C 48.5193,188.86 45.6859,184.527 45.5,178.5C 35.1497,173.789 29.8163,165.789 29.5,154.5C 30.7725,145.86 32.1059,137.193 33.5,128.5C 31.0598,123.285 28.8931,117.952 27,112.5C 25.9094,107.902 27.7427,105.069 32.5,104C 38.1298,103.034 43.7964,102.367 49.5,102C 44.3623,92.6138 44.1957,83.1138 49,73.5C 49.1728,66.3997 50.0062,59.3997 51.5,52.5C 48.1824,48.6819 44.6824,45.0152 41,41.5C 37.0213,37.3295 36.8547,33.1629 40.5,29C 51.3301,21.6192 63.3301,17.2858 76.5,16C 99.9303,2.3075 124.93,-1.35916 151.5,5C 161.1,7.63274 170.1,11.6327 178.5,17C 191.557,17.1323 203.89,20.1323 215.5,26C 217.215,26.7771 218.215,28.1105 218.5,30C 216.399,37.871 212.732,44.871 207.5,51C 211.773,64.9205 212.606,79.0872 210,93.5C 206.259,104.908 198.759,112.741 187.5,117C 194.873,133.328 199.04,150.495 200,168.5C 200.851,182.901 200.184,197.234 198,211.5C 196.989,212.337 195.822,212.67 194.5,212.5 Z"/></g>
<g><path style="opacity:1" fill="#ffa695" d="M 35.5,109.5 C 41.1764,109.334 46.8431,109.501 52.5,110C 50.7148,111.163 48.7148,111.83 46.5,112C 45.3659,113.016 45.6992,113.683 47.5,114C 45.7034,116.988 43.0367,119.821 39.5,122.5C 36.4957,119.834 34.4957,116.501 33.5,112.5C 34.1925,111.482 34.8592,110.482 35.5,109.5 Z"/></g>
<g><path style="opacity:1" fill="#a1938a" d="M 204.5,48.5 C 206.673,57.5358 208.007,66.7024 208.5,76C 209.925,98.5569 199.591,111.557 177.5,115C 176.316,116.145 176.316,117.312 177.5,118.5C 174.924,118.278 174.09,116.945 175,114.5C 190.074,107.738 198.741,96.0717 201,79.5C 202.051,70.5313 202.718,61.5313 203,52.5C 203.21,50.9419 203.71,49.6085 204.5,48.5 Z"/></g>
<g><path style="opacity:1" fill="#c3b9b2" d="M 204.5,48.5 C 203.71,49.6085 203.21,50.9419 203,52.5C 202.718,61.5313 202.051,70.5313 201,79.5C 198.741,96.0717 190.074,107.738 175,114.5C 174.09,116.945 174.924,118.278 177.5,118.5C 183.211,144.524 185.711,170.857 185,197.5C 184.212,201.858 183.378,206.191 182.5,210.5C 186.445,211.491 190.445,211.824 194.5,211.5C 194.5,211.833 194.5,212.167 194.5,212.5C 178.325,212.83 162.325,212.496 146.5,211.5C 147.5,211.5 148.5,211.5 149.5,211.5C 148.885,204.43 147.885,197.43 146.5,190.5C 155.853,188.885 163.687,184.551 170,177.5C 170.483,176.552 170.649,175.552 170.5,174.5C 167.213,175.264 164.546,177.097 162.5,180C 156.384,185.232 149.384,187.232 141.5,186C 140.424,184.274 140.257,182.441 141,180.5C 145.237,176.964 149.737,173.798 154.5,171C 162.353,165.124 165.686,157.29 164.5,147.5C 164.624,142.547 163.957,137.713 162.5,133C 167.842,126.802 170.008,119.635 169,111.5C 168.5,111 168,110.5 167.5,110C 158.877,107.724 150.544,108.39 142.5,112C 123.216,114.597 103.882,115.097 84.5,113.5C 77.4262,112.765 70.4262,111.599 63.5,110C 48.1621,101.175 44.6621,89.008 53,73.5C 53.1501,66.066 53.9834,58.7327 55.5,51.5C 50.1317,47.2975 45.6317,42.2975 42,36.5C 41.3333,35.1667 41.3333,33.8333 42,32.5C 52.4842,24.5848 64.3175,20.4181 77.5,20C 79.6572,18.0879 81.9906,16.4213 84.5,15C 100.649,7.36379 117.649,4.36379 135.5,6C 150.903,7.24403 164.903,12.244 177.5,21C 190.282,20.3466 202.282,23.0132 213.5,29C 214.059,29.7247 214.392,30.5581 214.5,31.5C 212.803,38.1817 209.47,43.8483 204.5,48.5 Z"/></g>
<g><path style="opacity:1" fill="#471c0d" d="M 107.5,84.5 C 109.497,85.8087 111.497,87.1421 113.5,88.5C 115.397,88.2718 116.73,87.2718 117.5,85.5C 119.324,89.158 118.157,90.8246 114,90.5C 111.855,90.604 110.021,89.9373 108.5,88.5C 106.232,89.5443 103.899,89.711 101.5,89C 100.378,85.0551 101.378,84.5551 104.5,87.5C 105.855,86.8118 106.855,85.8118 107.5,84.5 Z"/></g>
<g><path style="opacity:1" fill="#4f2612" d="M 136.5,74.5 C 143.164,74.0002 146.331,77.0002 146,83.5C 141.667,88.8333 137.333,88.8333 133,83.5C 131.98,79.5532 133.147,76.5532 136.5,74.5 Z"/></g>
<g><path style="opacity:1" fill="#512814" d="M 79.5,73.5 C 86.8269,72.3293 89.9936,75.3293 89,82.5C 85.2943,87.2676 81.2943,87.601 77,83.5C 75.8613,79.5789 76.6946,76.2456 79.5,73.5 Z"/></g>
<g><path style="opacity:1" fill="#fd9682" d="M 188.5,28.5 C 196.506,26.8083 204.173,28.1416 211.5,32.5C 209.667,37.6622 206.667,41.9956 202.5,45.5C 198.531,39.2105 193.864,33.5438 188.5,28.5 Z"/></g>
<g><path style="opacity:1" fill="#fd9682" d="M 66.5,26.5 C 68.3547,26.272 69.1881,26.9387 69,28.5C 64.6417,34.186 60.3083,39.8526 56,45.5C 52.7143,43.2178 49.7143,40.5511 47,37.5C 46.3162,36.2161 46.4829,35.0495 47.5,34C 53.6397,30.6121 59.973,28.1121 66.5,26.5 Z"/></g>
<g><path style="opacity:1" fill="#ffa695" d="M 152.5,115.5 C 155.777,115.216 158.943,115.549 162,116.5C 162.026,121.125 160.36,125.125 157,128.5C 154.755,123.879 151.589,120.046 147.5,117C 149.382,116.802 151.048,116.302 152.5,115.5 Z"/></g>
<g><path style="opacity:1" fill="#a2958b" d="M 194.5,211.5 C 190.445,211.824 186.445,211.491 182.5,210.5C 183.378,206.191 184.212,201.858 185,197.5C 185.711,170.857 183.211,144.524 177.5,118.5C 180.011,118.162 182.345,118.162 184.5,118.5C 188.355,128.27 191.522,138.27 194,148.5C 197.148,169.477 197.314,190.477 194.5,211.5 Z"/></g>
<g><path style="opacity:1" fill="#512818" d="M 68.5,121.5 C 74.5971,120.263 77.4305,122.597 77,128.5C 73.6667,132.5 70.3333,132.5 67,128.5C 66.1668,125.829 66.6668,123.496 68.5,121.5 Z"/></g>
<g><path style="opacity:1" fill="#502715" d="M 115.5,123.5 C 123.818,123.987 125.485,127.487 120.5,134C 112.088,133.812 110.421,130.312 115.5,123.5 Z"/></g>
<g><path style="opacity:1" fill="#fedcd7" d="M 58.5,127.5 C 64.5446,127.029 66.5446,129.529 64.5,135C 61.1351,137.157 57.9684,136.991 55,134.5C 54.1762,131.16 55.3429,128.827 58.5,127.5 Z"/></g>
<g><path style="opacity:1" fill="#fedbd7" d="M 126.5,130.5 C 134.061,129.86 136.061,132.693 132.5,139C 127.153,140.616 124.32,138.783 124,133.5C 125.045,132.627 125.878,131.627 126.5,130.5 Z"/></g>
<g><path style="opacity:1" fill="#4c2213" d="M 146.5,211.5 C 145.873,204.866 144.54,198.366 142.5,192C 141.685,190.02 140.352,188.52 138.5,187.5C 136.667,185.504 136.167,183.171 137,180.5C 138.517,178.76 140.017,177.094 141.5,175.5C 148.743,171.454 154.909,166.121 160,159.5C 161.544,152.916 161.877,146.249 161,139.5C 160.76,137.148 159.927,135.148 158.5,133.5C 162.364,127.93 165.03,121.764 166.5,115C 166.355,114.228 166.022,113.561 165.5,113C 156.498,111.767 147.831,112.767 139.5,116C 120.493,117.691 101.493,117.858 82.5,116.5C 82.0825,115.778 81.4158,115.278 80.5,115C 82.0581,114.79 83.3915,114.29 84.5,113.5C 103.882,115.097 123.216,114.597 142.5,112C 150.544,108.39 158.877,107.724 167.5,110C 168,110.5 168.5,111 169,111.5C 170.008,119.635 167.842,126.802 162.5,133C 163.957,137.713 164.624,142.547 164.5,147.5C 165.686,157.29 162.353,165.124 154.5,171C 149.737,173.798 145.237,176.964 141,180.5C 140.257,182.441 140.424,184.274 141.5,186C 149.384,187.232 156.384,185.232 162.5,180C 164.546,177.097 167.213,175.264 170.5,174.5C 170.649,175.552 170.483,176.552 170,177.5C 163.687,184.551 155.853,188.885 146.5,190.5C 147.885,197.43 148.885,204.43 149.5,211.5C 148.5,211.5 147.5,211.5 146.5,211.5 Z"/></g>
<g><path style="opacity:1" fill="#f3ddd3" d="M 158.5,133.5 C 159.927,135.148 160.76,137.148 161,139.5C 161.877,146.249 161.544,152.916 160,159.5C 154.909,166.121 148.743,171.454 141.5,175.5C 140.697,174.577 140.53,173.577 141,172.5C 151.178,161.475 157.012,148.475 158.5,133.5 Z"/></g>
<g><path style="opacity:1" fill="#4c2418" d="M 91.5,128.5 C 94.4535,130.238 97.4535,131.238 100.5,131.5C 97.5833,136.287 96.0833,141.621 96,147.5C 94.9805,148.687 93.8139,149.687 92.5,150.5C 90.6827,148.584 89.516,146.251 89,143.5C 88.6667,139.833 88.3333,136.167 88,132.5C 87.3076,131.975 86.8076,131.308 86.5,130.5C 88.2914,129.83 89.9581,129.163 91.5,128.5 Z"/></g>
<g><path style="opacity:1" fill="#ef6957" d="M 91.5,131.5 C 94.3592,131.801 95.6925,133.467 95.5,136.5C 93.8333,149.833 92.1667,149.833 90.5,136.5C 90.5916,134.742 90.925,133.076 91.5,131.5 Z"/></g>
<g><path style="opacity:1" fill="#c3b9b2" d="M 49.5,180.5 C 55.6175,182.714 61.9508,183.88 68.5,184C 71.1997,184.949 72.033,186.783 71,189.5C 62.6633,192.165 55.6633,190.165 50,183.5C 49.5172,182.552 49.3505,181.552 49.5,180.5 Z"/></g>
<g><path style="opacity:1" fill="#f5ded4" d="M 138.5,187.5 C 140.352,188.52 141.685,190.02 142.5,192C 144.54,198.366 145.873,204.866 146.5,211.5C 145.71,210.391 145.21,209.058 145,207.5C 144.506,209.134 144.34,210.801 144.5,212.5C 142.856,212.714 141.356,212.38 140,211.5C 139.5,203.495 139,195.495 138.5,187.5 Z"/></g>
<g><path style="opacity:1" fill="#451b0f" d="M 79.5,191.5 C 84.1665,193.419 87.9998,196.419 91,200.5C 92.6585,209.838 88.8252,213.338 79.5,211C 76.0571,209.382 73.0571,207.215 70.5,204.5C 71,204.167 71.5,203.833 72,203.5C 74.9605,205.379 78.1272,206.879 81.5,208C 88.4345,209.437 90.2679,206.937 87,200.5C 83.1556,198.5 80.6556,195.5 79.5,191.5 Z"/></g>
<g><path style="opacity:1" fill="#451b0f" d="M 112.5,193.5 C 114.344,194.204 114.844,195.537 114,197.5C 109.603,200.382 108.769,203.882 111.5,208C 118.19,207.471 123.19,204.137 126.5,198C 127.6,197.568 128.267,198.068 128.5,199.5C 124.806,207.695 118.472,211.528 109.5,211C 106.114,207.627 105.614,203.794 108,199.5C 109.752,197.649 111.252,195.649 112.5,193.5 Z"/></g>
</svg>
