<?xml version="1.0" encoding="UTF-8"?>
<!DOCTYPE svg PUBLIC "-//W3C//DTD SVG 1.1//EN" "http://www.w3.org/Graphics/SVG/1.1/DTD/svg11.dtd">
<svg xmlns="http://www.w3.org/2000/svg" version="1.1" width="212px" height="215px" style="shape-rendering:geometricPrecision; text-rendering:geometricPrecision; image-rendering:optimizeQuality; fill-rule:evenodd; clip-rule:evenodd" xmlns:xlink="http://www.w3.org/1999/xlink">
<g><path style="opacity:1" fill="#fbfbfa" d="M 113.5,-0.5 C 120.5,-0.5 127.5,-0.5 134.5,-0.5C 147.894,1.4098 160.56,5.74313 172.5,12.5C 179.092,5.70178 187.092,2.53512 196.5,3C 201.236,7.85612 204.069,13.6895 205,20.5C 205.5,24.5 206,28.5 206.5,32.5C 205.601,37.1499 205.434,41.8166 206,46.5C 208.02,53.586 209.853,60.586 211.5,67.5C 211.5,73.8333 211.5,80.1667 211.5,86.5C 209.353,101.478 201.353,111.978 187.5,118C 193.918,133.174 197.752,149.007 199,165.5C 199.667,177.167 199.667,188.833 199,200.5C 198.653,205.297 197.819,209.963 196.5,214.5C 146.167,214.5 95.8333,214.5 45.5,214.5C 44.9816,213.423 44.6483,212.256 44.5,211C 46.2442,204.873 47.4109,198.706 48,192.5C 43.3483,189.874 40.6816,185.874 40,180.5C 29.7955,174.273 24.2955,165.106 23.5,153C 24.5975,146.445 25.9308,139.945 27.5,133.5C 21.4001,128.633 18.5668,122.3 19,114.5C 26.156,108.506 34.3226,104.506 43.5,102.5C 38.0743,92.0846 38.2409,81.7513 44,71.5C 44.0212,62.5039 45.1879,53.6706 47.5,45C 44.4914,31.9069 45.3247,19.0736 50,6.5C 50.9025,5.29857 52.0692,4.46524 53.5,4C 62.2589,3.77229 70.5923,5.60562 78.5,9.5C 89.9321,4.90598 101.599,1.57265 113.5,-0.5 Z"/></g>
<g><path style="opacity:1" fill="#552d19" d="M 191.5,212.5 C 191.5,212.167 191.5,211.833 191.5,211.5C 194.399,189.127 193.899,166.794 190,144.5C 188.267,135.468 185.434,126.802 181.5,118.5C 179.345,118.162 177.011,118.162 174.5,118.5C 172.965,115.67 173.965,114.337 177.5,114.5C 188.348,112.662 196.515,106.996 202,97.5C 207.254,80.4137 206.421,63.747 199.5,47.5C 202.194,34.0204 200.527,21.187 194.5,9C 192.5,8.33333 190.5,8.33333 188.5,9C 183.085,11.916 178.085,15.416 173.5,19.5C 142.317,2.10985 110.65,1.10985 78.5,16.5C 73.3152,14.0779 67.9819,11.9112 62.5,10C 59.7728,9.1816 57.1062,9.34827 54.5,10.5C 53.9017,11.7946 53.4017,13.1279 53,14.5C 52.2138,24.8612 52.3805,35.1945 53.5,45.5C 51.0457,54.6503 49.879,63.9836 50,73.5C 42.6061,86.3446 44.4394,97.6779 55.5,107.5C 54.3652,108.103 53.3652,108.436 52.5,108.5C 42.77,108.732 33.77,111.398 25.5,116.5C 25.1667,117.167 24.8333,117.833 24.5,118.5C 26.929,123.746 29.929,128.58 33.5,133C 23.4389,163.294 34.4389,179.294 66.5,181C 72.6843,182.933 74.0176,186.6 70.5,192C 65.2636,193.339 59.9302,193.839 54.5,193.5C 53.0135,199.416 51.8468,205.416 51,211.5C 49.9887,212.337 48.8221,212.67 47.5,212.5C 47.596,205.449 49.2627,198.783 52.5,192.5C 46.7576,189.941 43.591,185.607 43,179.5C 32.3215,173.657 26.8215,164.657 26.5,152.5C 26.9367,146.25 27.9367,140.084 29.5,134C 25.7459,129.166 22.7459,123.832 20.5,118C 21.4394,116.056 22.7727,114.389 24.5,113C 31.6226,108.681 39.2893,105.848 47.5,104.5C 41.5847,94.37 41.0847,84.0367 46,73.5C 46.1038,65.7009 47.1038,58.0342 49,50.5C 48.7468,39.1746 48.7468,27.8412 49,16.5C 49.4867,13.2016 50.6534,10.2016 52.5,7.5C 61.6699,6.28981 70.3366,7.95648 78.5,12.5C 104.552,0.878229 131.218,-0.621771 158.5,8C 163.412,10.3724 168.245,12.8724 173,15.5C 179.399,8.79015 187.065,5.45682 196,5.5C 203.175,17.0496 205.342,29.5496 202.5,43C 204.587,50.0998 206.42,57.2665 208,64.5C 208.667,72.5 208.667,80.5 208,88.5C 205.663,102.506 197.829,112.006 184.5,117C 191.811,133.336 195.977,150.502 197,168.5C 197.851,182.901 197.184,197.234 195,211.5C 193.989,212.337 192.822,212.67 191.5,212.5 Z"/></g>
<g><path style="opacity:1" fill="#c3b9b2" d="M 199.5,47.5 C 199.519,57.0763 199.352,66.743 199,76.5C 198.268,92.9806 191.101,105.647 177.5,114.5C 173.965,114.337 172.965,115.67 174.5,118.5C 175.278,119.156 175.944,119.989 176.5,121C 183.998,150.942 185.331,181.109 180.5,211.5C 184.167,211.5 187.833,211.5 191.5,211.5C 191.5,211.833 191.5,212.167 191.5,212.5C 175.325,212.83 159.325,212.496 143.5,211.5C 144.5,211.5 145.5,211.5 146.5,211.5C 146.398,204.381 145.065,197.548 142.5,191C 152.178,189.118 160.345,184.618 167,177.5C 167.483,176.552 167.649,175.552 167.5,174.5C 164.213,175.264 161.546,177.097 159.5,180C 153.384,185.232 146.384,187.232 138.5,186C 137.018,183.408 137.352,181.075 139.5,179C 146.24,174.93 152.407,170.096 158,164.5C 159.308,161.27 160.308,157.936 161,154.5C 159.35,139.987 159.017,125.32 160,110.5C 159.269,108.101 158.102,105.935 156.5,104C 152.706,103.717 149.039,104.383 145.5,106C 138.235,111.793 129.902,114.46 120.5,114C 99.9687,115.429 79.6354,114.096 59.5,110C 58.3066,108.905 56.9733,108.072 55.5,107.5C 44.4394,97.6779 42.6061,86.3446 50,73.5C 49.879,63.9836 51.0457,54.6503 53.5,45.5C 52.3805,35.1945 52.2138,24.8612 53,14.5C 53.4017,13.1279 53.9017,11.7946 54.5,10.5C 57.1062,9.34827 59.7728,9.1816 62.5,10C 67.9819,11.9112 73.3152,14.0779 78.5,16.5C 110.65,1.10985 142.317,2.10985 173.5,19.5C 178.085,15.416 183.085,11.916 188.5,9C 190.5,8.33333 192.5,8.33333 194.5,9C 200.527,21.187 202.194,34.0204 199.5,47.5 Z"/></g>
<g><path style="opacity:1" fill="#fc9783" d="M 189.5,14.5 C 190.496,14.4142 191.329,14.7476 192,15.5C 195.35,22.5448 196.183,29.8782 194.5,37.5C 189.719,32.2635 184.719,27.2635 179.5,22.5C 182.903,19.8141 186.236,17.1474 189.5,14.5 Z"/></g>
<g><path style="opacity:1" fill="#fb9783" d="M 58.5,16.5 C 64.1575,16.1605 69.1575,17.8272 73.5,21.5C 68.1946,27.1404 62.8612,32.8071 57.5,38.5C 56.09,31.0659 56.4233,23.7326 58.5,16.5 Z"/></g>
<g><path style="opacity:1" fill="#fff8f6" d="M -0.5,67.5 C -0.5,65.8333 -0.5,64.1667 -0.5,62.5C 0.933498,61.1667 2.26683,59.6667 3.5,58C 7.09852,56.9861 10.7652,56.1527 14.5,55.5C 18.5592,48.9216 23.7258,47.9216 30,52.5C 34.4276,61.737 33.5943,70.5703 27.5,79C 18.9196,79.4761 10.9196,77.4761 3.5,73C 2.51195,70.833 1.17861,68.9997 -0.5,67.5 Z"/></g>
<g><path style="opacity:1" fill="#fd6d5b" d="M 19.5,52.5 C 28.5934,52.1059 32.0934,56.4392 30,65.5C 29.5382,69.2519 28.3716,72.7519 26.5,76C 18.8738,76.8755 11.8738,75.2088 5.5,71C 3.91257,69.1552 2.57924,67.1552 1.5,65C 3.99298,58.8109 8.32631,56.9776 14.5,59.5C 15.9308,56.9613 17.5975,54.6279 19.5,52.5 Z"/></g>
<g><path style="opacity:1" fill="#a2948b" d="M 199.5,47.5 C 206.421,63.747 207.254,80.4137 202,97.5C 196.515,106.996 188.348,112.662 177.5,114.5C 191.101,105.647 198.268,92.9806 199,76.5C 199.352,66.743 199.519,57.0763 199.5,47.5 Z"/></g>
<g><path style="opacity:1" fill="#512814" d="M 76.5,73.5 C 86.2669,73.0726 88.6002,76.9059 83.5,85C 75.6851,87.5222 72.5184,84.6888 74,76.5C 75.045,75.6266 75.8783,74.6266 76.5,73.5 Z"/></g>
<g><path style="opacity:1" fill="#4f2511" d="M 133.5,74.5 C 140.164,74.0002 143.331,77.0002 143,83.5C 139.306,88.3416 135.306,88.6749 131,84.5C 130.333,81.8333 130.333,79.1667 131,76.5C 131.995,75.9341 132.828,75.2674 133.5,74.5 Z"/></g>
<g><path style="opacity:1" fill="#4c2314" d="M 104.5,84.5 C 106.552,85.7102 108.718,86.7102 111,87.5C 112.8,86.6216 114.633,85.955 116.5,85.5C 116.436,89.0624 114.603,90.7291 111,90.5C 108.855,90.604 107.021,89.9373 105.5,88.5C 103.232,89.5443 100.899,89.711 98.5,89C 97.3784,85.0551 98.3784,84.5551 101.5,87.5C 102.855,86.8118 103.855,85.8118 104.5,84.5 Z"/></g>
<g><path style="opacity:1" fill="#4d2313" d="M 143.5,211.5 C 142.566,210.432 142.232,209.099 142.5,207.5C 142.13,201.683 140.963,196.016 139,190.5C 137.296,188.627 135.463,186.96 133.5,185.5C 133.325,183.379 133.659,181.379 134.5,179.5C 139.032,175.214 144.032,171.38 149.5,168C 156.076,162.947 158.742,156.28 157.5,148C 157.333,144.833 157.167,141.667 157,138.5C 156.768,137.263 156.268,136.263 155.5,135.5C 156.988,127.561 157.488,119.561 157,111.5C 156.547,109.245 155.214,107.911 153,107.5C 146.586,108.586 141.086,111.419 136.5,116C 112.789,118.253 89.1225,117.92 65.5,115C 60.5574,113.862 56.2241,111.695 52.5,108.5C 53.3652,108.436 54.3652,108.103 55.5,107.5C 56.9733,108.072 58.3066,108.905 59.5,110C 79.6354,114.096 99.9687,115.429 120.5,114C 129.902,114.46 138.235,111.793 145.5,106C 149.039,104.383 152.706,103.717 156.5,104C 158.102,105.935 159.269,108.101 160,110.5C 159.017,125.32 159.35,139.987 161,154.5C 160.308,157.936 159.308,161.27 158,164.5C 152.407,170.096 146.24,174.93 139.5,179C 137.352,181.075 137.018,183.408 138.5,186C 146.384,187.232 153.384,185.232 159.5,180C 161.546,177.097 164.213,175.264 167.5,174.5C 167.649,175.552 167.483,176.552 167,177.5C 160.345,184.618 152.178,189.118 142.5,191C 145.065,197.548 146.398,204.381 146.5,211.5C 145.5,211.5 144.5,211.5 143.5,211.5 Z"/></g>
<g><path style="opacity:1" fill="#ffa594" d="M 147.5,112.5 C 149.766,112.141 151.599,112.808 153,114.5C 153.828,118.871 153.661,123.205 152.5,127.5C 149.279,123.548 145.945,119.715 142.5,116C 144.346,114.97 146.013,113.804 147.5,112.5 Z"/></g>
<g><path style="opacity:1" fill="#ffa796" d="M 45.5,111.5 C 46.8734,111.343 48.2068,111.51 49.5,112C 47.3295,113.586 44.9962,114.92 42.5,116C 42.8333,116.333 43.1667,116.667 43.5,117C 41.362,120.305 38.6953,123.139 35.5,125.5C 31.3125,124.039 29.3125,121.373 29.5,117.5C 34.8817,115.267 40.215,113.267 45.5,111.5 Z"/></g>
<g><path style="opacity:1" fill="#a2958c" d="M 191.5,211.5 C 187.833,211.5 184.167,211.5 180.5,211.5C 185.331,181.109 183.998,150.942 176.5,121C 175.944,119.989 175.278,119.156 174.5,118.5C 177.011,118.162 179.345,118.162 181.5,118.5C 185.434,126.802 188.267,135.468 190,144.5C 193.899,166.794 194.399,189.127 191.5,211.5 Z"/></g>
<g><path style="opacity:1" fill="#4f2614" d="M 69.5,121.5 C 77.2836,120.926 79.2836,123.926 75.5,130.5C 69.6972,132.518 66.8639,130.518 67,124.5C 68.045,123.627 68.8783,122.627 69.5,121.5 Z"/></g>
<g><path style="opacity:1" fill="#4f2614" d="M 115.5,123.5 C 122,122.499 124.5,125.165 123,131.5C 120,135.5 117,135.5 114,131.5C 113.109,128.502 113.609,125.836 115.5,123.5 Z"/></g>
<g><path style="opacity:1" fill="#ffdcd8" d="M 58.5,128.5 C 60.9892,128.298 63.3225,128.798 65.5,130C 67.0156,134.355 65.3489,136.855 60.5,137.5C 55.9874,137.105 54.4874,134.771 56,130.5C 56.9947,129.934 57.828,129.267 58.5,128.5 Z"/></g>
<g><path style="opacity:1" fill="#50291c" d="M 92.5,128.5 C 95.3221,129.815 98.3221,130.815 101.5,131.5C 100.758,132.287 99.9246,132.953 99,133.5C 98.6116,137.219 97.9449,140.886 97,144.5C 94.6667,152.5 92.3333,152.5 90,144.5C 89.5735,139.416 88.7402,134.416 87.5,129.5C 89.4147,129.784 91.0813,129.451 92.5,128.5 Z"/></g>
<g><path style="opacity:1" fill="#e86654" d="M 92.5,131.5 C 94.595,131.76 95.9283,132.926 96.5,135C 96.1053,139.063 95.1053,142.896 93.5,146.5C 91.2985,141.618 90.9651,136.618 92.5,131.5 Z"/></g>
<g><path style="opacity:1" fill="#fedcd7" d="M 126.5,130.5 C 129.32,130.248 131.986,130.748 134.5,132C 135.639,137.529 133.306,139.862 127.5,139C 122.782,136.473 122.449,133.64 126.5,130.5 Z"/></g>
<g><path style="opacity:1" fill="#f6e0d7" d="M 155.5,135.5 C 156.268,136.263 156.768,137.263 157,138.5C 157.167,141.667 157.333,144.833 157.5,148C 158.742,156.28 156.076,162.947 149.5,168C 144.032,171.38 139.032,175.214 134.5,179.5C 133.697,178.577 133.53,177.577 134,176.5C 146.945,165.947 154.111,152.28 155.5,135.5 Z"/></g>
<g><path style="opacity:1" fill="#c4bab3" d="M 46.5,181.5 C 52.727,182.937 59.0604,183.77 65.5,184C 68.8943,185.565 69.2277,187.565 66.5,190C 59.8588,191.406 53.8588,190.073 48.5,186C 47.4178,184.67 46.7512,183.17 46.5,181.5 Z"/></g>
<g><path style="opacity:1" fill="#f4ded4" d="M 133.5,185.5 C 135.463,186.96 137.296,188.627 139,190.5C 140.963,196.016 142.13,201.683 142.5,207.5C 141.549,208.919 141.216,210.585 141.5,212.5C 139.5,212.5 137.5,212.5 135.5,212.5C 135.881,203.399 135.214,194.399 133.5,185.5 Z"/></g>
<g><path style="opacity:1" fill="#451c11" d="M 108.5,194.5 C 109.5,194.5 110.5,194.5 111.5,194.5C 109.899,197.796 108.232,201.129 106.5,204.5C 107.976,208.707 110.642,209.54 114.5,207C 118.167,204.667 121.167,201.667 123.5,198C 124.6,197.568 125.267,198.068 125.5,199.5C 121.806,207.695 115.472,211.528 106.5,211C 103.606,208.091 102.773,204.591 104,200.5C 106.102,198.905 107.602,196.905 108.5,194.5 Z"/></g>
<g><path style="opacity:1" fill="#471e11" d="M 76.5,191.5 C 81.0608,193.56 84.8941,196.56 88,200.5C 90.2624,210.569 86.4291,214.069 76.5,211C 73.3974,209.561 70.5641,207.727 68,205.5C 67.4092,204.517 67.7425,203.85 69,203.5C 71.9605,205.379 75.1272,206.879 78.5,208C 83.6622,209.424 85.8288,207.59 85,202.5C 82.6127,199.623 79.946,196.956 77,194.5C 76.5172,193.552 76.3505,192.552 76.5,191.5 Z"/></g>
</svg>
