<?xml version="1.0" encoding="UTF-8"?>
<!DOCTYPE svg PUBLIC "-//W3C//DTD SVG 1.1//EN" "http://www.w3.org/Graphics/SVG/1.1/DTD/svg11.dtd">
<svg xmlns="http://www.w3.org/2000/svg" version="1.1" width="219px" height="215px" style="shape-rendering:geometricPrecision; text-rendering:geometricPrecision; image-rendering:optimizeQuality; fill-rule:evenodd; clip-rule:evenodd" xmlns:xlink="http://www.w3.org/1999/xlink">
<g><path style="opacity:1" fill="#fcfbfa" d="M 116.5,-0.5 C 123.5,-0.5 130.5,-0.5 137.5,-0.5C 151.893,1.74289 165.56,6.40956 178.5,13.5C 187.903,12.0874 197.236,12.5874 206.5,15C 211.01,16.4182 215.01,18.5849 218.5,21.5C 218.5,23.8333 218.5,26.1667 218.5,28.5C 216.199,35.545 213.199,42.3783 209.5,49C 214.882,64.2723 215.715,79.7723 212,95.5C 208.549,106.583 201.382,114.083 190.5,118C 202.845,149.459 205.845,181.626 199.5,214.5C 149.167,214.5 98.8333,214.5 48.5,214.5C 47.9816,213.423 47.6483,212.256 47.5,211C 49.2442,204.873 50.4109,198.706 51,192.5C 46.3483,189.874 43.6816,185.874 43,180.5C 31.3638,173.896 26.0305,163.896 27,150.5C 28.696,143.198 30.196,135.865 31.5,128.5C 26.3019,121.44 24.1352,113.774 25,105.5C 30.825,101.498 37.325,99.8312 44.5,100.5C 41.2739,90.4868 42.1072,80.8202 47,71.5C 47.1061,64.3887 47.9395,57.3887 49.5,50.5C 43.4597,44.7531 39.7931,37.7531 38.5,29.5C 38.6739,24.153 41.3406,20.653 46.5,19C 56.7355,14.7527 67.4022,12.4193 78.5,12C 90.5522,5.70446 103.219,1.53779 116.5,-0.5 Z"/></g>
<g><path style="opacity:1" fill="#552c18" d="M 194.5,212.5 C 194.5,212.167 194.5,211.833 194.5,211.5C 199.9,179.484 196.567,148.484 184.5,118.5C 182.345,118.162 180.011,118.162 177.5,118.5C 176.316,117.312 176.316,116.145 177.5,115C 192.681,113.814 202.514,105.981 207,91.5C 208.405,83.2082 208.738,74.8748 208,66.5C 206.494,59.813 204.994,53.1463 203.5,46.5C 208.071,40.4244 211.071,33.591 212.5,26C 212.241,24.7387 211.574,23.7387 210.5,23C 199.837,18.7291 188.837,17.5624 177.5,19.5C 150.804,4.21383 122.804,1.38049 93.5,11C 88.9144,12.9645 84.581,15.2978 80.5,18C 69.7549,17.9369 59.4216,19.9369 49.5,24C 47.0243,25.3088 45.0243,27.1421 43.5,29.5C 45.9333,36.1024 49.7666,41.7691 55,46.5C 55.1667,47.3333 55.3333,48.1667 55.5,49C 53.9118,57.0739 53.0785,65.2406 53,73.5C 48.5976,80.2694 47.4309,87.6027 49.5,95.5C 49.2983,99.2569 50.9649,102.424 54.5,105C 53.9056,105.464 53.2389,105.631 52.5,105.5C 45.3262,105.012 38.3262,105.845 31.5,108C 30.9186,108.893 30.5852,109.893 30.5,111C 32.2736,116.883 34.6069,122.549 37.5,128C 35.9316,136.683 34.5983,145.349 33.5,154C 33.6269,165.15 38.9602,172.817 49.5,177C 56.0506,178.856 62.7173,180.189 69.5,181C 75.6843,182.933 77.0176,186.6 73.5,192C 68.2636,193.339 62.9302,193.839 57.5,193.5C 55.9118,199.774 54.5784,206.108 53.5,212.5C 52.5,212.5 51.5,212.5 50.5,212.5C 51.1465,205.607 52.8132,198.941 55.5,192.5C 49.1494,189.845 46.1494,185.179 46.5,178.5C 38.0677,175.379 32.5677,169.379 30,160.5C 29.3333,156.167 29.3333,151.833 30,147.5C 31.2036,143.284 31.8702,138.951 32,134.5C 32.2326,132.22 33.066,130.22 34.5,128.5C 30.5692,122.546 27.9026,116.046 26.5,109C 27.5848,106.25 29.5848,104.583 32.5,104C 38.1027,102.876 43.7694,102.21 49.5,102C 44.3623,92.6138 44.1957,83.1138 49,73.5C 49.1505,65.5857 49.9839,57.7524 51.5,50C 48.7237,45.8732 45.8904,41.7065 43,37.5C 41.6772,33.8916 41.0105,30.2249 41,26.5C 45.1257,22.5183 49.9591,19.685 55.5,18C 63.3493,15.8029 71.3493,14.4696 79.5,14C 106.769,0.581978 134.769,-1.08469 163.5,9C 168.326,11.2455 172.992,13.7455 177.5,16.5C 190.294,14.252 202.628,15.752 214.5,21C 215.804,21.804 216.471,22.9707 216.5,24.5C 214.621,32.974 211.288,40.8073 206.5,48C 212.094,63.5584 212.927,79.3918 209,95.5C 205.193,105.974 198.026,113.141 187.5,117C 199.917,147.419 203.417,178.919 198,211.5C 196.989,212.337 195.822,212.67 194.5,212.5 Z"/></g>
<g><path style="opacity:1" fill="#c2b8b1" d="M 203.5,46.5 C 202.566,47.7725 201.899,49.2725 201.5,51C 203.596,64.4817 202.429,77.6483 198,90.5C 194.065,102.101 186.399,110.101 175,114.5C 174.09,116.945 174.924,118.278 177.5,118.5C 181.077,133.963 183.577,149.63 185,165.5C 185.809,180.885 185.309,196.218 183.5,211.5C 187.167,211.5 190.833,211.5 194.5,211.5C 194.5,211.833 194.5,212.167 194.5,212.5C 178.325,212.83 162.325,212.496 146.5,211.5C 147.5,211.5 148.5,211.5 149.5,211.5C 149.352,204.414 148.019,197.581 145.5,191C 155.166,189.12 163.332,184.62 170,177.5C 170.483,176.552 170.649,175.552 170.5,174.5C 167.213,175.264 164.546,177.097 162.5,180C 158.993,182.254 155.327,184.254 151.5,186C 148.118,186.824 144.784,186.657 141.5,185.5C 139.993,183.031 140.327,180.865 142.5,179C 150.101,174.786 156.601,169.286 162,162.5C 165.056,152.852 165.222,143.185 162.5,133.5C 166.487,128.185 168.82,122.185 169.5,115.5C 169.449,113.9 169.116,112.4 168.5,111C 159.691,107.748 151.025,108.081 142.5,112C 118.833,115.333 95.1659,115.333 71.5,112C 61.1942,110.535 53.8609,105.035 49.5,95.5C 47.4309,87.6027 48.5976,80.2694 53,73.5C 53.0785,65.2406 53.9118,57.0739 55.5,49C 55.3333,48.1667 55.1667,47.3333 55,46.5C 49.7666,41.7691 45.9333,36.1024 43.5,29.5C 45.0243,27.1421 47.0243,25.3088 49.5,24C 59.4216,19.9369 69.7549,17.9369 80.5,18C 84.581,15.2978 88.9144,12.9645 93.5,11C 122.804,1.38049 150.804,4.21383 177.5,19.5C 188.837,17.5624 199.837,18.7291 210.5,23C 211.574,23.7387 212.241,24.7387 212.5,26C 211.071,33.591 208.071,40.4244 203.5,46.5 Z"/></g>
<g><path style="opacity:1" fill="#fd9682" d="M 186.5,24.5 C 194.336,24.1154 201.669,25.7821 208.5,29.5C 207.068,34.2007 204.734,38.3673 201.5,42C 200.668,42.6877 200.002,42.521 199.5,41.5C 194.907,35.9534 190.573,30.2868 186.5,24.5 Z"/></g>
<g><path style="opacity:1" fill="#fd9682" d="M 60.5,24.5 C 63.8984,24.1796 67.2317,24.513 70.5,25.5C 65.845,30.8111 61.6783,36.4778 58,42.5C 54.0475,39.4008 51.2142,35.5675 49.5,31C 49.8333,30.1667 50.1667,29.3333 50.5,28.5C 54.0128,27.3355 57.3462,26.0022 60.5,24.5 Z"/></g>
<g><path style="opacity:1" fill="#fff7f6" d="M -0.5,67.5 C -0.5,65.8333 -0.5,64.1667 -0.5,62.5C 3.18692,56.3217 8.52025,53.9884 15.5,55.5C 17.6218,52.8756 19.9552,50.3756 22.5,48C 33.6678,45.4739 39.3345,50.1405 39.5,62C 39.1406,68.1317 37.6406,73.9651 35,79.5C 33.9805,80.6872 32.8139,81.6872 31.5,82.5C 23.5759,81.735 15.9093,79.9017 8.5,77C 4.59151,74.5943 1.59151,71.4276 -0.5,67.5 Z"/></g>
<g><path style="opacity:1" fill="#fd6d5a" d="M 25.5,48.5 C 31.137,48.3983 34.637,51.065 36,56.5C 37.0809,64.18 35.9143,71.5133 32.5,78.5C 22.0054,79.8765 12.6721,77.2099 4.5,70.5C 0.806518,62.8858 3.13985,58.5525 11.5,57.5C 13.8583,57.7529 16.1917,58.0862 18.5,58.5C 19.3562,54.1171 21.6896,50.7837 25.5,48.5 Z"/></g>
<g><path style="opacity:1" fill="#a1948b" d="M 203.5,46.5 C 204.994,53.1463 206.494,59.813 208,66.5C 208.738,74.8748 208.405,83.2082 207,91.5C 202.514,105.981 192.681,113.814 177.5,115C 176.316,116.145 176.316,117.312 177.5,118.5C 174.924,118.278 174.09,116.945 175,114.5C 186.399,110.101 194.065,102.101 198,90.5C 202.429,77.6483 203.596,64.4817 201.5,51C 201.899,49.2725 202.566,47.7725 203.5,46.5 Z"/></g>
<g><path style="opacity:1" fill="#512714" d="M 79.5,73.5 C 86.8269,72.3293 89.9936,75.3293 89,82.5C 85.2943,87.2676 81.2943,87.601 77,83.5C 75.8613,79.5789 76.6946,76.2456 79.5,73.5 Z"/></g>
<g><path style="opacity:1" fill="#4f2612" d="M 136.5,74.5 C 143.164,74.0002 146.331,77.0002 146,83.5C 141.667,88.8333 137.333,88.8333 133,83.5C 132.333,81.8333 132.333,80.1667 133,78.5C 134.376,77.2949 135.542,75.9616 136.5,74.5 Z"/></g>
<g><path style="opacity:1" fill="#461b0c" d="M 107.5,84.5 C 109.564,84.7619 110.897,85.9286 111.5,88C 114.259,88.9774 116.259,88.144 117.5,85.5C 118.868,89.0566 117.534,90.7232 113.5,90.5C 111.519,90.5629 109.852,89.8962 108.5,88.5C 106.232,89.5443 103.899,89.711 101.5,89C 100.269,87.8173 100.269,86.6507 101.5,85.5C 103.933,88.1385 105.933,87.8052 107.5,84.5 Z"/></g>
<g><path style="opacity:1" fill="#ffa594" d="M 35.5,109.5 C 41.1764,109.334 46.8431,109.501 52.5,110C 49.9237,111.122 47.257,112.122 44.5,113C 45.8333,113.333 47.1667,113.667 48.5,114C 46.7536,114.471 45.087,115.138 43.5,116C 43.8412,119.059 42.3412,121.226 39,122.5C 34.8768,118.964 33.7102,114.63 35.5,109.5 Z"/></g>
<g><path style="opacity:1" fill="#4e2413" d="M 49.5,95.5 C 53.8609,105.035 61.1942,110.535 71.5,112C 95.1659,115.333 118.833,115.333 142.5,112C 151.025,108.081 159.691,107.748 168.5,111C 169.116,112.4 169.449,113.9 169.5,115.5C 168.82,122.185 166.487,128.185 162.5,133.5C 165.222,143.185 165.056,152.852 162,162.5C 156.601,169.286 150.101,174.786 142.5,179C 140.327,180.865 139.993,183.031 141.5,185.5C 144.784,186.657 148.118,186.824 151.5,186C 155.327,184.254 158.993,182.254 162.5,180C 164.546,177.097 167.213,175.264 170.5,174.5C 170.649,175.552 170.483,176.552 170,177.5C 163.332,184.62 155.166,189.12 145.5,191C 148.019,197.581 149.352,204.414 149.5,211.5C 148.5,211.5 147.5,211.5 146.5,211.5C 145.566,210.432 145.232,209.099 145.5,207.5C 144.977,201.691 143.81,196.024 142,190.5C 140.961,189.29 139.794,188.29 138.5,187.5C 136.35,185.078 136.017,182.411 137.5,179.5C 142.032,175.214 147.032,171.38 152.5,168C 159.028,162.943 162.028,156.276 161.5,148C 161.356,143.79 160.856,139.624 160,135.5C 159.722,134.584 159.222,133.918 158.5,133.5C 162.364,127.93 165.03,121.764 166.5,115C 166.355,114.228 166.022,113.561 165.5,113C 156.814,111.726 148.481,112.726 140.5,116C 122.191,117.499 103.858,117.833 85.5,117C 75.2139,117.058 65.5472,114.725 56.5,110C 54.9586,108.629 53.6253,107.129 52.5,105.5C 53.2389,105.631 53.9056,105.464 54.5,105C 50.9649,102.424 49.2983,99.2569 49.5,95.5 Z"/></g>
<g><path style="opacity:1" fill="#ffa594" d="M 150.5,115.5 C 154.5,115.5 158.5,115.5 162.5,115.5C 162.324,120.52 160.491,124.854 157,128.5C 154.971,125.971 153.138,123.304 151.5,120.5C 151.709,119.914 152.043,119.414 152.5,119C 148.795,118.578 148.128,117.412 150.5,115.5 Z"/></g>
<g><path style="opacity:1" fill="#a1948b" d="M 194.5,211.5 C 190.833,211.5 187.167,211.5 183.5,211.5C 185.309,196.218 185.809,180.885 185,165.5C 183.577,149.63 181.077,133.963 177.5,118.5C 180.011,118.162 182.345,118.162 184.5,118.5C 196.567,148.484 199.9,179.484 194.5,211.5 Z"/></g>
<g><path style="opacity:1" fill="#522919" d="M 70.5,120.5 C 75.757,120.688 77.9237,123.355 77,128.5C 73.6667,132.5 70.3333,132.5 67,128.5C 66.3333,126.833 66.3333,125.167 67,123.5C 68.5185,122.837 69.6851,121.837 70.5,120.5 Z"/></g>
<g><path style="opacity:1" fill="#512817" d="M 115.5,123.5 C 123.818,123.987 125.485,127.487 120.5,134C 112.088,133.812 110.421,130.312 115.5,123.5 Z"/></g>
<g><path style="opacity:1" fill="#fedcd7" d="M 56.5,128.5 C 59.2492,128.274 61.9159,128.607 64.5,129.5C 65.8465,135.968 63.1799,138.134 56.5,136C 53.9142,133.506 53.9142,131.006 56.5,128.5 Z"/></g>
<g><path style="opacity:1" fill="#fedcd7" d="M 126.5,130.5 C 134.061,129.86 136.061,132.693 132.5,139C 128.132,140.459 125.132,139.126 123.5,135C 123.957,133.06 124.957,131.56 126.5,130.5 Z"/></g>
<g><path style="opacity:1" fill="#462014" d="M 91.5,128.5 C 94.4535,130.238 97.4535,131.238 100.5,131.5C 97.6761,135.961 96.1761,140.961 96,146.5C 93.6941,151.689 91.6941,151.689 90,146.5C 89.6124,140.91 88.4458,135.577 86.5,130.5C 88.2914,129.83 89.9581,129.163 91.5,128.5 Z"/></g>
<g><path style="opacity:1" fill="#ec6856" d="M 91.5,131.5 C 94.3592,131.801 95.6925,133.467 95.5,136.5C 95.2922,139.998 94.4588,143.331 93,146.5C 90.3854,141.688 89.8854,136.688 91.5,131.5 Z"/></g>
<g><path style="opacity:1" fill="#f5dfd6" d="M 158.5,133.5 C 159.222,133.918 159.722,134.584 160,135.5C 160.856,139.624 161.356,143.79 161.5,148C 162.028,156.276 159.028,162.943 152.5,168C 147.032,171.38 142.032,175.214 137.5,179.5C 137.343,178.127 137.51,176.793 138,175.5C 145.07,169.021 150.404,161.354 154,152.5C 155.824,146.222 157.324,139.889 158.5,133.5 Z"/></g>
<g><path style="opacity:1" fill="#c5bbb4" d="M 49.5,180.5 C 55.6175,182.714 61.9508,183.88 68.5,184C 71.8943,185.565 72.2277,187.565 69.5,190C 63.278,191.315 57.6113,190.149 52.5,186.5C 50.585,184.929 49.585,182.929 49.5,180.5 Z"/></g>
<g><path style="opacity:1" fill="#f6e1d8" d="M 138.5,187.5 C 139.794,188.29 140.961,189.29 142,190.5C 143.81,196.024 144.977,201.691 145.5,207.5C 144.549,208.919 144.216,210.585 144.5,212.5C 142.833,212.5 141.167,212.5 139.5,212.5C 139.457,204.152 139.124,195.819 138.5,187.5 Z"/></g>
<g><path style="opacity:1" fill="#481e12" d="M 112.5,193.5 C 114.344,194.204 114.844,195.537 114,197.5C 111.987,199.532 110.487,201.866 109.5,204.5C 110.976,208.707 113.642,209.54 117.5,207C 121.167,204.667 124.167,201.667 126.5,198C 127.6,197.568 128.267,198.068 128.5,199.5C 124.78,207.732 118.447,211.565 109.5,211C 106.114,207.627 105.614,203.794 108,199.5C 109.332,197.34 110.832,195.34 112.5,193.5 Z"/></g>
<g><path style="opacity:1" fill="#471d10" d="M 79.5,191.5 C 84.1665,193.419 87.9998,196.419 91,200.5C 92.6585,209.838 88.8252,213.338 79.5,211C 76.0571,209.382 73.0571,207.215 70.5,204.5C 71,204.167 71.5,203.833 72,203.5C 74.9605,205.379 78.1272,206.879 81.5,208C 88.4345,209.437 90.2679,206.937 87,200.5C 83.1556,198.5 80.6556,195.5 79.5,191.5 Z"/></g>
</svg>
