<?xml version="1.0" encoding="UTF-8"?>
<!DOCTYPE svg PUBLIC "-//W3C//DTD SVG 1.1//EN" "http://www.w3.org/Graphics/SVG/1.1/DTD/svg11.dtd">
<svg xmlns="http://www.w3.org/2000/svg" version="1.1" width="207px" height="215px" style="shape-rendering:geometricPrecision; text-rendering:geometricPrecision; image-rendering:optimizeQuality; fill-rule:evenodd; clip-rule:evenodd" xmlns:xlink="http://www.w3.org/1999/xlink">
<g><path style="opacity:1" fill="#fbfafa" d="M 109.5,-0.5 C 116.5,-0.5 123.5,-0.5 130.5,-0.5C 143.904,1.91267 156.737,6.246 169,12.5C 175.039,10.265 181.206,8.43169 187.5,7C 195.887,4.11281 200.72,6.94614 202,15.5C 204.225,26.1668 203.725,36.6668 200.5,47C 203.065,53.7766 205.065,60.6099 206.5,67.5C 206.5,73.8333 206.5,80.1667 206.5,86.5C 204.353,101.478 196.353,111.978 182.5,118C 188.916,133.165 192.749,148.998 194,165.5C 194.667,177.167 194.667,188.833 194,200.5C 193.782,205.322 192.949,209.988 191.5,214.5C 141.5,214.5 91.5,214.5 41.5,214.5C 40.4183,213.406 39.7517,212.073 39.5,210.5C 40.8333,205.167 42.1667,199.833 43.5,194.5C 38.8928,190.959 36.0595,186.293 35,180.5C 25.0927,174.913 19.5927,166.413 18.5,155C 20.3751,146.187 22.0418,137.354 23.5,128.5C 20.0177,122.533 17.3511,116.199 15.5,109.5C 16.2679,105.565 18.6012,103.065 22.5,102C 27.1016,100.878 31.7682,100.378 36.5,100.5C 34.732,94.2832 34.232,87.9499 35,81.5C 35.7589,78.2154 37.0922,75.2154 39,72.5C 38.9061,63.7761 40.0728,55.2761 42.5,47C 36.9422,35.7184 34.9422,23.885 36.5,11.5C 41.7127,8.44747 47.3793,7.11413 53.5,7.5C 59.6735,7.46808 65.6735,8.46808 71.5,10.5C 83.809,5.16979 96.4756,1.50312 109.5,-0.5 Z"/></g>
<g><path style="opacity:1" fill="#c3b9b2" d="M 194.5,47.5 C 194.434,55.4239 194.268,63.4239 194,71.5C 193.094,83.1278 189.427,93.7945 183,103.5C 178.957,107.877 174.124,111.044 168.5,113C 166.845,114.444 166.178,116.278 166.5,118.5C 167.5,118.5 168.5,118.5 169.5,118.5C 176.093,145.098 178.593,172.098 177,199.5C 175.843,203.782 175.01,208.116 174.5,212.5C 163.5,212.5 152.5,212.5 141.5,212.5C 141.514,205.06 140.18,197.893 137.5,191C 147.228,189.222 155.394,184.722 162,177.5C 162.483,176.552 162.649,175.552 162.5,174.5C 161.448,174.351 160.448,174.517 159.5,175C 152.65,183.095 143.984,186.762 133.5,186C 132.167,184 132.167,182 133.5,180C 140.576,175.594 147.076,170.428 153,164.5C 154.275,162.283 155.275,159.949 156,157.5C 156.667,150.5 156.667,143.5 156,136.5C 155.362,135.391 154.862,134.225 154.5,133C 159.501,126.665 161.668,119.498 161,111.5C 159.53,110.733 158.03,110.067 156.5,109.5C 150.443,108.262 144.443,108.595 138.5,110.5C 113.663,115.269 88.6626,115.769 63.5,112C 53.8975,110.892 46.8975,106.059 42.5,97.5C 39.1815,89.0159 40.0149,81.0159 45,73.5C 44.8421,64.2849 46.0088,55.2849 48.5,46.5C 46.5859,41.2596 44.7526,35.9263 43,30.5C 42.3159,25.1778 41.8159,19.8444 41.5,14.5C 52.125,12.6907 62.4584,13.6907 72.5,17.5C 104.989,0.92299 137.156,1.58966 169,19.5C 177.17,14.4151 186.003,12.4151 195.5,13.5C 197.519,21.0252 198.019,28.6918 197,36.5C 196.005,40.1451 195.172,43.8117 194.5,47.5 Z"/></g>
<g><path style="opacity:1" fill="#562d18" d="M 190.5,209.5 C 189.533,210.806 188.199,211.473 186.5,211.5C 191.063,181.525 188.563,152.192 179,123.5C 178.086,121.336 176.919,119.336 175.5,117.5C 173.591,118.348 171.591,118.682 169.5,118.5C 168.316,117.312 168.316,116.145 169.5,115C 190.753,111.713 201.086,99.2134 200.5,77.5C 200.598,66.9349 198.598,56.9349 194.5,47.5C 195.172,43.8117 196.005,40.1451 197,36.5C 198.019,28.6918 197.519,21.0252 195.5,13.5C 186.003,12.4151 177.17,14.4151 169,19.5C 137.156,1.58966 104.989,0.92299 72.5,17.5C 62.4584,13.6907 52.125,12.6907 41.5,14.5C 41.8159,19.8444 42.3159,25.1778 43,30.5C 44.7526,35.9263 46.5859,41.2596 48.5,46.5C 46.0088,55.2849 44.8421,64.2849 45,73.5C 40.0149,81.0159 39.1815,89.0159 42.5,97.5C 42.3167,99.3167 42.3167,101.15 42.5,103C 36.4853,103.424 30.4853,103.924 24.5,104.5C 29.9035,102.882 35.5702,102.049 41.5,102C 34.7441,92.0414 34.9107,82.208 42,72.5C 42.0042,64.0346 42.8375,55.7012 44.5,47.5C 42.9674,40.7376 41.134,34.0709 39,27.5C 37.7695,22.6173 37.6028,17.7839 38.5,13C 42.9031,10.9737 47.5697,10.1404 52.5,10.5C 59.2133,10.16 65.7133,11.16 72,13.5C 104.658,-1.67889 136.992,-1.01223 169,15.5C 177.869,10.3197 187.369,8.48638 197.5,10C 198.863,11.9449 199.697,14.1116 200,16.5C 200.863,26.2395 200.363,35.9062 198.5,45.5C 203.126,59.4845 204.626,73.8178 203,88.5C 200.663,102.506 192.829,112.006 179.5,117C 191.598,146.702 195.264,177.535 190.5,209.5 Z"/></g>
<g><path style="opacity:1" fill="#fd9783" d="M 185.5,18.5 C 188.394,18.0423 190.894,18.709 193,20.5C 193.667,25.1667 193.667,29.8333 193,34.5C 192.735,36.6515 191.735,38.3181 190,39.5C 185.374,34.0379 180.541,28.7046 175.5,23.5C 175.977,22.5224 176.643,21.6891 177.5,21C 180.379,20.454 183.046,19.6206 185.5,18.5 Z"/></g>
<g><path style="opacity:1" fill="#fd9682" d="M 47.5,19.5 C 52.5111,19.3341 57.5111,19.5007 62.5,20C 64.7148,20.1705 66.7148,20.8372 68.5,22C 62.6135,27.3839 57.2801,33.2172 52.5,39.5C 51.2011,38.91 50.3678,37.91 50,36.5C 48.8403,30.8707 48.0069,25.2041 47.5,19.5 Z"/></g>
<g><path style="opacity:1" fill="#fff8f7" d="M -0.5,66.5 C -0.5,65.1667 -0.5,63.8333 -0.5,62.5C 1.34739,59.9835 3.84739,58.3168 7,57.5C 9.27833,58.6204 10.7783,57.787 11.5,55C 18.6566,52.5922 22.6566,55.2589 23.5,63C 23.1454,67.0674 21.8121,70.7341 19.5,74C 11.1331,75.6366 4.46641,73.1366 -0.5,66.5 Z"/></g>
<g><path style="opacity:1" fill="#fd6f5d" d="M 13.5,56.5 C 18.5779,55.7452 20.9112,57.9118 20.5,63C 20.5191,65.9989 19.8525,68.8322 18.5,71.5C 13.493,72.8944 8.82638,72.0611 4.5,69C 1.83333,66.3333 1.83333,63.6667 4.5,61C 6.44058,60.2571 8.27391,60.4238 10,61.5C 10.9973,59.6769 12.1639,58.0103 13.5,56.5 Z"/></g>
<g><path style="opacity:1" fill="#a2948b" d="M 194.5,47.5 C 198.598,56.9349 200.598,66.9349 200.5,77.5C 201.086,99.2134 190.753,111.713 169.5,115C 168.316,116.145 168.316,117.312 169.5,118.5C 168.5,118.5 167.5,118.5 166.5,118.5C 166.178,116.278 166.845,114.444 168.5,113C 174.124,111.044 178.957,107.877 183,103.5C 189.427,93.7945 193.094,83.1278 194,71.5C 194.268,63.4239 194.434,55.4239 194.5,47.5 Z"/></g>
<g><path style="opacity:1" fill="#512814" d="M 71.5,73.5 C 81.2669,73.0726 83.6002,76.9059 78.5,85C 72.723,87.6115 69.3897,85.7781 68.5,79.5C 68.6284,77.0452 69.6284,75.0452 71.5,73.5 Z"/></g>
<g><path style="opacity:1" fill="#502713" d="M 128.5,74.5 C 135.497,73.6662 138.664,76.6662 138,83.5C 133.667,88.8333 129.333,88.8333 125,83.5C 124.043,79.6386 125.21,76.6386 128.5,74.5 Z"/></g>
<g><path style="opacity:1" fill="#4a2011" d="M 99.5,84.5 C 101.552,85.7102 103.718,86.7102 106,87.5C 107.365,87.1557 108.532,86.4891 109.5,85.5C 111.324,89.158 110.157,90.8246 106,90.5C 103.855,90.604 102.021,89.9373 100.5,88.5C 98.2324,89.5443 95.8991,89.711 93.5,89C 92.3784,85.0551 93.3784,84.5551 96.5,87.5C 97.8549,86.8118 98.8549,85.8118 99.5,84.5 Z"/></g>
<g><path style="opacity:1" fill="#694532" d="M 156.5,109.5 C 153.15,109.335 149.817,109.502 146.5,110C 148.833,111.043 151.166,111.876 153.5,112.5C 150.5,112.5 147.5,112.5 144.5,112.5C 142.898,110.926 140.898,110.259 138.5,110.5C 144.443,108.595 150.443,108.262 156.5,109.5 Z"/></g>
<g><path style="opacity:1" fill="#ffa594" d="M 27.5,109.5 C 33.1764,109.334 38.8431,109.501 44.5,110C 41.9938,111.299 39.3272,112.299 36.5,113C 41.498,113.428 41.6647,114.261 37,115.5C 35.7823,118.558 33.949,121.224 31.5,123.5C 27.1917,119.583 25.8583,114.917 27.5,109.5 Z"/></g>
<g><path style="opacity:1" fill="#4f2514" d="M 42.5,97.5 C 46.8975,106.059 53.8975,110.892 63.5,112C 88.6626,115.769 113.663,115.269 138.5,110.5C 140.898,110.259 142.898,110.926 144.5,112.5C 136.466,115.151 128.133,116.651 119.5,117C 98.3714,118.254 77.3714,117.254 56.5,114C 51.8116,112.326 47.8116,109.659 44.5,106C 37.3321,105.012 30.3321,105.678 23.5,108C 22.4238,109.726 22.2571,111.559 23,113.5C 24.9124,118.323 27.079,122.989 29.5,127.5C 28.3271,136.682 26.6604,145.682 24.5,154.5C 25.4011,164.562 30.4011,171.728 39.5,176C 46.5626,178.75 53.896,180.417 61.5,181C 67.6843,182.933 69.0176,186.6 65.5,192C 60.2919,193.397 54.9586,193.897 49.5,193.5C 48.1667,199.833 46.8333,206.167 45.5,212.5C 44.5,212.5 43.5,212.5 42.5,212.5C 42.596,205.449 44.2627,198.783 47.5,192.5C 41.3947,189.74 38.0614,185.073 37.5,178.5C 25.185,172.678 20.0183,163.011 22,149.5C 22.9849,142.469 24.1516,135.469 25.5,128.5C 22.6733,122.52 20.34,116.353 18.5,110C 19.0389,106.629 21.0389,104.796 24.5,104.5C 30.4853,103.924 36.4853,103.424 42.5,103C 42.3167,101.15 42.3167,99.3167 42.5,97.5 Z"/></g>
<g><path style="opacity:1" fill="#ffa695" d="M 143.5,115.5 C 147.167,115.5 150.833,115.5 154.5,115.5C 154.324,120.52 152.491,124.854 149,128.5C 146.651,124.472 143.817,120.806 140.5,117.5C 141.602,116.824 142.602,116.158 143.5,115.5 Z"/></g>
<g><path style="opacity:1" fill="#a2958c" d="M 190.5,209.5 C 190.5,210.5 190.5,211.5 190.5,212.5C 185.167,212.5 179.833,212.5 174.5,212.5C 175.01,208.116 175.843,203.782 177,199.5C 178.593,172.098 176.093,145.098 169.5,118.5C 171.591,118.682 173.591,118.348 175.5,117.5C 176.919,119.336 178.086,121.336 179,123.5C 188.563,152.192 191.063,181.525 186.5,211.5C 188.199,211.473 189.533,210.806 190.5,209.5 Z"/></g>
<g><path style="opacity:1" fill="#4f2615" d="M 61.5,121.5 C 69.0615,120.86 71.0615,123.693 67.5,130C 61.2401,132.412 58.4068,130.245 59,123.5C 59.9947,122.934 60.828,122.267 61.5,121.5 Z"/></g>
<g><path style="opacity:1" fill="#502715" d="M 107.5,123.5 C 115.818,123.987 117.485,127.487 112.5,134C 104.088,133.812 102.421,130.312 107.5,123.5 Z"/></g>
<g><path style="opacity:1" fill="#fedcd8" d="M 50.5,127.5 C 56.5446,127.029 58.5446,129.529 56.5,135C 53.2093,137.074 50.0426,136.908 47,134.5C 46.1762,131.16 47.3429,128.827 50.5,127.5 Z"/></g>
<g><path style="opacity:1" fill="#451e12" d="M 83.5,128.5 C 86.4535,130.238 89.4535,131.238 92.5,131.5C 92.1667,132.5 91.5,133.167 90.5,133.5C 89.7382,138.593 88.5716,143.593 87,148.5C 85.9207,150.394 84.5874,150.727 83,149.5C 81.9191,142.979 80.4191,136.646 78.5,130.5C 79.3914,129.41 80.3914,129.41 81.5,130.5C 82.5223,130.145 83.189,129.478 83.5,128.5 Z"/></g>
<g><path style="opacity:1" fill="#fedcd7" d="M 118.5,130.5 C 126.061,129.86 128.061,132.693 124.5,139C 120.132,140.459 117.132,139.126 115.5,135C 115.957,133.06 116.957,131.56 118.5,130.5 Z"/></g>
<g><path style="opacity:1" fill="#ef6957" d="M 83.5,131.5 C 86.2721,131.627 87.6054,133.127 87.5,136C 87.0601,139.593 86.2268,143.093 85,146.5C 82.4854,141.702 81.9854,136.702 83.5,131.5 Z"/></g>
<g><path style="opacity:1" fill="#f3ded4" d="M 150.5,133.5 C 151.222,133.918 151.722,134.584 152,135.5C 156.348,148.665 153.515,159.831 143.5,169C 138.19,171.803 133.523,175.303 129.5,179.5C 128.697,178.577 128.53,177.577 129,176.5C 140.956,164.587 148.123,150.254 150.5,133.5 Z"/></g>
<g><path style="opacity:1" fill="#4e2414" d="M 156.5,109.5 C 158.03,110.067 159.53,110.733 161,111.5C 161.668,119.498 159.501,126.665 154.5,133C 154.862,134.225 155.362,135.391 156,136.5C 156.667,143.5 156.667,150.5 156,157.5C 155.275,159.949 154.275,162.283 153,164.5C 147.076,170.428 140.576,175.594 133.5,180C 132.167,182 132.167,184 133.5,186C 143.984,186.762 152.65,183.095 159.5,175C 160.448,174.517 161.448,174.351 162.5,174.5C 162.649,175.552 162.483,176.552 162,177.5C 155.394,184.722 147.228,189.222 137.5,191C 140.18,197.893 141.514,205.06 141.5,212.5C 138.5,212.833 137.167,211.5 137.5,208.5C 137.04,202.186 135.707,196.186 133.5,190.5C 131.866,189.028 130.366,187.362 129,185.5C 128.322,183.402 128.489,181.402 129.5,179.5C 133.523,175.303 138.19,171.803 143.5,169C 153.515,159.831 156.348,148.665 152,135.5C 151.722,134.584 151.222,133.918 150.5,133.5C 154.253,127.994 156.919,121.994 158.5,115.5C 157.638,113.233 155.971,112.233 153.5,112.5C 151.166,111.876 148.833,111.043 146.5,110C 149.817,109.502 153.15,109.335 156.5,109.5 Z"/></g>
<g><path style="opacity:1" fill="#c4bab3" d="M 41.5,180.5 C 48.3589,182.567 55.3589,184.067 62.5,185C 64.2495,189.921 62.4162,191.755 57,190.5C 51.6747,190.614 47.0081,188.948 43,185.5C 41.9914,183.975 41.4914,182.308 41.5,180.5 Z"/></g>
<g><path style="opacity:1" fill="#f7e1d7" d="M 133.5,190.5 C 135.707,196.186 137.04,202.186 137.5,208.5C 136.566,209.568 136.232,210.901 136.5,212.5C 134.833,212.5 133.167,212.5 131.5,212.5C 131.686,205.972 131.352,199.472 130.5,193C 130.393,188.553 131.226,188.386 133,192.5C 133.464,191.906 133.631,191.239 133.5,190.5 Z"/></g>
<g><path style="opacity:1" fill="#491f13" d="M 71.5,191.5 C 76.0608,193.56 79.8941,196.56 83,200.5C 85.2624,210.569 81.4291,214.069 71.5,211C 68.2409,209.789 65.4075,207.956 63,205.5C 62.4092,204.517 62.7425,203.85 64,203.5C 67.2272,204.864 70.3939,206.364 73.5,208C 78.6622,209.424 80.8288,207.59 80,202.5C 78,199.167 75.3333,196.5 72,194.5C 71.5172,193.552 71.3505,192.552 71.5,191.5 Z"/></g>
<g><path style="opacity:1" fill="#451c0f" d="M 104.5,193.5 C 106.344,194.204 106.844,195.537 106,197.5C 101.603,200.382 100.769,203.882 103.5,208C 110.19,207.471 115.19,204.137 118.5,198C 119.6,197.568 120.267,198.068 120.5,199.5C 117.211,205.959 112.045,209.959 105,211.5C 100.833,211.333 98.6667,209.167 98.5,205C 99.4031,200.596 101.403,196.763 104.5,193.5 Z"/></g>
</svg>
